<?xml version="1.0" encoding="utf-8" standalone="no"?>
<!DOCTYPE svg PUBLIC "-//W3C//DTD SVG 1.1//EN"
  "http://www.w3.org/Graphics/SVG/1.1/DTD/svg11.dtd">
<svg height="95.431066pt" version="1.1" viewBox="0 0 205.760364 95.431066" width="205.760364pt" xmlns="http://www.w3.org/2000/svg" xmlns:xlink="http://www.w3.org/1999/xlink">
 <metadata>
  <rdf:RDF xmlns:cc="http://creativecommons.org/ns#" xmlns:dc="http://purl.org/dc/elements/1.1/" xmlns:rdf="http://www.w3.org/1999/02/22-rdf-syntax-ns#">
   <cc:Work>
    <dc:type rdf:resource="http://purl.org/dc/dcmitype/StillImage"/>
    <dc:date>2022-03-14T00:14:44.219136</dc:date>
    <dc:format>image/svg+xml</dc:format>
    <dc:creator>
     <cc:Agent>
      <dc:title>Matplotlib v3.4.3, https://matplotlib.org/</dc:title>
     </cc:Agent>
    </dc:creator>
   </cc:Work>
  </rdf:RDF>
 </metadata>
 <defs>
  <style type="text/css">*{stroke-linecap:butt;stroke-linejoin:round;}</style>
 </defs>
 <g id="figure_1">
  <g id="patch_1">
   <path d="M 0 95.431066 
L 205.760364 95.431066 
L 205.760364 0 
L 0 0 
z
" style="fill:none;"/>
  </g>
  <g id="axes_1">
   <g id="LineCollection_1">
    <path clip-path="url(#pf7c6cb8b62)" d="M 40.703157 55.941051 
L 40.66049 56.106457 
L 40.632069 56.124836 
L 40.632069 55.956959 
L 40.703157 55.941051 
" style="fill:none;stroke:#ffffff;stroke-width:0.3;"/>
    <path clip-path="url(#pf7c6cb8b62)" d="M 75.652472 47.569253 
L 75.501125 47.432037 
L 75.17927 47.358345 
L 74.970628 47.564392 
L 74.861867 47.647975 
L 75.025932 47.834666 
L 74.93204 47.878613 
L 74.722322 47.947132 
L 74.66277 47.741663 
L 74.617997 47.80014 
L 74.504562 47.779948 
L 74.435154 47.641559 
L 73.750635 47.453117 
L 73.777749 47.317411 
L 73.315816 46.961305 
L 73.337927 47.061303 
L 73.269292 47.143491 
L 73.035135 46.840023 
L 73.062365 46.616762 
L 72.427801 45.937077 
L 72.510628 45.964547 
L 72.34675 45.827037 
L 72.308571 45.908025 
L 71.652215 45.780211 
L 71.378351 45.646363 
L 71.006497 45.571916 
L 69.973986 44.8583 
L 69.089366 44.955951 
L 68.252255 44.68454 
L 66.800736 43.982051 
L 66.431166 43.786837 
L 66.176853 43.402311 
L 66.291603 43.368735 
L 66.256215 43.270648 
L 66.33699 43.062486 
L 65.258328 41.772596 
L 64.899868 41.548144 
L 64.952301 41.335565 
L 64.573925 41.088202 
L 64.488182 40.848206 
L 64.303171 40.82022 
L 63.927265 40.364277 
L 63.620465 39.841459 
L 63.625672 39.709352 
L 63.065795 39.493156 
L 63.010677 39.632816 
L 63.219017 40.197946 
L 63.689775 40.653765 
L 63.936507 41.084896 
L 64.152668 41.259936 
L 64.483356 42.073113 
L 64.649207 42.08448 
L 64.903547 42.455933 
L 64.697864 42.580619 
L 64.607171 42.371533 
L 63.969514 41.670164 
L 63.917329 41.483784 
L 62.969939 40.895378 
L 63.136678 40.888926 
L 63.27713 40.605295 
L 62.556094 39.824404 
L 61.976312 38.866578 
L 61.585239 38.709474 
L 61.46216 38.616443 
L 61.054915 38.52699 
L 61.013135 38.338398 
L 60.67942 37.992841 
L 59.756426 36.564868 
L 59.81984 35.984815 
L 59.710072 35.721228 
L 59.88628 35.084951 
L 59.928106 34.77281 
L 59.757252 34.017231 
L 59.698632 33.79038 
L 60.19602 33.907225 
L 60.379222 34.231915 
L 60.464302 34.141112 
L 60.246165 33.576159 
L 59.334556 33.089804 
L 58.71166 32.947391 
L 58.520028 32.642919 
L 58.56902 32.431808 
L 58.128945 32.285364 
L 58.068602 32.008067 
L 57.65251 31.758365 
L 57.64524 31.581167 
L 57.645239 31.581167 
L 57.15301 31.342114 
L 57.055741 31.042112 
L 56.612329 30.763893 
L 56.42698 30.439141 
L 55.146812 30.309496 
L 54.106268 29.887288 
L 53.504638 29.764522 
L 53.028459 29.793849 
L 51.561361 29.562092 
L 51.632297 29.801021 
L 50.741402 30.010872 
L 50.360253 30.083924 
L 50.311054 29.881281 
L 50.465734 29.543927 
L 50.831277 29.438064 
L 50.063788 29.77236 
L 49.568209 30.01704 
L 49.819865 30.184046 
L 49.12509 30.575096 
L 48.780848 30.680008 
L 48.69563 30.832306 
L 48.158681 31.009914 
L 48.049956 31.171384 
L 47.411446 31.291964 
L 45.81121 31.660458 
L 46.890547 31.205492 
L 47.317243 31.166602 
L 47.486826 31.025582 
L 48.294351 30.629369 
L 48.353682 30.368542 
L 48.528615 30.165419 
L 47.834889 30.335571 
L 47.610268 30.161117 
L 47.517531 30.284541 
L 47.388899 30.113056 
L 46.833892 30.25045 
L 46.866472 29.919584 
L 46.645005 29.797102 
L 46.197772 29.863027 
L 45.672198 29.619014 
L 45.670669 29.4242 
L 45.405639 29.277634 
L 45.538723 29.07987 
L 46.220132 28.686234 
L 46.456119 28.741263 
L 46.733574 28.575314 
L 46.983319 28.604935 
L 47.245391 28.49821 
L 47.181475 28.34113 
L 46.988954 28.279223 
L 47.243578 28.146521 
L 47.03234 28.150431 
L 46.291308 28.225438 
L 45.804811 28.264035 
L 45.301109 28.18158 
L 45.156747 28.043235 
L 44.721457 27.843365 
L 45.972013 27.531517 
L 46.254809 27.531517 
L 46.208001 27.703304 
L 46.934022 27.68992 
L 46.654755 27.476861 
L 45.98705 27.173918 
L 45.184457 26.918521 
L 45.376978 26.738237 
L 45.987112 26.727057 
L 46.421246 26.57036 
L 46.503123 26.402874 
L 47.189571 26.200071 
L 48.687125 25.88705 
L 49.207535 25.959275 
L 49.456427 26.114524 
L 49.609196 26.047942 
L 50.190474 26.068577 
L 50.169838 26.147681 
L 52.697877 26.357497 
L 53.155527 26.301597 
L 55.59272 26.733075 
L 56.311214 26.4822 
L 56.822116 26.524193 
L 57.900245 26.287434 
L 58.136532 26.429975 
L 58.393179 26.349631 
L 58.470014 26.187637 
L 58.707701 26.224312 
L 59.289254 26.532709 
L 59.747222 26.299572 
L 59.793707 26.560532 
L 60.762762 26.423608 
L 62.09371 26.694126 
L 63.36796 26.904755 
L 62.884037 27.075454 
L 63.505771 27.149218 
L 64.727169 27.048478 
L 65.093818 27.254711 
L 65.467972 27.0807 
L 65.116935 26.934768 
L 65.339052 26.81704 
L 66.310505 26.848925 
L 66.656145 27.035766 
L 67.040256 27.008336 
L 67.647956 27.16341 
L 68.683638 27.117059 
L 68.643946 26.903021 
L 68.94976 26.842933 
L 69.482737 26.959618 
L 69.480683 27.285 
L 69.699591 27.010761 
L 69.976276 27.020003 
L 70.131804 26.674263 
L 69.361872 26.323181 
L 69.389443 25.943094 
L 69.796114 25.693485 
L 70.597734 25.900489 
L 71.065006 26.28826 
L 70.759825 26.45725 
L 71.399512 26.526835 
L 71.397995 26.878584 
L 71.857638 26.609015 
L 72.268828 26.830399 
L 72.166389 27.085508 
L 72.4991 27.317558 
L 73.109108 26.772106 
L 73.127912 26.394603 
L 74.125161 26.471596 
L 74.586796 26.642279 
L 74.607512 26.812999 
L 74.351557 26.996373 
L 74.59407 27.180514 
L 74.550302 27.347805 
L 73.398447 27.641361 
L 73.042798 27.537821 
L 72.940242 27.710512 
L 72.109476 28.383721 
L 71.617116 28.406505 
L 71.345553 28.551845 
L 71.322832 28.775399 
L 70.922686 28.818438 
L 70.50184 29.097173 
L 69.995431 29.755661 
L 69.976414 30.155122 
L 70.481878 30.212459 
L 70.797621 30.795467 
L 71.278926 30.727505 
L 72.261908 31.007159 
L 72.508029 31.169669 
L 74.245451 31.462309 
L 74.189267 31.760188 
L 74.296298 32.105942 
L 74.545411 32.490875 
L 75.057163 32.817443 
L 75.321964 32.705484 
L 75.508076 32.35185 
L 75.32843 31.808624 
L 75.085817 31.627612 
L 75.636428 31.466392 
L 76.216802 30.985624 
L 76.188659 30.755727 
L 75.955092 30.463554 
L 75.537322 30.204734 
L 75.943226 29.844263 
L 75.793277 29.532894 
L 75.678346 28.995724 
L 75.917805 28.916309 
L 76.861081 29.043372 
L 77.145983 28.953019 
L 77.889881 29.268921 
L 77.994232 29.402436 
L 78.60759 29.428494 
L 78.597302 29.717468 
L 78.711642 30.152185 
L 79.02579 30.205945 
L 79.275083 30.408532 
L 79.773117 30.217553 
L 80.32972 29.678144 
L 81.425882 30.836617 
L 81.287576 31.052619 
L 82.823477 31.64179 
L 82.959788 31.932835 
L 83.365847 32.108236 
L 83.390935 32.494741 
L 82.894431 32.744766 
L 82.32763 32.867013 
L 81.894846 33.14958 
L 81.313372 33.205406 
L 79.705266 33.154326 
L 79.417289 33.40108 
L 78.97881 33.55352 
L 78.086793 34.326258 
L 78.378931 34.269729 
L 78.931049 33.817798 
L 79.652511 33.531252 
L 80.16712 33.496967 
L 80.47161 33.665606 
L 80.146762 33.896614 
L 80.368012 34.526857 
L 80.81477 34.69865 
L 81.383174 34.648864 
L 81.728009 34.262207 
L 81.751931 34.511672 
L 81.974031 34.636265 
L 81.54856 34.861604 
L 80.445618 35.205459 
L 80.061252 35.453207 
L 79.800076 35.427948 
L 79.786892 35.13681 
L 80.384074 34.85239 
L 79.451306 34.905534 
L 79.510724 35.018291 
L 78.186432 35.68707 
L 78.182955 35.869468 
L 78.296458 36.051762 
L 78.439198 36.060361 
L 78.403083 35.934818 
L 78.478742 36.109487 
L 77.002613 36.50973 
L 77.103828 36.52551 
L 77.029555 36.772594 
L 76.779275 37.037341 
L 76.753696 36.948993 
L 76.565334 36.845086 
L 76.636893 37.030303 
L 76.727445 37.221499 
L 76.392251 37.61619 
L 76.498608 37.382148 
L 76.32291 37.250702 
L 76.282623 36.964953 
L 76.289733 37.331859 
L 76.062495 37.277951 
L 76.299264 37.38872 
L 76.412706 37.739786 
L 76.496737 38.202923 
L 76.27809 38.458204 
L 75.922288 38.560195 
L 75.524434 38.783998 
L 74.72969 39.412751 
L 74.514569 39.861026 
L 74.690129 40.394147 
L 74.844907 40.786252 
L 74.996928 41.417139 
L 74.896145 41.760955 
L 74.624045 41.76264 
L 74.439044 41.532626 
L 74.045131 40.839138 
L 74.11573 40.610837 
L 73.751283 40.133928 
L 73.617001 40.081152 
L 73.208442 40.220067 
L 72.825913 39.974527 
L 71.72739 40.057077 
L 71.789335 40.148501 
L 71.791228 40.401161 
L 71.534503 40.415668 
L 71.284933 40.40497 
L 71.028153 40.223204 
L 70.728133 40.266094 
L 70.264019 40.210605 
L 69.974556 40.290962 
L 69.052767 41.01326 
L 68.93825 42.082142 
L 68.939592 42.898564 
L 69.558071 43.954723 
L 70.367125 44.093744 
L 71.103438 43.938193 
L 71.322202 43.797848 
L 71.491857 43.207719 
L 72.088527 43.037869 
L 72.684211 43.093644 
L 72.672542 43.259308 
L 72.405929 43.673189 
L 72.469321 43.733088 
L 72.331589 44.150159 
L 72.244407 44.061821 
L 72.173665 44.118015 
L 72.238852 44.119596 
L 72.08579 44.836118 
L 71.955505 44.966198 
L 72.23392 45.034513 
L 72.439683 44.997152 
L 72.652839 45.011105 
L 73.629708 45.048413 
L 73.897609 45.382603 
L 73.853467 45.62562 
L 73.823882 46.004237 
L 73.771484 46.430826 
L 73.717113 46.61174 
L 74.532156 47.40861 
L 75.056575 47.227509 
L 75.173964 47.124721 
L 75.695867 47.249878 
L 75.937516 47.448415 
L 76.115231 47.459338 
L 76.518332 47.068866 
L 76.581715 46.778231 
L 76.778981 46.618619 
L 77.292202 46.5691 
L 77.985244 46.173891 
L 78.075483 46.264371 
L 77.998939 46.461451 
L 77.797024 46.501594 
L 77.90502 46.837561 
L 77.7533 47.037343 
L 77.883495 47.31023 
L 78.031768 47.287897 
L 78.109005 47.039289 
L 78.002351 46.918238 
L 77.984968 46.657856 
L 78.413299 46.518035 
L 78.365647 46.355917 
L 78.486235 46.247405 
L 78.609695 46.489099 
L 78.850908 46.49468 
L 79.087847 46.80036 
L 79.764146 46.768038 
L 79.961101 46.922069 
L 80.22415 46.964576 
L 80.421044 46.770517 
L 81.259274 46.744993 
L 80.9672 46.846582 
L 81.084696 47.008949 
L 81.359769 47.034793 
L 81.620543 47.203923 
L 81.675349 47.479485 
L 81.989366 47.552794 
L 82.428015 47.903399 
L 82.437675 48.080501 
L 82.567267 48.08865 
L 82.887371 48.376174 
L 83.336453 48.383062 
L 83.614548 48.35824 
L 84.354425 48.569922 
L 84.977792 49.175088 
L 85.170713 49.776602 
L 85.354658 49.833381 
L 85.363936 50.070809 
L 85.105232 50.353951 
L 85.212215 50.457628 
L 85.820199 50.511644 
L 85.832605 50.856392 
L 86.09385 50.630695 
L 87.097931 50.96437 
L 87.265808 51.165929 
L 87.209411 51.356326 
L 87.609356 51.250321 
L 88.278732 51.43224 
L 88.792592 51.418838 
L 89.301049 51.703491 
L 90.005271 52.188033 
L 90.424048 52.310319 
L 90.59788 52.956357 
L 90.460912 53.524971 
L 89.145276 55.174895 
L 89.169689 55.819351 
L 88.867519 57.171788 
L 88.518781 57.620782 
L 88.460304 57.976016 
L 88.181907 58.12507 
L 88.101381 58.331233 
L 87.727706 58.330416 
L 86.559169 58.71608 
L 86.15438 58.989944 
L 85.86323 59.331084 
L 85.728057 60.293147 
L 85.487679 60.482442 
L 84.803596 61.360628 
L 84.569759 61.521485 
L 84.41291 61.848654 
L 83.648043 62.452656 
L 82.447238 62.093849 
L 82.423722 62.273403 
L 82.860407 62.56801 
L 82.813448 62.805118 
L 83.028373 62.95499 
L 83.010901 63.122991 
L 82.680408 63.56404 
L 82.170431 63.748518 
L 81.102772 63.785488 
L 81.175069 63.99062 
L 80.961805 64.542544 
L 80.609361 64.590019 
L 80.278619 64.464782 
L 80.145873 64.554772 
L 80.193845 64.896552 
L 80.426065 65.000087 
L 80.614364 64.891629 
L 80.716824 65.070295 
L 80.400132 65.177064 
L 80.123939 65.390941 
L 79.992046 65.921109 
L 79.667116 65.922087 
L 79.397518 66.098282 
L 79.298889 66.356203 
L 79.637158 66.608028 
L 79.965989 66.677578 
L 79.847649 66.986156 
L 79.441411 67.180161 
L 79.217874 67.583386 
L 78.763015 67.880161 
L 78.874104 68.237387 
L 79.103026 68.436493 
L 78.958033 68.41911 
L 78.486395 68.501138 
L 78.176041 68.625397 
L 78.120585 68.946665 
L 77.974935 68.954646 
L 77.586907 68.842846 
L 76.657521 68.188632 
L 76.754995 67.987091 
L 76.581946 67.758355 
L 76.53783 67.172056 
L 76.684094 66.841225 
L 77.047371 66.575465 
L 76.525317 66.475166 
L 76.852842 66.171227 
L 76.969938 65.599947 
L 77.35219 65.72099 
L 77.531922 65.008458 
L 77.301098 64.917028 
L 77.193635 65.346363 
L 76.976737 65.297929 
L 77.260973 63.598095 
L 77.232596 63.2106 
L 77.377518 63.19942 
L 77.971957 61.58117 
L 77.892756 61.065844 
L 77.995473 60.782097 
L 77.954263 60.357578 
L 78.155396 59.937592 
L 78.410162 57.22591 
L 78.338568 56.741457 
L 76.665138 55.681299 
L 76.39984 55.469288 
L 75.109551 52.90515 
L 74.597263 52.541419 
L 74.708583 52.387922 
L 74.541906 52.059864 
L 74.648968 51.81897 
L 75.106209 51.344702 
L 75.031824 51.194492 
L 74.900357 51.354211 
L 74.694337 51.203486 
L 74.764145 51.106528 
L 74.706068 50.79436 
L 74.82655 50.742495 
L 74.996036 50.166345 
L 75.420936 49.955676 
L 75.37427 49.848898 
L 75.5026 49.82309 
L 75.568027 49.526208 
L 75.73865 49.503146 
L 76.015136 49.10656 
L 75.888362 49.024709 
L 75.953255 48.825088 
L 75.652472 47.569253 
L 75.652472 47.569253 
" style="fill:none;stroke:#ffffff;stroke-width:0.3;"/>
    <path clip-path="url(#pf7c6cb8b62)" d="M 48.90869 43.875145 
L 48.918523 43.779014 
L 48.86163 43.653795 
L 48.878756 43.61552 
L 48.938466 43.559432 
L 48.914736 43.49179 
L 48.934682 43.459713 
L 48.960833 43.46608 
L 49.092535 43.52419 
L 49.153628 43.554021 
L 49.209437 43.600083 
L 49.297093 43.7206 
L 49.288818 43.739666 
L 49.154436 43.81312 
L 49.044392 43.866859 
L 48.994155 43.924398 
L 48.90869 43.875145 
" style="fill:none;stroke:#ffffff;stroke-width:0.3;"/>
    <path clip-path="url(#pf7c6cb8b62)" d="M 48.888393 43.288828 
L 48.859639 43.330126 
L 48.74435 43.354739 
L 48.685094 43.282307 
L 48.64556 43.254343 
L 48.642506 43.23286 
L 48.676203 43.203373 
L 48.798467 43.236062 
L 48.888393 43.288828 
" style="fill:none;stroke:#ffffff;stroke-width:0.3;"/>
    <path clip-path="url(#pf7c6cb8b62)" d="M 48.626103 43.146845 
L 48.615409 43.184029 
L 48.431093 43.174041 
L 48.456868 43.132144 
L 48.626103 43.146845 
" style="fill:none;stroke:#ffffff;stroke-width:0.3;"/>
    <path clip-path="url(#pf7c6cb8b62)" d="M 48.19033 42.96107 
L 48.219081 42.983165 
L 48.318407 43.096858 
L 48.299765 43.116722 
L 48.275149 43.112295 
L 48.15543 43.100205 
L 48.111703 43.022214 
L 48.09834 43.00848 
L 48.19033 42.96107 
" style="fill:none;stroke:#ffffff;stroke-width:0.3;"/>
    <path clip-path="url(#pf7c6cb8b62)" d="M 76.222836 43.136533 
L 76.336067 43.131805 
L 76.541198 43.201951 
L 76.516146 43.298785 
L 76.769694 43.312951 
L 77.029677 43.453722 
L 76.988877 43.534293 
L 76.760167 43.577955 
L 76.528659 43.595036 
L 76.291684 43.567824 
L 75.799206 43.601328 
L 76.029782 43.409447 
L 75.889606 43.320105 
L 75.667882 43.297114 
L 75.549035 43.197828 
L 75.467505 43.001947 
L 75.273126 43.01534 
L 74.9524 42.92311 
L 74.849194 42.850965 
L 74.400885 42.79766 
L 74.28083 42.730571 
L 74.409808 42.644633 
L 74.072427 42.627028 
L 73.825277 42.805756 
L 73.682764 42.810555 
L 73.633458 42.894476 
L 73.463244 42.932086 
L 73.316074 42.899479 
L 73.497628 42.793225 
L 73.572164 42.669126 
L 73.727671 42.592644 
L 73.903324 42.525599 
L 74.163733 42.492682 
L 74.247068 42.454894 
L 74.544136 42.479431 
L 74.814375 42.483315 
L 75.137429 42.600491 
L 75.274335 42.726412 
L 75.595603 42.687558 
L 75.71741 42.768377 
L 76.008693 42.9814 
L 76.222836 43.136533 
" style="fill:none;stroke:#ffffff;stroke-width:0.3;"/>
    <path clip-path="url(#pf7c6cb8b62)" d="M 47.695549 42.903964 
L 47.57971 42.841248 
L 47.597506 42.816184 
L 47.649983 42.782483 
L 47.729267 42.789789 
L 47.736342 42.869909 
L 47.695549 42.903964 
" style="fill:none;stroke:#ffffff;stroke-width:0.3;"/>
    <path clip-path="url(#pf7c6cb8b62)" d="M 75.402108 41.343453 
L 75.378031 41.216191 
L 75.539689 41.188675 
L 75.766696 41.198993 
L 75.777015 41.288421 
L 75.402108 41.343453 
" style="fill:none;stroke:#ffffff;stroke-width:0.3;"/>
    <path clip-path="url(#pf7c6cb8b62)" d="M 58.394261 32.968015 
L 58.755352 33.043022 
L 58.966394 33.09519 
L 59.289706 33.131609 
L 59.406651 33.250278 
L 59.576643 33.413561 
L 59.919996 33.555541 
L 60.061878 33.745565 
L 59.888909 33.79343 
L 59.324099 33.637222 
L 59.22092 33.515122 
L 58.91308 33.394738 
L 58.851173 33.296713 
L 58.497129 33.234815 
L 58.364622 33.047644 
L 58.394261 32.968015 
" style="fill:none;stroke:#ffffff;stroke-width:0.3;"/>
    <path clip-path="url(#pf7c6cb8b62)" d="M 56.715348 31.908497 
L 56.735868 31.798812 
L 56.897524 31.843514 
L 57.227724 31.816 
L 57.124713 32.206516 
L 57.424102 32.483118 
L 57.286938 32.482451 
L 57.079674 32.32515 
L 56.952562 32.166827 
L 56.778997 32.059702 
L 56.715348 31.908497 
" style="fill:none;stroke:#ffffff;stroke-width:0.3;"/>
    <path clip-path="url(#pf7c6cb8b62)" d="M 49.840083 30.492144 
L 50.068445 30.515374 
L 50.214158 30.622126 
L 49.916583 30.785577 
L 49.573052 30.91668 
L 49.397186 30.827916 
L 49.344014 30.666793 
L 49.656395 30.54456 
L 49.840083 30.492144 
" style="fill:none;stroke:#ffffff;stroke-width:0.3;"/>
    <path clip-path="url(#pf7c6cb8b62)" d="M 45.592134 29.824528 
L 45.381084 29.878028 
L 45.1556 29.813721 
L 44.946843 29.720282 
L 45.28649 29.661432 
L 45.559368 29.692581 
L 45.592134 29.824528 
" style="fill:none;stroke:#ffffff;stroke-width:0.3;"/>
    <path clip-path="url(#pf7c6cb8b62)" d="M 75.051488 28.973037 
L 75.192291 28.980566 
L 75.279723 29.051088 
L 75.144998 29.231868 
L 74.992957 29.202625 
L 74.902639 29.099993 
L 74.918721 29.076235 
L 75.051488 28.973037 
" style="fill:none;stroke:#ffffff;stroke-width:0.3;"/>
    <path clip-path="url(#pf7c6cb8b62)" d="M 74.381608 28.794533 
L 74.374296 28.861184 
L 73.971762 29.050901 
L 73.728916 29.042959 
L 73.653573 28.949924 
L 73.909194 28.791262 
L 74.381608 28.794533 
" style="fill:none;stroke:#ffffff;stroke-width:0.3;"/>
    <path clip-path="url(#pf7c6cb8b62)" d="M 43.840658 28.632449 
L 43.537404 28.65241 
L 43.455527 28.622122 
L 43.475976 28.492566 
L 43.688271 28.558029 
L 43.902663 28.522676 
L 44.180785 28.613431 
L 44.522351 28.659386 
L 44.493975 28.696845 
L 44.233432 28.769648 
L 43.971645 28.694837 
L 43.840658 28.632449 
" style="fill:none;stroke:#ffffff;stroke-width:0.3;"/>
    <path clip-path="url(#pf7c6cb8b62)" d="M 73.957926 28.382722 
L 73.616857 28.56576 
L 73.127419 28.743698 
L 73.009318 28.54253 
L 72.54319 28.575554 
L 72.842161 28.405437 
L 72.886143 28.134719 
L 73.003444 27.819707 
L 73.251962 27.847737 
L 73.315781 27.998995 
L 73.491798 27.945939 
L 73.691767 28.036108 
L 74.06841 28.154057 
L 74.462428 28.261218 
L 74.492893 28.424776 
L 74.746069 28.39799 
L 74.991619 28.512011 
L 74.686339 28.620265 
L 74.151096 28.537553 
L 73.957926 28.382722 
" style="fill:none;stroke:#ffffff;stroke-width:0.3;"/>
    <path clip-path="url(#pf7c6cb8b62)" d="M 43.192786 28.259273 
L 43.055092 28.330849 
L 42.732978 28.320562 
L 42.47086 28.200643 
L 42.013539 28.100336 
L 41.936621 27.951134 
L 41.587338 27.894874 
L 41.196173 27.939491 
L 41.009273 27.819136 
L 41.083983 27.691299 
L 40.672046 27.773005 
L 40.827199 27.934817 
L 40.632069 28.08079 
L 40.632069 26.710513 
L 41.474749 26.973167 
L 42.376504 27.315092 
L 42.346924 27.528872 
L 42.578892 27.614443 
L 42.499098 27.364518 
L 43.432758 27.415805 
L 44.106122 27.737688 
L 43.765097 27.887599 
L 43.201299 27.923191 
L 43.192786 28.259273 
" style="fill:none;stroke:#ffffff;stroke-width:0.3;"/>
    <path clip-path="url(#pf7c6cb8b62)" d="M 69.12589 26.402197 
L 69.332261 26.464108 
L 69.435446 26.529459 
L 69.64516 26.660965 
L 69.431278 26.781572 
L 68.967673 26.677358 
L 68.687559 26.714962 
L 68.217859 26.560415 
L 68.520536 26.45379 
L 68.761006 26.304683 
L 69.12589 26.402197 
" style="fill:none;stroke:#ffffff;stroke-width:0.3;"/>
    <path clip-path="url(#pf7c6cb8b62)" d="M 67.428185 26.656862 
L 67.31229 26.783024 
L 66.689821 26.728961 
L 66.098225 26.636094 
L 65.698368 26.657 
L 65.052613 26.773675 
L 64.180989 26.825247 
L 63.569082 26.857757 
L 63.382743 26.695447 
L 62.913236 26.601699 
L 62.607827 26.64015 
L 62.184059 26.367812 
L 62.412879 26.331164 
L 62.943806 26.272435 
L 63.428678 26.287888 
L 63.877641 26.228037 
L 63.212473 26.147684 
L 62.477504 26.175045 
L 61.989795 26.168128 
L 61.808333 26.041334 
L 62.606049 25.90376 
L 62.07548 25.908569 
L 61.474835 25.817975 
L 61.76352 25.560266 
L 62.002996 25.423343 
L 62.923867 25.213997 
L 63.275358 25.280427 
L 63.103668 25.441631 
L 63.869069 25.337541 
L 64.347378 25.511236 
L 64.736057 25.33557 
L 65.050363 25.44831 
L 65.331781 25.786228 
L 65.504568 25.64363 
L 65.260225 25.291406 
L 65.562882 25.241035 
L 65.904721 25.296057 
L 66.289991 25.434813 
L 66.505862 25.769887 
L 66.612515 26.012521 
L 67.190143 26.182849 
L 67.810834 26.345689 
L 67.773512 26.496976 
L 67.208789 26.524647 
L 67.428185 26.656862 
" style="fill:none;stroke:#ffffff;stroke-width:0.3;"/>
    <path clip-path="url(#pf7c6cb8b62)" d="M 40.632069 26.067818 
L 40.632069 25.832722 
L 40.676137 25.818309 
L 40.967652 25.819028 
L 41.465138 25.917415 
L 41.435685 25.964437 
L 41.081345 26.046899 
L 40.632069 26.067818 
" style="fill:none;stroke:#ffffff;stroke-width:0.3;"/>
    <path clip-path="url(#pf7c6cb8b62)" d="M 69.276335 25.783095 
L 68.712372 25.916256 
L 68.381078 25.887522 
L 68.143077 25.756174 
L 67.288296 25.490736 
L 67.295175 25.380672 
L 67.9974 25.423363 
L 67.61849 25.198378 
L 68.025584 25.031943 
L 68.435763 25.104345 
L 69.049327 25.060797 
L 69.138754 25.160543 
L 68.817645 25.325461 
L 69.338246 25.473539 
L 69.276335 25.783095 
" style="fill:none;stroke:#ffffff;stroke-width:0.3;"/>
    <path clip-path="url(#pf7c6cb8b62)" d="M 60.205585 26.043934 
L 60.024044 25.89316 
L 59.229878 25.711316 
L 59.377416 25.565628 
L 59.615674 25.314441 
L 59.91398 25.088313 
L 59.577682 24.877557 
L 60.740192 24.823839 
L 61.231389 24.895236 
L 62.109889 24.914353 
L 62.443941 25.013996 
L 62.813211 25.158758 
L 62.380819 25.245527 
L 61.53743 25.487297 
L 61.110931 25.728063 
L 61.110931 25.878163 
L 60.205585 26.043934 
" style="fill:none;stroke:#ffffff;stroke-width:0.3;"/>
    <path clip-path="url(#pf7c6cb8b62)" d="M 69.697402 25.025571 
L 70.038649 24.931848 
L 70.755322 24.943845 
L 71.412344 25.027526 
L 70.898421 25.333811 
L 70.488318 25.400624 
L 70.119344 25.657692 
L 69.726961 25.644868 
L 69.512373 25.342742 
L 69.517697 25.171746 
L 69.697402 25.025571 
" style="fill:none;stroke:#ffffff;stroke-width:0.3;"/>
    <path clip-path="url(#pf7c6cb8b62)" d="M 66.297717 25.404749 
L 65.761152 25.163983 
L 65.878096 25.11583 
L 66.338991 25.102071 
L 66.600394 25.177741 
L 66.297717 25.404749 
" style="fill:none;stroke:#ffffff;stroke-width:0.3;"/>
    <path clip-path="url(#pf7c6cb8b62)" d="M 75.580388 25.364625 
L 75.203906 25.41087 
L 75.104304 25.389992 
L 74.725866 25.207601 
L 74.740385 25.083779 
L 74.905766 25.060894 
L 75.69294 25.097968 
L 76.286063 25.286882 
L 76.316536 25.381915 
L 75.950904 25.371886 
L 75.580388 25.364625 
" style="fill:none;stroke:#ffffff;stroke-width:0.3;"/>
    <path clip-path="url(#pf7c6cb8b62)" d="M 70.157914 24.774511 
L 69.658575 24.74888 
L 69.241619 24.659192 
L 69.42472 24.504343 
L 69.919242 24.411686 
L 70.219537 24.53232 
L 70.345076 24.641178 
L 70.157914 24.774511 
" style="fill:none;stroke:#ffffff;stroke-width:0.3;"/>
    <path clip-path="url(#pf7c6cb8b62)" d="M 63.377105 24.730504 
L 64.091541 24.578406 
L 62.537568 24.61936 
L 62.056659 24.557872 
L 62.525939 24.22189 
L 62.849649 24.125638 
L 63.817635 24.241732 
L 64.428609 24.445403 
L 65.029534 24.471536 
L 64.537628 24.142509 
L 64.852743 24.017191 
L 65.207876 24.057037 
L 65.323849 24.220978 
L 65.458671 24.34348 
L 65.76496 24.285937 
L 66.125397 24.300871 
L 66.185939 24.46937 
L 65.976648 24.632485 
L 64.811847 24.68589 
L 63.944034 24.834835 
L 63.420973 24.842639 
L 63.377105 24.730504 
" style="fill:none;stroke:#ffffff;stroke-width:0.3;"/>
    <path clip-path="url(#pf7c6cb8b62)" d="M 69.267694 23.890885 
L 69.97659 23.91273 
L 70.358433 24.023338 
L 71.035638 24.022574 
L 71.332529 24.135707 
L 71.254172 24.264889 
L 71.648829 24.342705 
L 71.867292 24.42443 
L 72.331216 24.439556 
L 72.83307 24.468368 
L 73.379803 24.393806 
L 74.08015 24.364531 
L 74.639041 24.388722 
L 75.00742 24.518438 
L 75.08432 24.660738 
L 74.86975 24.752168 
L 74.356894 24.826065 
L 73.916619 24.784251 
L 72.929974 24.837218 
L 72.223877 24.843314 
L 71.668612 24.800923 
L 70.754486 24.690101 
L 70.635532 24.50125 
L 70.593701 24.330707 
L 70.248402 24.180542 
L 69.536893 24.138533 
L 69.13828 24.032012 
L 69.267694 23.890885 
" style="fill:none;stroke:#ffffff;stroke-width:0.3;"/>
    <path clip-path="url(#pf7c6cb8b62)" d="M 67.265761 24.174572 
L 67.63578 24.185314 
L 68.153853 24.068037 
L 68.637621 24.0879 
L 68.664102 24.042701 
L 68.927023 24.202102 
L 68.937744 24.378591 
L 68.781045 24.634298 
L 68.213959 24.669573 
L 67.844239 24.614569 
L 67.851372 24.413911 
L 67.287577 24.440378 
L 67.265761 24.174572 
" style="fill:none;stroke:#ffffff;stroke-width:0.3;"/>
    <path clip-path="url(#pf7c6cb8b62)" d="M 61.943151 24.124847 
L 61.303778 24.272044 
L 60.753223 24.324735 
L 60.287193 24.250261 
L 60.287193 24.250261 
L 60.871012 23.992998 
L 61.57735 23.770216 
L 62.104905 23.774998 
L 62.576649 23.724448 
L 62.52945 23.988714 
L 62.264526 24.108041 
L 61.943151 24.124847 
" style="fill:none;stroke:#ffffff;stroke-width:0.3;"/>
    <path clip-path="url(#pf7c6cb8b62)" d="M 69.465627 23.755464 
L 69.373912 23.659323 
L 70.066537 23.664353 
L 70.307963 23.728216 
L 70.266914 23.767541 
L 70.110208 23.777397 
L 69.465627 23.755464 
" style="fill:none;stroke:#ffffff;stroke-width:0.3;"/>
    <path clip-path="url(#pf7c6cb8b62)" d="M 64.644364 23.706656 
L 64.003151 23.80564 
L 63.493041 23.694552 
L 63.771536 23.584885 
L 64.273754 23.549834 
L 64.758723 23.603708 
L 64.644364 23.706656 
" style="fill:none;stroke:#ffffff;stroke-width:0.3;"/>
    <path clip-path="url(#pf7c6cb8b62)" d="M 69.264504 23.339041 
L 69.675567 23.458564 
L 69.58235 23.582859 
L 69.073458 23.653831 
L 68.793328 23.573945 
L 68.645918 23.444878 
L 68.618705 23.302542 
L 69.064037 23.316282 
L 69.264504 23.339041 
" style="fill:none;stroke:#ffffff;stroke-width:0.3;"/>
    <path clip-path="url(#pf7c6cb8b62)" d="M 66.699992 23.369444 
L 66.284103 23.286581 
L 66.259095 23.154759 
L 66.934273 23.20162 
L 67.86436 23.327124 
L 68.127472 23.490744 
L 68.261356 23.634244 
L 67.699683 23.595914 
L 67.133584 23.48439 
L 66.367837 23.471628 
L 66.699992 23.369444 
" style="fill:none;stroke:#ffffff;stroke-width:0.3;"/>
    <path clip-path="url(#pf7c6cb8b62)" d="M 64.405532 23.462483 
L 63.834306 23.462145 
L 63.839878 23.41308 
L 64.192731 23.310087 
L 64.377209 23.325755 
L 64.824523 23.395394 
L 64.405532 23.462483 
" style="fill:none;stroke:#ffffff;stroke-width:0.3;"/>
    <path clip-path="url(#pf7c6cb8b62)" d="M 72.612663 23.031485 
L 73.027348 23.142615 
L 72.55503 23.244975 
L 71.919481 23.503651 
L 71.311027 23.528381 
L 70.598247 23.484355 
L 70.228681 23.34414 
L 70.233985 23.219375 
L 70.505878 23.127756 
L 69.876874 23.130377 
L 69.497792 23.016 
L 69.279871 22.860276 
L 69.518325 22.707369 
L 69.75668 22.602477 
L 70.109237 22.578408 
L 69.958934 22.499578 
L 70.75882 22.48206 
L 71.198029 22.665709 
L 71.776861 22.739359 
L 72.340941 22.804477 
L 72.612663 23.031485 
" style="fill:none;stroke:#ffffff;stroke-width:0.3;"/>
    <path clip-path="url(#pf7c6cb8b62)" d="M 77.688043 69.174323 
L 77.336765 68.989407 
L 76.863031 68.604172 
L 77.146595 68.676381 
L 77.629475 68.90613 
L 78.085709 69.029584 
L 78.263171 68.871883 
L 78.374714 68.636414 
L 78.691779 68.494386 
L 78.936548 68.534996 
L 79.068629 68.694462 
L 79.240605 68.952426 
L 79.687742 69.158797 
L 80.169273 69.244784 
L 80.014495 69.41676 
L 79.687742 69.433958 
L 79.512354 69.312477 
L 79.398468 69.451582 
L 79.103496 69.55841 
L 78.934491 69.547468 
L 78.730835 69.519622 
L 78.481129 69.41622 
L 78.120809 69.366485 
L 77.688043 69.174323 
" style="fill:none;stroke:#ffffff;stroke-width:0.3;"/>
    <path clip-path="url(#pf7c6cb8b62)" d="M 81.493486 68.264523 
L 81.906228 68.058152 
L 82.198586 68.14414 
L 82.404957 68.00656 
L 82.680118 68.161338 
L 82.576933 68.281721 
L 82.112598 68.384906 
L 81.95782 68.264523 
L 81.665462 68.419301 
L 81.493486 68.264523 
" style="fill:none;stroke:#ffffff;stroke-width:0.3;"/>
    <path clip-path="url(#pf7c6cb8b62)" d="M 98.516258 48.071107 
L 98.089465 47.748292 
L 97.614459 46.985727 
L 97.48955 46.765398 
L 97.339216 46.633283 
L 96.807075 46.170861 
L 96.65276 45.486857 
L 96.48115 45.364402 
L 96.632444 45.299073 
L 96.880803 44.88098 
L 96.851013 44.69564 
L 96.947029 44.526047 
L 96.951731 43.862306 
L 96.855617 43.356302 
L 96.67432 43.207754 
L 96.705336 42.903016 
L 96.949998 42.630058 
L 96.927815 42.513655 
L 97.237513 42.052291 
L 97.353311 41.996871 
L 97.576671 41.400405 
L 97.805789 41.275044 
L 98.203042 40.786876 
L 98.522888 40.748884 
L 99.253478 40.134955 
L 99.167522 39.707024 
L 99.565557 38.997621 
L 100.165728 38.698303 
L 100.503678 38.130952 
L 100.756871 38.132605 
L 100.964224 38.278602 
L 101.647553 38.330751 
L 101.796962 38.334431 
L 102.127607 38.146477 
L 102.716616 37.944776 
L 103.047856 37.840086 
L 105.064603 37.663731 
L 105.204485 37.743759 
L 106.055051 37.625339 
L 106.044955 37.799366 
L 106.336701 37.672769 
L 106.361176 37.738844 
L 106.189193 37.907379 
L 106.186882 38.066476 
L 106.305969 38.151934 
L 106.26068 38.449616 
L 106.034273 38.622532 
L 106.099646 38.809996 
L 106.27753 38.815844 
L 106.494891 39.033133 
L 107.787062 39.33303 
L 107.948138 39.638741 
L 108.741685 39.849476 
L 109.108103 40.020482 
L 109.440683 39.773054 
L 109.360536 39.509577 
L 109.468413 39.342275 
L 109.953044 39.134185 
L 110.418334 39.204564 
L 110.663699 39.359796 
L 110.773202 39.418471 
L 111.987392 39.657658 
L 112.488154 39.812852 
L 113.197863 39.576967 
L 113.442423 39.620394 
L 113.536132 39.790994 
L 113.61595 39.678612 
L 114.159713 39.779348 
L 114.429017 39.579387 
L 114.405537 39.55988 
L 114.925005 38.514483 
L 114.850603 37.953814 
L 114.98087 37.824623 
L 114.771099 37.853915 
L 114.483424 37.774775 
L 114.246903 37.972744 
L 113.724875 38.011403 
L 113.446425 37.8268 
L 113.075655 37.815247 
L 112.996365 37.957947 
L 112.758653 37.998747 
L 112.426027 37.815602 
L 112.05053 37.821797 
L 111.846767 37.479724 
L 111.595493 37.288909 
L 111.762819 37.021443 
L 111.544783 36.857085 
L 111.926306 36.52813 
L 112.455977 36.514373 
L 112.600445 36.252977 
L 113.255992 36.298505 
L 114.070245 35.97817 
L 114.639285 35.970856 
L 115.733037 36.346327 
L 116.835889 36.144403 
L 116.887168 35.997437 
L 116.801283 35.7628 
L 115.847344 35.200482 
L 115.15788 34.868676 
L 115.408177 34.813706 
L 115.693581 34.526039 
L 115.501233 34.389937 
L 115.999096 34.174352 
L 115.690344 34.229786 
L 114.864911 34.386706 
L 114.568651 34.51492 
L 114.588753 34.72885 
L 114.757022 34.81182 
L 115.107848 34.791184 
L 115.04068 34.913897 
L 114.664151 34.973476 
L 114.197242 35.172458 
L 114.005974 35.102499 
L 114.081816 34.940878 
L 113.705963 34.840205 
L 113.766715 34.774263 
L 114.096 34.659939 
L 113.996393 34.581164 
L 113.461746 34.494231 
L 113.438071 34.365972 
L 113.11938 34.408328 
L 112.733396 34.940665 
L 112.462126 34.982461 
L 112.365897 35.397408 
L 112.187391 35.539903 
L 112.061781 35.785925 
L 112.213679 36.1144 
L 112.51392 36.22548 
L 112.45132 36.309738 
L 111.896161 36.435073 
L 111.609179 36.620316 
L 111.505627 36.389136 
L 110.700048 36.436255 
L 110.938471 36.629603 
L 110.572163 36.686009 
L 110.390208 36.508871 
L 110.325653 36.584349 
L 110.636487 37.185081 
L 110.806746 37.28483 
L 110.811901 37.479155 
L 110.493743 37.388009 
L 110.595198 37.563431 
L 110.376789 37.599539 
L 110.507234 37.903078 
L 110.278782 37.907379 
L 109.996741 37.757765 
L 109.408576 36.701828 
L 109.218055 36.58634 
L 109.217184 36.187772 
L 109.206252 36.026808 
L 108.565885 35.692335 
L 107.675167 35.042786 
L 107.668733 34.926676 
L 107.447622 34.87243 
L 107.342204 35.020897 
L 107.248356 34.786314 
L 107.26062 34.78075 
L 107.337173 34.749557 
L 107.06338 34.699451 
L 106.783739 34.821524 
L 106.873392 35.265363 
L 107.195904 35.43859 
L 107.368883 35.722942 
L 107.751614 36.000121 
L 108.104965 36.074017 
L 108.008469 36.142537 
L 108.899613 36.614512 
L 108.835341 36.737678 
L 108.644446 36.577089 
L 108.345627 36.520487 
L 108.200874 36.742966 
L 108.449464 36.870469 
L 108.408654 37.049953 
L 108.264968 37.070349 
L 107.93787 37.391848 
L 108.009375 37.102209 
L 108.084133 37.028739 
L 107.600516 36.464658 
L 106.97618 36.241592 
L 106.158905 35.664314 
L 106.051621 35.324302 
L 105.442322 35.217258 
L 105.100649 35.402091 
L 104.78905 35.596407 
L 104.11068 35.50328 
L 103.609697 35.614875 
L 103.588742 36.021797 
L 103.262799 36.250879 
L 102.79141 36.439286 
L 102.580004 36.629967 
L 102.447444 36.909928 
L 102.581586 37.106484 
L 102.382639 37.259937 
L 102.308254 37.48351 
L 102.048574 37.552056 
L 101.805032 37.816527 
L 100.825195 37.936716 
L 100.693826 38.06668 
L 100.398188 37.921936 
L 100.300679 37.724083 
L 99.660026 37.711712 
L 99.482533 37.749571 
L 99.502778 37.268922 
L 99.266631 37.106857 
L 99.294003 36.881694 
L 99.455534 36.6178 
L 99.519681 36.265241 
L 99.43577 36.025769 
L 99.453099 35.780806 
L 99.312612 35.631582 
L 99.799198 35.383348 
L 101.047861 35.501973 
L 101.889335 35.495317 
L 102.067201 35.289012 
L 102.132699 34.603755 
L 101.524084 34.06877 
L 100.998431 33.936477 
L 100.963762 33.685666 
L 101.409708 33.610845 
L 101.987306 33.699334 
L 101.878279 33.310008 
L 102.202978 33.457552 
L 103.003776 33.189339 
L 103.107044 32.907494 
L 103.86074 32.675692 
L 104.161941 32.169653 
L 105.272987 31.943849 
L 105.336779 32.019692 
L 105.570331 31.850126 
L 105.336299 31.335253 
L 105.383169 30.890783 
L 105.481834 30.787586 
L 105.905623 30.671352 
L 106.182314 30.574331 
L 106.11008 30.959569 
L 106.296566 31.011629 
L 106.11008 31.10402 
L 105.862432 31.351667 
L 105.962039 31.65206 
L 106.309613 31.732212 
L 106.305951 31.854285 
L 106.849041 31.695491 
L 107.399792 31.940846 
L 108.171547 31.680774 
L 108.604703 31.564389 
L 109.30561 31.710723 
L 109.383977 31.559358 
L 109.858618 31.447808 
L 109.797386 30.899759 
L 109.966419 30.683758 
L 110.290584 30.566297 
L 110.56372 30.823276 
L 110.839664 30.816584 
L 110.945669 30.349595 
L 110.819188 30.392946 
L 110.600903 30.270713 
L 110.571061 30.073117 
L 111.439329 29.927334 
L 112.167453 29.974014 
L 112.558379 29.78392 
L 112.19802 29.620382 
L 110.968953 29.773853 
L 110.409369 29.846408 
L 110.210245 29.658766 
L 109.877121 29.545864 
L 109.953692 29.207017 
L 109.786651 28.896751 
L 110.262519 28.480427 
L 111.279006 28.035486 
L 111.243227 27.890022 
L 110.764906 27.727477 
L 110.173239 27.824879 
L 109.839724 28.064866 
L 109.89342 28.275508 
L 108.682074 28.847908 
L 108.431601 29.332272 
L 109.005369 29.765393 
L 108.689451 30.153421 
L 108.331728 30.233885 
L 108.200519 30.811279 
L 108.00518 31.133498 
L 107.587932 31.100278 
L 107.393269 31.373067 
L 106.995038 31.388904 
L 106.885727 31.063752 
L 106.105459 29.975928 
L 105.426307 30.373714 
L 104.967733 30.454338 
L 104.492079 30.279173 
L 104.369081 29.909399 
L 104.260339 29.11564 
L 104.577057 28.894316 
L 105.485264 28.605557 
L 106.164327 28.250589 
L 107.620423 27.107087 
L 109.141679 26.416845 
L 109.896442 26.266288 
L 110.462354 26.284551 
L 110.986123 25.999614 
L 112.230884 25.946309 
L 113.30672 26.197973 
L 112.863716 26.28999 
L 113.240565 26.506043 
L 113.595399 26.386403 
L 114.160425 26.594332 
L 115.102332 26.676192 
L 116.665904 27.228678 
L 116.688632 27.457595 
L 116.306805 27.638307 
L 115.745174 27.730021 
L 113.957139 27.5123 
L 114.517893 27.764203 
L 114.562311 28.275239 
L 115.273885 28.469413 
L 115.318337 28.302638 
L 115.111144 28.154825 
L 115.330055 28.02455 
L 116.161527 28.238636 
L 116.451185 28.154825 
L 116.219706 27.902929 
L 117.021281 27.56606 
L 117.659882 27.706099 
L 117.860237 27.469715 
L 117.573426 27.264683 
L 117.741811 27.058979 
L 117.488962 26.845633 
L 118.451056 26.955969 
L 118.647569 27.148592 
L 118.212068 27.191053 
L 118.214424 27.382452 
L 118.485159 27.500214 
L 119.016567 27.425617 
L 119.100697 27.206235 
L 121.278924 26.763993 
L 120.939826 26.972716 
L 121.366484 27.008587 
L 121.61289 26.891079 
L 122.257572 26.881579 
L 122.768333 26.738998 
L 123.160238 26.946187 
L 123.551111 26.718405 
L 123.190705 26.519151 
L 123.36956 26.405647 
L 124.86166 26.617234 
L 126.108155 27.0102 
L 126.338094 26.83021 
L 125.563997 26.541642 
L 125.677391 26.378568 
L 125.483024 26.000139 
L 126.117751 25.68868 
L 126.343487 25.376077 
L 126.599263 25.308442 
L 127.509888 25.399146 
L 127.581598 25.590462 
L 127.25556 25.869434 
L 127.469497 25.979082 
L 127.580171 26.219521 
L 127.502032 26.690834 
L 127.881469 26.901659 
L 127.733855 27.131247 
L 127.060157 27.619795 
L 127.453297 27.67047 
L 127.590107 27.546647 
L 127.968529 27.458324 
L 128.059855 27.288126 
L 128.357542 27.124344 
L 128.157108 26.9288 
L 128.317588 26.701727 
L 127.941485 26.673427 
L 127.858768 26.482131 
L 128.133217 26.136763 
L 127.686527 25.856298 
L 128.302104 25.624468 
L 128.222458 25.379891 
L 128.394004 25.372084 
L 128.574751 25.562774 
L 128.439051 25.894687 
L 128.807124 25.957523 
L 128.650289 25.709486 
L 129.225899 25.574258 
L 129.939725 25.556049 
L 130.57534 25.752139 
L 130.269468 25.46568 
L 130.235203 25.099251 
L 131.660596 25.045007 
L 132.405952 24.999959 
L 132.126409 24.820145 
L 132.52445 24.594251 
L 132.919612 24.584793 
L 133.588354 24.414169 
L 135.795905 24.319417 
L 136.567846 24.136638 
L 137.199729 24.142351 
L 137.294539 23.993898 
L 137.623192 23.847495 
L 138.435178 23.706345 
L 139.025068 23.817795 
L 138.55673 23.902576 
L 139.335825 23.955272 
L 139.428647 24.12525 
L 139.74295 24.041549 
L 140.748478 24.046141 
L 141.799906 24.342751 
L 141.714338 24.521554 
L 140.171582 24.916338 
L 141.416528 24.986184 
L 141.591956 25.206959 
L 141.74303 25.117591 
L 142.293012 25.063257 
L 143.396583 25.120053 
L 143.480394 25.280926 
L 144.918337 25.332099 
L 144.93798 25.069386 
L 146.772441 25.308886 
L 146.930765 25.529011 
L 146.727294 25.673031 
L 147.159294 25.943707 
L 147.700188 26.083368 
L 148.032074 25.722456 
L 148.583827 25.877193 
L 149.170012 25.784729 
L 149.835771 25.890535 
L 150.089105 25.794091 
L 150.65172 25.842313 
L 150.403415 25.523003 
L 150.85752 25.373996 
L 153.96403 25.597361 
L 154.256795 25.801521 
L 155.157163 26.064372 
L 157.230808 26.055945 
L 157.517154 26.198162 
L 157.475312 26.44968 
L 157.899016 26.547603 
L 158.969375 26.468167 
L 160.270608 26.497589 
L 160.869757 26.803324 
L 161.295999 26.693318 
L 161.017853 26.473488 
L 161.170997 26.320681 
L 164.454545 26.710513 
L 164.452072 28.08264 
L 164.009885 28.233772 
L 163.564152 28.208568 
L 163.8743 28.391646 
L 164.189101 29.001069 
L 163.547993 28.926157 
L 161.754528 29.466814 
L 161.128829 29.834233 
L 160.636844 29.596294 
L 159.740686 29.866296 
L 159.584195 29.738535 
L 159.25288 29.885884 
L 158.792862 29.838725 
L 158.682048 30.064942 
L 158.269382 30.397794 
L 158.281641 30.536805 
L 158.673381 30.613881 
L 158.627301 31.114602 
L 158.307991 31.127345 
L 158.160738 31.415064 
L 158.303832 31.563149 
L 157.702358 31.738843 
L 157.582993 32.131553 
L 157.070234 32.215439 
L 156.967131 32.56489 
L 156.471363 32.885329 
L 156.1969 32.146556 
L 156.00492 31.382268 
L 156.170278 30.905246 
L 156.46048 30.699982 
L 156.478435 30.53924 
L 157.012928 30.462295 
L 158.21941 29.675592 
L 158.837714 29.401153 
L 159.114202 28.916282 
L 158.696257 28.945291 
L 158.489711 29.228627 
L 157.617302 29.606379 
L 157.335551 29.183412 
L 156.447593 29.300197 
L 155.586813 29.876742 
L 155.87081 30.087663 
L 154.571355 30.212882 
L 154.596264 29.964181 
L 154.061612 29.91198 
L 153.635491 30.080946 
L 152.583829 30.021824 
L 151.452436 30.123768 
L 149.020139 31.606332 
L 149.562041 31.649684 
L 149.731166 31.865076 
L 150.065239 31.94154 
L 150.285343 31.769723 
L 150.662617 31.792035 
L 151.159214 32.170419 
L 151.17088 32.463053 
L 150.901976 32.806695 
L 150.872967 33.217421 
L 150.717793 33.767337 
L 148.931812 35.503775 
L 148.256595 35.71005 
L 148.040524 35.542865 
L 147.142568 36.121892 
L 147.155579 36.368944 
L 146.408601 36.756226 
L 146.494557 36.999039 
L 146.689362 37.149915 
L 147.0714 37.778676 
L 147.074102 38.174925 
L 146.944457 38.36398 
L 146.048247 38.602145 
L 146.009784 38.414859 
L 146.073522 38.156902 
L 145.921553 37.798868 
L 146.177021 37.740933 
L 145.774241 37.38113 
L 145.631923 37.47432 
L 145.530699 37.3781 
L 145.43822 37.323231 
L 145.647671 36.826896 
L 145.284633 36.697189 
L 144.55056 36.957918 
L 144.180181 37.05181 
L 144.362971 36.892429 
L 144.291003 36.758492 
L 144.563357 36.527294 
L 144.381669 36.347082 
L 143.693507 36.707658 
L 143.481585 36.929755 
L 143.144267 36.946285 
L 142.968836 37.106786 
L 143.150097 37.339352 
L 143.431604 37.395812 
L 143.443122 37.550198 
L 143.715244 37.650658 
L 144.100695 37.405063 
L 144.684222 37.728313 
L 144.197245 37.824374 
L 144.036566 38.01007 
L 143.702092 38.182612 
L 143.525523 38.423355 
L 143.895723 38.612365 
L 144.240187 39.265877 
L 144.473775 39.530082 
L 144.468194 39.785577 
L 144.252309 39.879504 
L 144.334603 40.062951 
L 144.537051 40.169712 
L 144.396831 40.722445 
L 144.204639 40.753345 
L 143.355495 41.987539 
L 142.404079 42.594448 
L 142.016477 42.633933 
L 141.806227 42.786755 
L 141.6873 42.675116 
L 141.492726 42.84605 
L 140.648115 43.071071 
L 140.530681 43.434322 
L 140.34007 43.454469 
L 140.249884 43.204839 
L 140.331343 43.071791 
L 139.70731 43.017677 
L 139.248096 43.311938 
L 138.885894 43.875566 
L 139.470593 44.687535 
L 139.991732 45.176209 
L 140.149318 45.812747 
L 140.102838 46.417815 
L 138.712631 47.472748 
L 138.58775 47.25218 
L 138.684406 47.019169 
L 138.42924 46.823786 
L 138.141334 46.773565 
L 137.51874 46.081128 
L 137.224542 46.087544 
L 137.274985 45.817324 
L 136.972077 45.819341 
L 136.944883 46.197638 
L 136.670983 47.252793 
L 136.895044 47.263591 
L 137.288351 48.072218 
L 137.4967 48.112201 
L 138.101413 48.760763 
L 138.26426 49.565453 
L 138.392945 49.985901 
L 138.149048 50.008848 
L 137.376475 49.305826 
L 137.177635 49.075775 
L 136.967936 48.207177 
L 136.302133 47.558651 
L 136.513503 46.4954 
L 136.397865 46.291885 
L 136.425806 45.917188 
L 136.286172 45.738993 
L 135.963179 44.607986 
L 135.345722 45.025662 
L 134.939671 44.914378 
L 135.058225 44.488117 
L 134.986453 44.166085 
L 133.986335 42.600589 
L 133.669528 42.586831 
L 133.700811 42.728616 
L 133.592815 42.919999 
L 133.299043 42.875351 
L 133.165968 42.844557 
L 133.116716 42.97014 
L 132.458716 43.03722 
L 132.478481 43.295959 
L 132.294873 43.499464 
L 131.799898 43.730964 
L 131.156348 44.352607 
L 130.813627 44.577752 
L 130.813094 44.73596 
L 130.068036 45.224457 
L 130.157884 45.957126 
L 130.012136 46.283896 
L 130.010572 46.868249 
L 129.832581 46.884903 
L 129.676026 47.147241 
L 129.780716 47.260605 
L 129.467108 47.358114 
L 129.213258 47.690891 
L 128.887564 47.369729 
L 128.475896 46.378472 
L 128.29316 46.048041 
L 128.148371 45.403034 
L 127.835492 44.930641 
L 127.524675 43.085219 
L 127.024137 43.291098 
L 126.781715 43.249861 
L 126.332401 42.833004 
L 126.497772 42.708673 
L 126.396193 42.573705 
L 125.638071 41.947565 
L 125.372329 41.685636 
L 123.695406 41.804954 
L 122.285168 41.577374 
L 122.138477 41.155619 
L 121.973853 41.094671 
L 121.362635 41.32259 
L 120.942329 41.208497 
L 120.59511 40.944177 
L 120.263942 40.846206 
L 119.780431 40.061281 
L 119.59533 40.117021 
L 119.376744 40.003044 
L 119.248325 40.137292 
L 119.044206 40.120424 
L 119.558893 41.106127 
L 119.814113 41.392629 
L 119.823373 41.622724 
L 120.019511 41.916221 
L 119.996742 41.665933 
L 120.183353 41.448502 
L 120.287439 41.55632 
L 120.358056 42.168996 
L 120.911686 42.12377 
L 121.119431 42.133936 
L 121.971631 41.381591 
L 121.941077 41.857752 
L 122.287301 42.217573 
L 122.743297 42.325204 
L 123.113711 42.756912 
L 122.660327 43.40407 
L 122.432764 43.46804 
L 122.229108 43.91346 
L 122.014271 44.042003 
L 121.902099 44.28215 
L 121.553476 44.365991 
L 121.555182 44.504932 
L 121.388745 44.600432 
L 121.19897 44.568003 
L 120.494722 44.948602 
L 120.486616 45.065894 
L 118.611707 45.821803 
L 118.160919 45.950026 
L 117.499328 46.084203 
L 117.363462 45.593787 
L 117.082435 44.420193 
L 116.904782 44.296947 
L 116.233149 43.435068 
L 115.965559 42.868232 
L 115.980223 42.664345 
L 115.621664 42.148751 
L 115.435853 42.077619 
L 114.626381 40.77822 
L 114.455145 40.779873 
L 114.520808 40.194284 
L 114.384365 40.681694 
L 114.210604 40.92084 
L 113.94074 40.656359 
L 113.69532 40.163329 
L 114.762515 42.484532 
L 115.223496 42.863718 
L 115.258985 43.263582 
L 115.435218 44.028306 
L 115.754508 44.240105 
L 116.237486 45.121536 
L 117.084479 45.840963 
L 117.431715 46.311855 
L 117.235488 46.394158 
L 117.562515 46.693902 
L 117.717684 46.83789 
L 118.212677 46.751046 
L 119.060399 46.580778 
L 119.379108 46.505949 
L 119.379107 46.50595 
L 119.829881 46.413443 
L 120.123072 46.294756 
L 120.100409 46.770695 
L 119.930869 47.266728 
L 119.257467 48.594253 
L 118.559318 49.448566 
L 117.003561 50.746793 
L 116.846568 51.009603 
L 116.391833 51.315665 
L 116.165461 51.925642 
L 116.026963 52.039228 
L 115.888539 52.657959 
L 116.119066 52.872701 
L 116.021563 53.349249 
L 116.465902 54.133435 
L 116.5076 55.315435 
L 116.568086 55.483899 
L 116.332063 55.96853 
L 116.113067 56.18182 
L 115.410916 56.479502 
L 114.479069 57.480632 
L 114.775092 58.028532 
L 114.73939 58.727651 
L 114.311885 58.966251 
L 113.747395 59.279592 
L 113.835271 59.628659 
L 113.619705 60.320075 
L 113.172009 60.718216 
L 112.88101 61.141384 
L 111.989795 61.859105 
L 111.031287 62.120581 
L 110.307718 62.078243 
L 109.290396 62.406745 
L 108.820446 61.877839 
L 108.7087 61.647344 
L 108.8197 61.58469 
L 108.810706 61.320708 
L 107.774969 59.748617 
L 107.313445 57.894059 
L 106.955118 57.197258 
L 106.880039 56.98132 
L 106.600185 56.645548 
L 106.594551 55.862951 
L 107.122301 54.724408 
L 107.232644 54.571355 
L 107.250755 54.121615 
L 107.056288 53.789984 
L 106.990275 53.512138 
L 107.095996 53.375775 
L 106.641474 52.163469 
L 105.580427 50.69861 
L 105.739079 50.338239 
L 105.912378 49.373545 
L 105.551135 48.933697 
L 105.466992 48.789317 
L 104.847118 48.972089 
L 104.571991 48.964571 
L 104.031105 48.273848 
L 102.907937 48.391416 
L 101.867544 48.810477 
L 101.164468 48.649043 
L 100.536524 48.713057 
L 99.800602 48.932479 
L 99.133573 48.506734 
L 98.516258 48.071107 
L 98.516258 48.071107 
" style="fill:none;stroke:#ffffff;stroke-width:0.3;"/>
    <path clip-path="url(#pf7c6cb8b62)" d="M 119.875985 36.584349 
L 119.5927 36.612024 
L 119.532872 36.879143 
L 119.473702 36.999616 
L 119.347576 37.080009 
L 119.356765 37.250348 
L 119.465579 37.503968 
L 119.791699 37.575615 
L 120.030602 37.748194 
L 120.519588 37.807488 
L 121.056759 37.716476 
L 121.089712 37.63603 
L 121.025707 37.392781 
L 121.075724 37.033023 
L 120.807476 36.916602 
L 120.895796 36.681094 
L 120.667469 36.661027 
L 120.743578 36.371113 
L 121.067885 36.455549 
L 121.370118 36.345491 
L 121.119537 36.139053 
L 121.020962 35.94232 
L 120.744093 36.030053 
L 120.708989 36.282082 
L 120.601598 36.05922 
L 120.582295 35.975353 
L 120.666829 35.832013 
L 120.601242 35.712179 
L 120.202603 35.595003 
L 120.047434 35.286115 
L 119.857517 35.199101 
L 119.846 35.087035 
L 120.180616 35.119704 
L 120.193822 34.868226 
L 120.48635 34.812371 
L 120.786787 34.863738 
L 120.848694 34.528179 
L 120.787427 34.315494 
L 120.44323 34.33213 
L 120.150845 34.248183 
L 119.752596 34.399423 
L 119.431716 34.471536 
L 119.27496 34.675513 
L 118.941499 34.732196 
L 118.599646 35.087254 
L 118.912274 35.413677 
L 118.878422 35.645356 
L 119.253965 36.050427 
L 119.25396 36.050431 
L 119.434847 36.23155 
L 119.609799 36.475536 
L 119.770051 36.491622 
L 119.875985 36.584349 
" style="fill:none;stroke:#ffffff;stroke-width:0.3;"/>
    <path clip-path="url(#pf7c6cb8b62)" d="M 81.598391 46.697055 
L 81.584633 46.953299 
L 81.297434 46.991134 
L 81.235523 46.960178 
L 81.335268 46.865592 
L 81.328389 46.729731 
L 81.526161 46.685017 
L 81.598391 46.697055 
" style="fill:none;stroke:#ffffff;stroke-width:0.3;"/>
    <path clip-path="url(#pf7c6cb8b62)" d="M 75.640216 44.083186 
L 75.7848 44.059218 
L 75.86314 44.070806 
L 76.094613 44.101644 
L 76.277341 44.18425 
L 76.334334 44.278435 
L 76.092569 44.284843 
L 75.988084 44.342325 
L 75.795581 44.287127 
L 75.598945 44.161801 
L 75.640216 44.083186 
" style="fill:none;stroke:#ffffff;stroke-width:0.3;"/>
    <path clip-path="url(#pf7c6cb8b62)" d="M 79.745376 44.06247 
L 79.92118 44.092766 
L 79.983194 44.16109 
L 79.895088 44.24781 
L 79.636171 44.245775 
L 79.435225 44.257906 
L 79.415185 44.110727 
L 79.46394 44.060462 
L 79.745376 44.06247 
" style="fill:none;stroke:#ffffff;stroke-width:0.3;"/>
    <path clip-path="url(#pf7c6cb8b62)" d="M 78.723183 43.890345 
L 78.876219 43.902769 
L 79.04526 44.028957 
L 78.917526 44.168964 
L 78.753932 44.094153 
L 78.596044 44.108576 
L 78.482903 44.092206 
L 78.420889 44.15494 
L 78.288844 44.176136 
L 78.236508 44.092695 
L 78.12278 44.142072 
L 77.98511 44.377597 
L 77.896559 44.322906 
L 77.879141 44.224046 
L 77.650698 44.165587 
L 77.488375 44.18944 
L 77.278516 44.164574 
L 77.117588 44.228863 
L 76.933368 44.121703 
L 76.963673 44.010827 
L 77.28024 44.058587 
L 77.539787 44.08619 
L 77.663629 44.009619 
L 77.506523 43.860618 
L 77.509118 43.72924 
L 77.292113 43.675597 
L 77.369582 43.580621 
L 77.579433 43.595818 
L 77.877745 43.649834 
L 77.920759 43.591206 
L 78.189247 43.592796 
L 78.392983 43.68133 
L 78.483632 43.672691 
L 78.546081 43.794702 
L 78.734265 43.787841 
L 78.723183 43.890345 
" style="fill:none;stroke:#ffffff;stroke-width:0.3;"/>
    <path clip-path="url(#pf7c6cb8b62)" d="M 75.752938 41.773392 
L 75.873321 42.058872 
L 75.875158 42.25845 
L 75.790773 42.275561 
L 75.703392 42.077394 
L 75.574607 41.977823 
L 75.649454 41.759531 
L 75.752938 41.773392 
" style="fill:none;stroke:#ffffff;stroke-width:0.3;"/>
    <path clip-path="url(#pf7c6cb8b62)" d="M 75.999706 41.529469 
L 75.936467 41.485385 
L 75.942112 41.305618 
L 75.788015 41.169703 
L 75.787334 41.130203 
L 76.059055 41.284981 
L 75.999706 41.529469 
" style="fill:none;stroke:#ffffff;stroke-width:0.3;"/>
    <path clip-path="url(#pf7c6cb8b62)" d="M 80.525311 34.252549 
L 80.645818 34.419709 
L 80.895252 34.465847 
L 81.21417 34.456467 
L 81.045004 34.597402 
L 80.917598 34.619831 
L 80.481306 34.473834 
L 80.395384 34.358672 
L 80.525311 34.252549 
" style="fill:none;stroke:#ffffff;stroke-width:0.3;"/>
    <path clip-path="url(#pf7c6cb8b62)" d="M 84.043536 33.743236 
L 84.284261 33.684412 
L 84.32811 33.866927 
L 84.434924 34.080732 
L 84.2901 34.383426 
L 84.134531 34.396224 
L 83.90839 34.331295 
L 83.983051 34.049894 
L 83.887221 34.006187 
L 83.488138 34.304491 
L 83.282899 34.292547 
L 83.525819 34.130944 
L 83.19577 34.04737 
L 82.826219 34.067917 
L 82.158683 34.057412 
L 82.105893 33.955566 
L 82.320143 33.834471 
L 82.170511 33.741032 
L 82.459368 33.533839 
L 82.81471 32.986029 
L 83.027973 32.790265 
L 83.326411 32.67172 
L 83.486005 32.686792 
L 83.419538 32.780071 
L 83.235931 32.996783 
L 83.008288 33.297637 
L 83.232812 33.181448 
L 83.463814 33.255157 
L 83.343118 33.375088 
L 83.648292 33.469372 
L 83.80698 33.385557 
L 84.149977 33.49134 
L 84.043536 33.743236 
" style="fill:none;stroke:#ffffff;stroke-width:0.3;"/>
    <path clip-path="url(#pf7c6cb8b62)" d="M 80.923115 33.334061 
L 81.274876 33.477785 
L 81.284947 33.540897 
L 81.117485 33.54705 
L 80.671697 33.439214 
L 80.35187 33.276749 
L 80.470843 33.247809 
L 80.923115 33.334061 
" style="fill:none;stroke:#ffffff;stroke-width:0.3;"/>
    <path clip-path="url(#pf7c6cb8b62)" d="M 99.93885 31.468053 
L 100.227191 31.453869 
L 100.595872 31.666519 
L 100.411536 31.902827 
L 100.468254 32.148546 
L 100.208271 32.45571 
L 99.598528 32.658922 
L 99.111675 32.606933 
L 99.390552 32.247788 
L 99.210926 31.898081 
L 99.678885 31.628713 
L 99.93885 31.468053 
" style="fill:none;stroke:#ffffff;stroke-width:0.3;"/>
    <path clip-path="url(#pf7c6cb8b62)" d="M 100.807047 31.243671 
L 100.621858 31.406305 
L 100.601702 31.074781 
L 100.428013 30.899368 
L 100.552921 30.543778 
L 100.820111 30.264776 
L 101.094758 30.292006 
L 101.509732 30.263061 
L 101.142108 30.635208 
L 101.492535 30.588089 
L 101.86941 30.589884 
L 101.779739 30.870129 
L 101.470522 31.178387 
L 101.826165 31.200329 
L 101.853452 31.236477 
L 102.159804 31.642311 
L 102.395241 31.697553 
L 102.606932 32.089438 
L 102.704956 32.225304 
L 103.121672 32.290819 
L 103.079867 32.510784 
L 102.904649 32.611643 
L 103.04199 32.78958 
L 102.732595 32.969704 
L 102.272439 32.966522 
L 101.686869 33.061099 
L 101.526493 32.993388 
L 101.299081 33.154538 
L 100.980905 33.115505 
L 100.739274 33.246839 
L 100.556449 33.178159 
L 101.06088 32.816899 
L 101.368765 32.742603 
L 101.366058 32.742314 
L 100.828927 32.685006 
L 100.731614 32.548136 
L 101.091025 32.441526 
L 100.902655 32.256257 
L 100.96801 32.03097 
L 101.47918 32.062082 
L 101.479782 32.062119 
L 101.530368 31.862435 
L 101.300026 31.650582 
L 101.294762 31.645741 
L 100.877149 31.58522 
L 100.795165 31.492137 
L 100.920162 31.338434 
L 100.807047 31.243671 
" style="fill:none;stroke:#ffffff;stroke-width:0.3;"/>
    <path clip-path="url(#pf7c6cb8b62)" d="M 95.052569 28.279454 
L 94.303938 28.111257 
L 94.912952 28.044586 
L 94.898155 27.943593 
L 94.176284 27.863592 
L 94.408681 27.639566 
L 94.929971 27.588678 
L 95.466067 27.822 
L 95.988681 27.634722 
L 96.421447 27.731974 
L 96.982364 27.548669 
L 97.553022 27.573055 
L 97.473589 27.795641 
L 97.862222 28.030242 
L 97.41505 28.292536 
L 96.422887 28.528257 
L 96.126467 28.590982 
L 95.673652 28.540334 
L 94.713953 28.431459 
L 95.052569 28.279454 
" style="fill:none;stroke:#ffffff;stroke-width:0.3;"/>
    <path clip-path="url(#pf7c6cb8b62)" d="M 76.672675 27.233108 
L 76.449137 27.334708 
L 76.063571 27.35195 
L 75.977745 27.183634 
L 76.123835 26.99086 
L 76.439049 26.943171 
L 76.707575 27.038394 
L 76.711417 27.185722 
L 76.672675 27.233108 
" style="fill:none;stroke:#ffffff;stroke-width:0.3;"/>
    <path clip-path="url(#pf7c6cb8b62)" d="M 79.183863 26.31211 
L 79.509219 26.634001 
L 78.877694 26.794244 
L 79.687788 27.018856 
L 80.233828 27.094396 
L 80.728217 27.41051 
L 81.269236 27.433332 
L 81.1622 27.674741 
L 80.558473 28.074269 
L 80.13527 27.927276 
L 79.594455 27.596392 
L 79.149452 27.639495 
L 79.106021 27.836557 
L 79.467734 28.036508 
L 79.934671 28.194742 
L 80.076349 28.286119 
L 80.300179 28.626566 
L 80.181723 28.873778 
L 79.747918 28.780597 
L 78.885239 28.505239 
L 79.371416 28.801624 
L 79.729601 29.009333 
L 79.785572 29.129433 
L 78.852846 28.99211 
L 78.114702 28.792426 
L 77.697853 28.624877 
L 77.817926 28.52783 
L 77.304741 28.351048 
L 76.80391 28.184193 
L 76.809384 28.283933 
L 75.814857 28.338811 
L 75.523884 28.22071 
L 75.750434 27.967464 
L 76.396721 27.96135 
L 77.104738 27.917394 
L 76.989827 27.794601 
L 77.109857 27.623036 
L 77.554842 27.288028 
L 77.460292 27.135881 
L 77.327679 27.018074 
L 76.800852 26.851192 
L 76.104078 26.734211 
L 76.324362 26.64718 
L 75.960214 26.433321 
L 75.657102 26.413734 
L 75.385859 26.296656 
L 75.201772 26.398146 
L 74.578183 26.442386 
L 73.326463 26.365531 
L 72.598904 26.264627 
L 72.041114 26.212779 
L 71.755048 26.09195 
L 72.114717 25.935058 
L 71.626158 25.933556 
L 71.517123 25.585298 
L 71.781478 25.277671 
L 72.135175 25.137193 
L 73.023289 25.045727 
L 72.770131 25.268046 
L 73.041098 25.482438 
L 73.358999 25.205161 
L 74.230751 25.06391 
L 74.8208 25.419696 
L 74.769602 25.644859 
L 75.450042 25.545021 
L 75.775425 25.40832 
L 76.538577 25.582338 
L 77.012276 25.746243 
L 77.056809 25.89631 
L 77.695498 25.818548 
L 78.053967 26.037615 
L 78.884253 26.173472 
L 79.183863 26.31211 
" style="fill:none;stroke:#ffffff;stroke-width:0.3;"/>
    <path clip-path="url(#pf7c6cb8b62)" d="M 93.422568 22.124261 
L 91.57126 22.157848 
L 92.961972 22.181313 
L 93.998015 22.29991 
L 94.665694 22.194592 
L 94.951699 22.317961 
L 94.574089 22.518065 
L 97.119821 22.256751 
L 98.150987 22.32334 
L 98.34416 22.470314 
L 95.648376 22.853634 
L 96.44493 22.87013 
L 95.76575 23.34404 
L 95.77657 23.726751 
L 96.189546 23.951331 
L 95.086635 24.074362 
L 95.721352 24.256612 
L 95.802219 24.548867 
L 95.434459 24.580693 
L 95.880003 24.876574 
L 95.115947 24.901266 
L 95.51482 25.041147 
L 95.402073 25.162483 
L 94.437774 25.216735 
L 94.868683 25.44971 
L 94.873351 25.602834 
L 94.19274 25.46051 
L 94.015736 25.552579 
L 94.48007 25.638581 
L 94.930698 25.848797 
L 95.061141 26.125777 
L 94.448058 26.192053 
L 93.757617 25.861881 
L 93.875269 26.095313 
L 93.475801 26.276163 
L 94.856332 26.309526 
L 92.999562 26.880142 
L 91.257903 27.132942 
L 90.779498 27.496062 
L 89.80205 27.751295 
L 88.849841 27.916116 
L 88.555154 28.128853 
L 88.550401 28.369946 
L 88.376399 28.595771 
L 87.815525 28.870977 
L 87.954041 29.13974 
L 87.623249 29.759957 
L 87.138587 29.780924 
L 86.630867 29.500081 
L 85.943205 29.498309 
L 85.609524 29.309693 
L 85.380002 28.973808 
L 84.609637 28.321999 
L 84.562705 28.013035 
L 84.086308 27.695612 
L 84.210148 27.442144 
L 83.98056 27.320905 
L 84.320628 26.918963 
L 84.974132 26.647166 
L 85.046084 26.37844 
L 84.156945 26.600452 
L 83.734893 26.488185 
L 83.711969 26.254542 
L 83.846512 26.071562 
L 84.8676 26.158078 
L 83.968484 25.821896 
L 83.625984 25.870274 
L 83.338895 25.785007 
L 83.722913 25.46451 
L 83.240748 25.098711 
L 82.826769 24.733954 
L 82.388864 24.600381 
L 82.392864 24.456382 
L 81.469888 24.255133 
L 78.58199 24.159731 
L 77.984299 23.943447 
L 79.579751 23.817087 
L 77.332707 23.587244 
L 77.380041 23.453613 
L 79.942025 23.122852 
L 80.075065 22.997729 
L 79.146713 22.874227 
L 79.446532 22.737124 
L 81.137689 22.460147 
L 80.994358 22.305603 
L 82.866732 22.161033 
L 86.51523 22.231473 
L 87.229562 22.343341 
L 86.411749 22.15792 
L 86.45884 22.010651 
L 87.613605 21.805243 
L 88.820499 21.820714 
L 89.259171 21.693841 
L 90.474788 21.660794 
L 93.222068 21.703949 
L 95.373508 21.976692 
L 94.738426 22.109127 
L 93.422568 22.124261 
L 93.422568 22.124261 
" style="fill:none;stroke:#ffffff;stroke-width:0.3;"/>
    <path clip-path="url(#pf7c6cb8b62)" d="M 75.265683 21.837781 
L 76.317019 21.823507 
L 76.499732 21.86066 
L 77.492806 21.802464 
L 78.237724 21.824291 
L 78.982641 21.846118 
L 79.901903 21.873053 
L 80.640487 21.917082 
L 81.269918 22.010431 
L 81.254825 22.102248 
L 80.415543 22.251489 
L 79.58338 22.321132 
L 79.272403 22.398129 
L 80.021268 22.396354 
L 79.209649 22.604985 
L 78.649112 22.702382 
L 78.060852 22.983331 
L 77.351349 23.040376 
L 77.132183 23.110538 
L 76.090792 23.147365 
L 76.564925 23.190507 
L 76.327179 23.251933 
L 76.61163 23.421591 
L 76.284845 23.539514 
L 75.753451 23.63687 
L 75.590356 23.771465 
L 75.109918 23.874275 
L 75.158023 23.952118 
L 75.745753 23.938813 
L 75.753245 24.022768 
L 74.834158 24.229082 
L 73.935366 24.134182 
L 72.925026 24.187501 
L 72.413171 24.145887 
L 71.762869 24.127867 
L 71.719731 23.96286 
L 72.355597 23.885058 
L 72.186163 23.636839 
L 72.395974 23.612686 
L 73.315582 23.761098 
L 72.84655 23.540532 
L 72.288688 23.474559 
L 72.567268 23.341498 
L 73.177197 23.259559 
L 73.274786 23.139681 
L 72.788993 23.005262 
L 72.643003 22.828054 
L 73.583142 22.842875 
L 73.854776 22.880146 
L 74.3915 22.754803 
L 73.617001 22.715049 
L 72.413532 22.736969 
L 71.805536 22.620225 
L 71.518898 22.481162 
L 71.117211 22.38035 
L 71.04183 22.262998 
L 71.553293 22.197403 
L 71.954935 22.186221 
L 72.629778 22.130466 
L 73.135469 22.002288 
L 73.561967 22.020268 
L 73.933436 22.116574 
L 74.194839 21.93084 
L 74.648855 21.875808 
L 75.265683 21.837781 
" style="fill:none;stroke:#ffffff;stroke-width:0.3;"/>
    <path clip-path="url(#pf7c6cb8b62)" d="M 106.8671 37.317028 
L 107.269596 37.34847 
L 107.620458 37.311011 
L 107.881561 37.280991 
L 107.757693 37.551718 
L 107.809167 37.658283 
L 107.736968 37.835154 
L 107.473928 37.705607 
L 107.29903 37.668494 
L 106.818967 37.493623 
L 106.8671 37.317028 
" style="fill:none;stroke:#ffffff;stroke-width:0.3;"/>
    <path clip-path="url(#pf7c6cb8b62)" d="M 105.349949 36.345838 
L 105.53912 36.363043 
L 105.711103 36.256416 
L 105.917461 36.500615 
L 105.869151 36.955537 
L 105.712756 36.933834 
L 105.572464 37.048664 
L 105.442233 36.957438 
L 105.428458 36.542474 
L 105.349949 36.345838 
" style="fill:none;stroke:#ffffff;stroke-width:0.3;"/>
    <path clip-path="url(#pf7c6cb8b62)" d="M 105.831487 35.932242 
L 105.717893 36.197939 
L 105.561729 36.127909 
L 105.4821 35.896462 
L 105.551509 35.768648 
L 105.77301 35.637306 
L 105.831487 35.932242 
" style="fill:none;stroke:#ffffff;stroke-width:0.3;"/>
    <path clip-path="url(#pf7c6cb8b62)" d="M 106.341748 31.387829 
L 106.293723 31.245058 
L 106.798296 31.131054 
L 106.908052 31.303517 
L 106.701676 31.582109 
L 106.341748 31.387829 
" style="fill:none;stroke:#ffffff;stroke-width:0.3;"/>
    <path clip-path="url(#pf7c6cb8b62)" d="M 108.431135 24.011949 
L 108.016656 24.025349 
L 107.276968 23.815573 
L 107.588922 23.693367 
L 107.073352 23.593869 
L 106.403235 23.303447 
L 106.135717 23.034102 
L 107.073411 22.910943 
L 107.26181 23.03135 
L 107.7517 23.026563 
L 107.882309 22.90901 
L 108.387332 22.897048 
L 108.821048 23.017125 
L 109.953336 23.273588 
L 109.087796 23.408937 
L 108.89668 23.662054 
L 108.594928 23.726968 
L 108.431135 24.011949 
" style="fill:none;stroke:#ffffff;stroke-width:0.3;"/>
    <path clip-path="url(#pf7c6cb8b62)" d="M 113.825761 38.342304 
L 113.875458 38.259344 
L 114.123194 38.263983 
L 114.435931 38.161354 
L 114.203534 38.307823 
L 114.228577 38.372227 
L 114.239331 38.399884 
L 113.886762 38.539607 
L 113.718388 38.494967 
L 113.63803 38.356844 
L 113.801446 38.344189 
L 113.825761 38.342304 
" style="fill:none;stroke:#ffffff;stroke-width:0.3;"/>
    <path clip-path="url(#pf7c6cb8b62)" d="M 111.40666 38.270586 
L 111.398342 38.33044 
L 111.585788 38.289169 
L 111.542793 38.390632 
L 111.047497 38.419871 
L 111.050946 38.363118 
L 110.631315 38.296047 
L 110.694947 38.149863 
L 110.88298 38.265769 
L 111.150694 38.246173 
L 111.40666 38.270586 
" style="fill:none;stroke:#ffffff;stroke-width:0.3;"/>
    <path clip-path="url(#pf7c6cb8b62)" d="M 110.278882 23.793361 
L 109.672046 23.713526 
L 109.909406 23.624787 
L 109.701588 23.514863 
L 110.414379 23.445966 
L 110.550955 23.575086 
L 111.047201 23.652712 
L 110.278882 23.793361 
" style="fill:none;stroke:#ffffff;stroke-width:0.3;"/>
    <path clip-path="url(#pf7c6cb8b62)" d="M 110.078574 22.791517 
L 110.426414 22.688515 
L 111.296052 22.774436 
L 111.970155 22.89514 
L 111.460125 23.080383 
L 110.462603 23.120908 
L 109.448195 23.063533 
L 109.386998 22.968761 
L 108.893427 22.962735 
L 108.517059 22.804856 
L 109.579173 22.708805 
L 110.078574 22.791517 
" style="fill:none;stroke:#ffffff;stroke-width:0.3;"/>
    <path clip-path="url(#pf7c6cb8b62)" d="M 119.628266 55.834192 
L 119.69387 56.089003 
L 119.663334 56.23484 
L 119.56842 56.314291 
L 119.546754 56.605627 
L 119.411297 57.006577 
L 119.241642 57.480579 
L 119.029152 58.132233 
L 118.89741 58.610483 
L 118.741957 59.009354 
L 118.462227 59.090813 
L 118.161967 59.236294 
L 117.963874 59.148472 
L 117.690827 59.025421 
L 117.595913 58.843929 
L 117.573216 58.538996 
L 117.452102 58.264793 
L 117.420642 58.017323 
L 117.482247 57.769356 
L 117.640597 57.709795 
L 117.641522 57.595311 
L 117.805915 57.334564 
L 117.836895 57.115497 
L 117.757107 56.95265 
L 117.691947 56.735752 
L 117.664468 56.418821 
L 117.784639 56.226397 
L 117.830746 56.008237 
L 118.002178 55.995564 
L 118.194032 55.925054 
L 118.321384 55.862827 
L 118.472464 55.858205 
L 118.668496 55.662209 
L 118.95155 55.450377 
L 119.054764 55.277345 
L 119.007929 55.130353 
L 119.154033 55.171695 
L 119.34363 54.932686 
L 119.349976 54.725866 
L 119.463873 54.572012 
L 119.583866 54.719663 
L 119.675172 54.865997 
L 119.76031 55.093169 
L 119.815659 55.506952 
L 119.904779 55.667826 
L 119.870581 55.83277 
L 119.809758 55.933959 
L 119.692928 55.7324 
L 119.628266 55.834192 
" style="fill:none;stroke:#ffffff;stroke-width:0.3;"/>
    <path clip-path="url(#pf7c6cb8b62)" d="M 143.963905 53.755253 
L 144.084201 53.85973 
L 144.063601 53.952565 
L 143.918937 53.959123 
L 143.462442 53.718123 
L 143.783177 53.650492 
L 143.963905 53.755253 
" style="fill:none;stroke:#ffffff;stroke-width:0.3;"/>
    <path clip-path="url(#pf7c6cb8b62)" d="M 143.219203 53.3069 
L 143.431711 53.278799 
L 143.517027 53.425027 
L 143.119383 53.494097 
L 142.881138 53.540275 
L 142.696233 53.537538 
L 142.814414 53.339498 
L 143.002998 53.336796 
L 143.095175 53.215167 
L 143.219203 53.3069 
" style="fill:none;stroke:#ffffff;stroke-width:0.3;"/>
    <path clip-path="url(#pf7c6cb8b62)" d="M 141.947922 53.440846 
L 141.569652 53.302279 
L 141.258355 53.311646 
L 140.901468 53.286175 
L 140.57956 53.224428 
L 140.181098 53.093059 
L 139.928634 53.058986 
L 139.785587 53.101999 
L 139.158336 52.960374 
L 139.098669 52.812476 
L 138.783906 52.787201 
L 139.019911 52.458556 
L 139.437249 52.478872 
L 139.714846 52.61328 
L 139.857501 52.639497 
L 139.904496 52.761837 
L 140.563421 52.796123 
L 140.63921 52.654356 
L 141.277321 52.819745 
L 141.402504 53.042687 
L 141.918488 53.105394 
L 142.340376 53.309797 
L 141.947922 53.440846 
" style="fill:none;stroke:#ffffff;stroke-width:0.3;"/>
    <path clip-path="url(#pf7c6cb8b62)" d="M 138.268917 52.163238 
L 137.827299 51.882211 
L 137.680058 51.673737 
L 137.419666 51.393634 
L 137.248857 51.135837 
L 136.987274 50.654335 
L 136.685202 50.367655 
L 136.584173 50.071946 
L 136.457372 49.803449 
L 136.147213 49.586871 
L 135.967445 49.292584 
L 135.708475 49.099948 
L 135.349686 48.72094 
L 135.31947 48.545855 
L 135.540918 48.559719 
L 136.073361 48.626168 
L 136.377513 48.962535 
L 136.643521 49.195741 
L 136.83319 49.338833 
L 137.159061 49.708562 
L 137.508715 49.713957 
L 137.797723 49.949562 
L 137.996723 50.237566 
L 138.258661 50.39469 
L 138.120822 50.675522 
L 138.317956 50.794964 
L 138.441504 50.80378 
L 138.499803 51.043696 
L 138.619637 51.235639 
L 138.872172 51.266051 
L 139.039498 51.483749 
L 138.953116 51.911538 
L 138.93943 52.443572 
L 138.558582 52.450771 
L 138.268917 52.163238 
" style="fill:none;stroke:#ffffff;stroke-width:0.3;"/>
    <path clip-path="url(#pf7c6cb8b62)" d="M 142.63429 50.94233 
L 142.625261 51.284856 
L 142.492594 51.81083 
L 142.441956 51.68849 
L 142.051208 51.84325 
L 141.914951 51.632999 
L 141.669721 51.613554 
L 141.4982 51.503354 
L 141.089288 51.627045 
L 140.963802 51.460589 
L 140.738496 51.479501 
L 140.454945 51.439811 
L 140.402351 50.978518 
L 140.230724 50.882911 
L 140.065602 50.588695 
L 140.017718 50.287778 
L 140.057781 49.969087 
L 140.262131 49.74052 
L 140.514204 49.858389 
L 140.779981 49.794118 
L 140.849194 49.502906 
L 140.996009 49.438039 
L 141.408298 49.363574 
L 141.655022 49.091469 
L 141.82393 48.873967 
L 141.960116 48.745282 
L 142.252732 48.556893 
L 142.517585 48.317688 
L 142.691061 48.048863 
L 142.830197 48.047734 
L 143.006908 48.221734 
L 143.02262 48.371242 
L 143.249152 48.467134 
L 143.536081 48.570615 
L 143.511588 48.705343 
L 143.280808 48.722406 
L 143.342236 48.890363 
L 143.088989 49.007531 
L 142.893349 49.318161 
L 143.146186 49.643793 
L 143.086785 49.802028 
L 143.472396 50.120328 
L 143.064852 50.160906 
L 142.950137 50.395401 
L 142.965032 50.707089 
L 142.63429 50.94233 
" style="fill:none;stroke:#ffffff;stroke-width:0.3;"/>
    <path clip-path="url(#pf7c6cb8b62)" d="M 130.674384 47.843082 
L 130.622572 48.201232 
L 130.478352 48.299132 
L 130.179231 48.377818 
L 130.015548 48.104345 
L 129.954565 47.609956 
L 130.110249 47.051642 
L 130.347926 47.242759 
L 130.508035 47.484977 
L 130.674384 47.843082 
" style="fill:none;stroke:#ffffff;stroke-width:0.3;"/>
    <path clip-path="url(#pf7c6cb8b62)" d="M 143.303115 47.226265 
L 142.845554 47.552634 
L 143.01416 47.312079 
L 143.262643 47.099651 
L 143.469161 46.861708 
L 143.649444 46.520035 
L 143.71073 46.800484 
L 143.483647 46.989877 
L 143.303115 47.226265 
" style="fill:none;stroke:#ffffff;stroke-width:0.3;"/>
    <path clip-path="url(#pf7c6cb8b62)" d="M 144.342815 45.935344 
L 144.251598 46.232528 
L 144.104286 46.060919 
L 143.928712 45.798856 
L 144.223373 45.811485 
L 144.342815 45.935344 
" style="fill:none;stroke:#ffffff;stroke-width:0.3;"/>
    <path clip-path="url(#pf7c6cb8b62)" d="M 140.19745 44.171524 
L 139.91541 44.064905 
L 139.905438 43.769036 
L 140.074951 43.613175 
L 140.450732 43.516794 
L 140.648488 43.524952 
L 140.725361 43.656206 
L 140.574227 43.807562 
L 140.494617 44.006188 
L 140.19745 44.171524 
" style="fill:none;stroke:#ffffff;stroke-width:0.3;"/>
    <path clip-path="url(#pf7c6cb8b62)" d="M 126.225116 24.102958 
L 125.994105 24.209985 
L 124.775401 24.380546 
L 123.725036 24.544566 
L 122.656577 24.871949 
L 122.143987 25.20765 
L 121.604861 25.538454 
L 121.674856 25.824165 
L 122.332785 26.10625 
L 122.129608 26.136421 
L 121.005711 26.091737 
L 120.914441 25.939021 
L 120.291847 25.846809 
L 120.241582 25.661033 
L 120.593279 25.587235 
L 120.581548 25.399682 
L 121.263757 25.106355 
L 120.947554 25.064301 
L 121.771032 24.762424 
L 121.677984 24.606296 
L 122.447304 24.424697 
L 123.582825 24.203711 
L 124.727606 24.139333 
L 125.31666 24.011821 
L 125.986018 23.967136 
L 126.225116 24.102958 
" style="fill:none;stroke:#ffffff;stroke-width:0.3;"/>
    <path clip-path="url(#pf7c6cb8b62)" d="M 138.684154 23.496888 
L 136.745187 23.629616 
L 137.373504 23.178011 
L 137.656042 23.139344 
L 137.91451 23.161742 
L 138.786294 23.357089 
L 138.684154 23.496888 
" style="fill:none;stroke:#ffffff;stroke-width:0.3;"/>
    <path clip-path="url(#pf7c6cb8b62)" d="M 133.905157 22.797095 
L 134.798257 22.562129 
L 135.542305 22.484464 
L 136.210587 22.657618 
L 137.00264 22.990164 
L 136.91772 23.299443 
L 136.16728 23.342348 
L 135.209255 23.243102 
L 134.638396 23.111797 
L 134.37442 22.865084 
L 133.905157 22.797095 
" style="fill:none;stroke:#ffffff;stroke-width:0.3;"/>
    <path clip-path="url(#pf7c6cb8b62)" d="M 119.360605 22.797747 
L 119.312632 22.854189 
L 118.910616 22.911039 
L 118.538016 22.8295 
L 118.73394 22.722126 
L 117.968478 22.711675 
L 118.639933 22.649039 
L 119.162511 22.64488 
L 119.23279 22.737554 
L 119.43035 22.655207 
L 119.754551 22.598489 
L 120.264688 22.673869 
L 120.131666 22.726303 
L 119.669911 22.771654 
L 119.360605 22.797747 
" style="fill:none;stroke:#ffffff;stroke-width:0.3;"/>
    <path clip-path="url(#pf7c6cb8b62)" d="M 162.131923 64.646843 
L 162.376531 64.50744 
L 162.475995 64.652744 
L 162.476315 64.797497 
L 162.348341 64.956807 
L 162.123498 65.210249 
L 161.947569 65.348603 
L 162.074441 65.514063 
L 161.809073 65.518311 
L 161.514768 65.64792 
L 161.422662 65.873065 
L 161.227146 66.221084 
L 160.95705 66.374777 
L 160.785387 66.472962 
L 160.468615 66.465639 
L 160.245869 66.352222 
L 159.872043 66.328049 
L 159.814348 66.201746 
L 159.999146 65.946615 
L 160.431609 65.607146 
L 160.65368 65.54243 
L 160.900777 65.411559 
L 161.195579 65.231453 
L 161.402008 65.052965 
L 161.554937 64.796608 
L 161.685293 64.709586 
L 161.736376 64.517553 
L 161.977607 64.358599 
L 162.053894 64.504809 
L 162.131923 64.646843 
" style="fill:none;stroke:#ffffff;stroke-width:0.3;"/>
    <path clip-path="url(#pf7c6cb8b62)" d="M 152.77684 65.409639 
L 152.564812 65.115228 
L 152.517746 64.888163 
L 152.319279 64.588561 
L 152.328113 64.430833 
L 152.553134 64.461298 
L 152.88544 64.580012 
L 153.072709 64.532839 
L 153.341223 64.466701 
L 153.547528 64.489808 
L 153.571879 64.898081 
L 153.454054 65.016599 
L 153.418541 65.293307 
L 153.298334 65.199122 
L 153.059556 65.438825 
L 152.988353 65.420339 
L 152.77684 65.409639 
" style="fill:none;stroke:#ffffff;stroke-width:0.3;"/>
    <path clip-path="url(#pf7c6cb8b62)" d="M 162.330318 64.01977 
L 162.340023 63.895173 
L 162.588541 63.775162 
L 162.646556 63.510362 
L 162.630577 63.287936 
L 162.491281 63.057476 
L 162.500559 62.996848 
L 162.336148 62.85485 
L 162.065518 62.550503 
L 161.92169 62.306979 
L 162.049308 62.279998 
L 162.236506 62.47107 
L 162.504132 62.560261 
L 162.601339 62.866688 
L 162.850568 63.228766 
L 162.857785 62.99388 
L 163.013007 63.087692 
L 163.064463 63.34787 
L 163.341242 63.459954 
L 163.573622 63.487469 
L 163.770204 63.356277 
L 163.944498 63.396021 
L 163.861137 63.701256 
L 163.756483 63.901962 
L 163.493887 63.894888 
L 163.402048 63.999436 
L 163.434023 64.147406 
L 163.38342 64.211393 
L 163.253473 64.396724 
L 163.083019 64.632268 
L 162.817188 64.769396 
L 162.758143 64.679138 
L 162.614741 64.629584 
L 162.813083 64.346655 
L 162.700448 64.157377 
L 162.330318 64.01977 
" style="fill:none;stroke:#ffffff;stroke-width:0.3;"/>
    <path clip-path="url(#pf7c6cb8b62)" d="M 144.01705 62.100976 
L 143.780902 62.11676 
L 143.47604 62.284637 
L 143.138152 62.491208 
L 142.656668 62.477575 
L 142.10693 62.192584 
L 142.114431 61.995469 
L 142.343522 61.870321 
L 142.153054 60.956106 
L 141.770572 59.832476 
L 141.52639 59.413467 
L 141.677524 59.562219 
L 141.561476 59.24312 
L 141.833848 59.476032 
L 141.828107 59.299873 
L 141.54516 58.817819 
L 141.805267 57.913611 
L 141.831253 58.175567 
L 141.976557 57.938939 
L 143.750473 57.301593 
L 144.298948 57.048186 
L 144.853645 56.073237 
L 144.998522 56.37019 
L 145.144893 56.301564 
L 145.022411 56.139037 
L 145.130353 55.972155 
L 145.282109 56.046665 
L 145.323879 55.784958 
L 146.081556 55.229728 
L 146.24778 55.183355 
L 146.908055 55.547264 
L 147.126785 55.579524 
L 147.05391 55.390655 
L 147.469471 54.742556 
L 147.677802 54.621229 
L 147.853766 54.662092 
L 148.142756 54.597287 
L 148.136536 54.421518 
L 147.884587 54.308279 
L 148.067749 54.258316 
L 149.079402 54.643571 
L 149.490075 54.50895 
L 149.647998 54.67912 
L 149.425732 55.002183 
L 149.307534 55.01363 
L 149.347384 55.151131 
L 149.148775 55.58914 
L 150.209858 56.211307 
L 150.770526 56.522302 
L 150.997609 56.404761 
L 151.234219 55.439037 
L 151.330289 54.813119 
L 151.276735 54.698262 
L 151.56162 54.099984 
L 151.907932 54.845042 
L 152.045504 55.434558 
L 152.266188 55.304842 
L 152.509801 55.737199 
L 152.893474 56.95137 
L 153.739916 57.444231 
L 153.694876 57.527556 
L 153.891601 57.743228 
L 154.025369 58.115384 
L 154.162622 58.039808 
L 155.118055 59.121438 
L 155.223562 59.593964 
L 155.199816 59.806863 
L 155.363729 60.099142 
L 155.284492 60.562834 
L 154.978687 61.626263 
L 154.723859 61.79526 
L 153.937849 63.422611 
L 153.552878 63.435124 
L 152.86955 63.857047 
L 152.373935 63.644379 
L 152.427329 63.465091 
L 152.239349 63.530144 
L 151.938148 63.779214 
L 150.693795 63.295436 
L 150.55002 62.860485 
L 150.381023 62.720975 
L 150.050121 62.679543 
L 150.163183 62.512715 
L 150.079982 62.257318 
L 149.911998 62.495367 
L 149.605962 62.558555 
L 149.837951 62.169798 
L 149.970795 62.001334 
L 149.943352 61.746648 
L 149.316919 62.431149 
L 149.048351 62.289631 
L 149.059015 62.107091 
L 148.726994 61.649388 
L 147.713172 61.26367 
L 146.651947 61.419372 
L 146.260507 61.534175 
L 145.932324 61.511371 
L 145.203228 61.947461 
L 145.076213 62.087219 
L 144.01705 62.100976 
L 144.01705 62.100976 
" style="fill:none;stroke:#ffffff;stroke-width:0.3;"/>
    <path clip-path="url(#pf7c6cb8b62)" d="M 158.961507 57.346011 
L 159.109531 57.350952 
L 159.302167 57.467888 
L 159.453496 57.584842 
L 159.563554 57.681143 
L 159.845595 57.894397 
L 160.024456 58.052605 
L 159.893763 58.135148 
L 159.704486 58.042189 
L 159.458438 57.887376 
L 159.23674 57.705156 
L 159.009106 57.462645 
L 158.961507 57.346011 
" style="fill:none;stroke:#ffffff;stroke-width:0.3;"/>
    <path clip-path="url(#pf7c6cb8b62)" d="M 163.809833 56.45145 
L 163.895143 56.394735 
L 164.01362 56.493979 
L 163.956748 56.673566 
L 163.743481 56.720825 
L 163.553895 56.678289 
L 163.520731 56.527064 
L 163.653438 56.408913 
L 163.809833 56.45145 
" style="fill:none;stroke:#ffffff;stroke-width:0.3;"/>
    <path clip-path="url(#pf7c6cb8b62)" d="M 164.454545 56.124836 
L 164.235841 56.209495 
L 164.016028 56.281961 
L 163.971926 56.153705 
L 164.143823 56.083138 
L 164.252821 56.064244 
L 164.454545 55.956959 
L 164.454545 56.124836 
" style="fill:none;stroke:#ffffff;stroke-width:0.3;"/>
    <path clip-path="url(#pf7c6cb8b62)" d="M 160.273775 56.094264 
L 160.160375 56.139499 
L 160.045092 55.988899 
L 160.057747 55.896669 
L 160.273775 56.094264 
" style="fill:none;stroke:#ffffff;stroke-width:0.3;"/>
    <path clip-path="url(#pf7c6cb8b62)" d="M 160.020226 55.567189 
L 160.076055 55.844448 
L 159.983593 55.80131 
L 159.912035 55.819955 
L 159.862747 55.724988 
L 159.855619 55.46145 
L 160.020226 55.567189 
" style="fill:none;stroke:#ffffff;stroke-width:0.3;"/>
    <path clip-path="url(#pf7c6cb8b62)" d="M 158.029465 53.940585 
L 158.235005 54.023803 
L 158.30436 54.036192 
L 158.400536 54.15439 
L 158.160247 54.152204 
L 158.029465 53.940585 
" style="fill:none;stroke:#ffffff;stroke-width:0.3;"/>
    <path clip-path="url(#pf7c6cb8b62)" d="M 145.526451 53.489334 
L 145.566887 53.408195 
L 145.862969 53.330877 
L 146.102921 53.319235 
L 146.210419 53.276275 
L 146.340668 53.318915 
L 146.214116 53.412105 
L 145.855682 53.56267 
L 145.567669 53.661441 
L 145.343217 53.918314 
L 145.048805 53.993978 
L 145.007534 53.952707 
L 145.038496 53.83577 
L 145.186395 53.625964 
L 145.526451 53.489334 
" style="fill:none;stroke:#ffffff;stroke-width:0.3;"/>
    <path clip-path="url(#pf7c6cb8b62)" d="M 157.734627 53.834117 
L 157.523736 53.799316 
L 157.451697 53.746331 
L 157.473346 53.609772 
L 157.700358 53.663894 
L 157.812336 53.736075 
L 157.868644 53.826457 
L 157.734627 53.834117 
" style="fill:none;stroke:#ffffff;stroke-width:0.3;"/>
    <path clip-path="url(#pf7c6cb8b62)" d="M 157.84664 53.497848 
L 157.77501 53.292325 
L 157.891964 53.292325 
L 158.015779 53.567487 
L 158.153351 53.732574 
L 158.101557 53.795974 
L 157.84664 53.497848 
" style="fill:none;stroke:#ffffff;stroke-width:0.3;"/>
    <path clip-path="url(#pf7c6cb8b62)" d="M 144.278935 53.36687 
L 144.507902 53.340689 
L 144.816141 53.21467 
L 144.765734 53.40576 
L 144.24895 53.503393 
L 143.79146 53.461002 
L 143.790269 53.335267 
L 144.063423 53.263762 
L 144.278935 53.36687 
" style="fill:none;stroke:#ffffff;stroke-width:0.3;"/>
    <path clip-path="url(#pf7c6cb8b62)" d="M 157.451697 53.189146 
L 157.532534 53.298279 
L 157.547109 53.367403 
L 157.277546 53.22153 
L 157.089211 53.097929 
L 156.960241 52.98341 
L 157.011431 52.948377 
L 157.169657 53.03092 
L 157.451697 53.189146 
" style="fill:none;stroke:#ffffff;stroke-width:0.3;"/>
    <path clip-path="url(#pf7c6cb8b62)" d="M 156.660409 52.977527 
L 156.509968 52.899142 
L 156.368717 52.757802 
L 156.38642 52.700498 
L 156.591818 52.845749 
L 156.728857 52.957939 
L 156.660409 52.977527 
" style="fill:none;stroke:#ffffff;stroke-width:0.3;"/>
    <path clip-path="url(#pf7c6cb8b62)" d="M 153.094145 52.74257 
L 153.170147 52.971768 
L 153.477214 53.197429 
L 153.7006 53.562208 
L 153.897591 53.550779 
L 153.883762 53.70314 
L 154.149326 53.761581 
L 154.046165 53.826457 
L 154.411727 53.971174 
L 154.37353 54.070585 
L 154.145772 54.09458 
L 154.061131 54.005425 
L 153.765617 53.966784 
L 153.418186 53.915026 
L 153.150738 53.695586 
L 152.955524 53.506451 
L 152.776876 53.205445 
L 152.328255 53.05504 
L 152.036901 53.153135 
L 151.826846 53.266695 
L 151.870712 53.520385 
L 151.600545 53.638619 
L 151.407873 53.581102 
L 151.052087 53.566758 
L 150.74582 53.284469 
L 150.396487 53.215292 
L 150.311775 53.313281 
L 149.875988 53.323856 
L 150.022038 53.043949 
L 150.238563 52.948448 
L 150.148892 52.574444 
L 149.98377 52.285702 
L 149.31699 51.994437 
L 149.033349 51.965678 
L 148.516832 51.64784 
L 148.415306 51.814989 
L 148.283315 51.845311 
L 148.205233 51.719186 
L 148.204149 51.569741 
L 147.941375 51.400779 
L 148.311824 51.276911 
L 148.557126 51.283594 
L 148.528296 51.192341 
L 148.024807 51.191648 
L 147.88855 50.986872 
L 147.58127 50.923365 
L 147.435682 50.753177 
L 147.899321 50.669852 
L 148.075623 50.55775 
L 148.627814 50.699001 
L 148.682096 50.826833 
L 148.778148 51.383112 
L 149.134129 51.58899 
L 149.421573 51.224157 
L 149.816231 51.016573 
L 150.122 51.016288 
L 150.416145 51.136193 
L 150.671275 51.259243 
L 151.040516 51.324972 
L 151.637284 51.561956 
L 152.273155 51.758787 
L 152.51021 51.935 
L 152.701655 52.107925 
L 152.753982 52.310551 
L 153.327057 52.52313 
L 153.410649 52.705546 
L 153.094145 52.74257 
" style="fill:none;stroke:#ffffff;stroke-width:0.3;"/>
    <path clip-path="url(#pf7c6cb8b62)" d="M 148.732646 52.419737 
L 148.804631 52.303476 
L 148.882838 52.404096 
L 148.88202 52.568098 
L 148.70506 52.802273 
L 148.671574 52.543357 
L 148.732646 52.419737 
" style="fill:none;stroke:#ffffff;stroke-width:0.3;"/>
    <path clip-path="url(#pf7c6cb8b62)" d="M 155.688641 52.198253 
L 155.736241 52.164998 
L 155.773211 52.267342 
L 155.877403 52.345352 
L 156.04416 52.56337 
L 156.206581 52.680093 
L 156.158448 52.776394 
L 156.06213 52.810787 
L 155.9132 52.678689 
L 155.762617 52.460245 
L 155.688641 52.198253 
" style="fill:none;stroke:#ffffff;stroke-width:0.3;"/>
    <path clip-path="url(#pf7c6cb8b62)" d="M 154.082887 52.324272 
L 154.134716 52.159381 
L 154.184075 52.150867 
L 154.21749 52.333461 
L 154.413735 52.307191 
L 154.5108 52.189508 
L 154.702797 52.066849 
L 154.664955 51.86417 
L 154.870958 51.857629 
L 154.94042 51.914098 
L 154.933523 52.104886 
L 154.817991 52.314834 
L 154.637867 52.343113 
L 154.583621 52.439573 
L 154.395499 52.523165 
L 154.218966 52.603647 
L 154.036247 52.60322 
L 153.754242 52.503311 
L 153.557802 52.407384 
L 153.586312 52.30097 
L 153.894694 52.351182 
L 154.082887 52.324272 
" style="fill:none;stroke:#ffffff;stroke-width:0.3;"/>
    <path clip-path="url(#pf7c6cb8b62)" d="M 154.363719 51.373585 
L 154.459308 51.290526 
L 154.645048 51.386827 
L 154.762002 51.462491 
L 154.906453 51.545052 
L 155.044043 51.689503 
L 155.174736 51.799578 
L 155.216026 51.978422 
L 155.108457 52.070066 
L 155.043581 51.867031 
L 154.963561 51.734134 
L 154.807824 51.621428 
L 154.61213 51.474684 
L 154.363719 51.373585 
" style="fill:none;stroke:#ffffff;stroke-width:0.3;"/>
    <path clip-path="url(#pf7c6cb8b62)" d="M 146.225349 51.50698 
L 146.310843 51.620397 
L 146.182105 51.734561 
L 145.944393 51.671409 
L 145.877402 51.523474 
L 146.225349 51.50698 
" style="fill:none;stroke:#ffffff;stroke-width:0.3;"/>
    <path clip-path="url(#pf7c6cb8b62)" d="M 147.419099 51.494751 
L 147.544122 51.757774 
L 147.253728 51.616007 
L 146.966426 51.58723 
L 146.772243 51.609946 
L 146.5343 51.597824 
L 146.615812 51.408724 
L 147.040633 51.394452 
L 147.419099 51.494751 
" style="fill:none;stroke:#ffffff;stroke-width:0.3;"/>
    <path clip-path="url(#pf7c6cb8b62)" d="M 143.831523 50.609384 
L 144.139372 50.915242 
L 144.325077 50.759451 
L 144.966458 50.642408 
L 144.938197 50.800812 
L 144.788343 50.750849 
L 144.639004 50.952372 
L 144.336239 51.085696 
L 144.661719 51.526496 
L 144.598888 51.644623 
L 144.908123 52.041609 
L 144.905155 52.267555 
L 144.721547 52.368672 
L 144.586677 52.247719 
L 144.752865 51.966105 
L 144.415334 52.099269 
L 144.329769 52.00407 
L 144.374382 51.87128 
L 144.126397 51.669596 
L 144.15192 51.334428 
L 143.922527 51.438976 
L 143.951623 51.840015 
L 143.965612 52.332093 
L 143.747487 52.38202 
L 143.599712 52.281063 
L 143.698323 51.96447 
L 143.64509 51.632555 
L 143.500461 51.630013 
L 143.393639 51.394398 
L 143.535761 51.169146 
L 143.584746 50.896064 
L 143.757618 50.377591 
L 143.829746 50.235806 
L 144.122131 49.980338 
L 144.39077 50.0819 
L 144.824406 50.129623 
L 145.219935 50.115209 
L 145.55992 49.865446 
L 145.619943 49.942292 
L 145.34359 50.283477 
L 145.0851 50.349614 
L 144.754074 50.282357 
L 144.180928 50.299527 
L 143.880438 50.349046 
L 143.831523 50.609384 
" style="fill:none;stroke:#ffffff;stroke-width:0.3;"/>
    <path clip-path="url(#pf7c6cb8b62)" d="M 146.603477 50.740202 
L 146.464679 50.522344 
L 146.36253 50.082664 
L 146.431672 49.807857 
L 146.545818 49.682692 
L 146.570506 49.870511 
L 146.773576 49.900683 
L 146.805801 50.041161 
L 146.787813 50.34174 
L 146.610409 50.308058 
L 146.558082 50.517349 
L 146.699778 50.69893 
L 146.603477 50.740202 
" style="fill:none;stroke:#ffffff;stroke-width:0.3;"/>
    <path clip-path="url(#pf7c6cb8b62)" d="M 145.268868 48.311441 
L 145.172194 48.062495 
L 145.277079 47.898955 
L 145.059203 47.736295 
L 144.951154 47.878915 
L 144.789302 47.865673 
L 144.534776 48.057581 
L 144.477828 47.956908 
L 144.612805 47.667011 
L 144.829508 47.570266 
L 145.017061 47.440675 
L 145.138636 47.596377 
L 145.400148 47.502191 
L 145.456261 47.348702 
L 145.699358 47.339557 
L 145.678971 47.073567 
L 145.957777 47.236689 
L 145.986642 47.409899 
L 146.010779 47.536398 
L 146.045759 47.764902 
L 146.066022 47.95785 
L 145.948854 48.272595 
L 145.823191 47.921964 
L 145.66237 48.096426 
L 145.772197 48.34986 
L 145.673603 48.511054 
L 145.268868 48.311441 
" style="fill:none;stroke:#ffffff;stroke-width:0.3;"/>
    <path clip-path="url(#pf7c6cb8b62)" d="M 144.955918 47.225616 
L 144.847904 47.327453 
L 144.636089 47.089724 
L 144.706955 46.997653 
L 144.793284 46.901308 
L 144.831232 46.687814 
L 145.0209 46.667605 
L 144.965498 46.899167 
L 145.220077 46.567136 
L 145.187231 46.895247 
L 145.063665 47.0083 
L 144.955918 47.225616 
" style="fill:none;stroke:#ffffff;stroke-width:0.3;"/>
    <path clip-path="url(#pf7c6cb8b62)" d="M 144.518566 46.504153 
L 144.465315 46.340462 
L 144.67178 46.446938 
L 144.890669 46.446432 
L 144.884003 46.590109 
L 144.724711 46.73616 
L 144.506266 46.839445 
L 144.494144 46.67962 
L 144.518566 46.504153 
" style="fill:none;stroke:#ffffff;stroke-width:0.3;"/>
    <path clip-path="url(#pf7c6cb8b62)" d="M 145.297324 46.476799 
L 145.499736 46.504242 
L 145.495257 46.37402 
L 145.285024 46.111388 
L 145.61534 46.118969 
L 145.710076 46.247272 
L 145.806696 46.631319 
L 145.54131 46.540057 
L 145.548491 46.655501 
L 145.632652 46.867751 
L 145.469058 46.944811 
L 145.454732 46.702904 
L 145.35118 46.685041 
L 145.297324 46.476799 
" style="fill:none;stroke:#ffffff;stroke-width:0.3;"/>
    <path clip-path="url(#pf7c6cb8b62)" d="M 144.746573 45.499575 
L 145.176175 45.690265 
L 145.143435 45.877498 
L 145.255626 45.96013 
L 145.2199 46.11864 
L 144.95183 45.949812 
L 144.82478 45.769102 
L 144.736282 45.895361 
L 144.517286 45.689456 
L 144.204888 45.74029 
L 144.033687 45.664288 
L 144.051141 45.522112 
L 144.158604 45.434619 
L 144.05594 45.355071 
L 144.011504 45.479028 
L 143.84169 45.281397 
L 143.790269 45.131614 
L 143.77749 44.802329 
L 143.916004 44.915515 
L 143.951623 44.37742 
L 144.063689 44.06575 
L 144.271932 44.066149 
L 144.483907 44.164352 
L 144.589983 44.074788 
L 144.621265 44.162174 
L 144.565312 44.304777 
L 144.682728 44.551313 
L 144.592151 44.837158 
L 144.389383 44.951152 
L 144.335137 45.228447 
L 144.412099 45.502383 
L 144.594426 45.540278 
L 144.746573 45.499575 
" style="fill:none;stroke:#ffffff;stroke-width:0.3;"/>
    <path clip-path="url(#pf7c6cb8b62)" d="M 144.428949 42.040204 
L 144.221826 42.591701 
L 144.074425 42.87384 
L 143.893164 42.583445 
L 143.85399 42.328439 
L 144.056402 41.990614 
L 144.331688 41.73024 
L 144.488599 41.832691 
L 144.428949 42.040204 
" style="fill:none;stroke:#ffffff;stroke-width:0.3;"/>
    <path clip-path="url(#pf7c6cb8b62)" d="M 148.293944 39.181868 
L 148.069776 39.083905 
L 148.072548 38.920783 
L 148.262821 38.715562 
L 148.45839 38.75535 
L 148.599802 38.610783 
L 148.852373 38.684973 
L 148.896382 38.802913 
L 148.70275 39.011058 
L 148.561569 38.900716 
L 148.385232 38.980655 
L 148.293944 39.181868 
" style="fill:none;stroke:#ffffff;stroke-width:0.3;"/>
    <path clip-path="url(#pf7c6cb8b62)" d="M 149.018348 38.788214 
L 149.004058 38.53112 
L 148.405885 38.606998 
L 147.998803 38.769 
L 147.596165 38.775594 
L 147.944894 39.028663 
L 147.715394 39.613256 
L 147.493039 39.757982 
L 147.326602 39.624303 
L 147.410958 39.314321 
L 147.193242 39.214288 
L 147.053519 38.978425 
L 147.378716 38.872455 
L 147.559124 38.65625 
L 147.905062 38.478437 
L 148.157331 38.243285 
L 148.84201 38.14071 
L 149.209776 38.211042 
L 149.56965 37.599548 
L 149.79899 37.763817 
L 150.303563 37.419834 
L 150.499204 37.286216 
L 150.715338 36.865617 
L 150.656381 36.478842 
L 150.801667 36.26157 
L 151.167353 36.198437 
L 151.354906 36.675478 
L 151.344703 36.954337 
L 151.02651 37.300649 
L 151.032322 37.655581 
L 150.902784 37.930086 
L 150.962736 38.102442 
L 150.783608 38.344846 
L 150.344124 38.50668 
L 149.739482 38.527769 
L 149.249483 38.920383 
L 149.018348 38.788214 
" style="fill:none;stroke:#ffffff;stroke-width:0.3;"/>
    <path clip-path="url(#pf7c6cb8b62)" d="M 150.633736 35.790786 
L 150.803835 35.526111 
L 151.171334 35.507003 
L 151.271563 35.031215 
L 151.373267 34.763154 
L 151.777487 35.12125 
L 152.041398 35.236907 
L 152.283287 35.310243 
L 152.526597 35.164459 
L 152.603062 35.550594 
L 152.092819 35.644744 
L 151.791582 35.986337 
L 151.250767 35.75122 
L 151.063587 36.127571 
L 150.681051 36.132743 
L 150.633736 35.790786 
" style="fill:none;stroke:#ffffff;stroke-width:0.3;"/>
    <path clip-path="url(#pf7c6cb8b62)" d="M 151.902137 34.561453 
L 151.641568 34.354099 
L 151.416049 34.620321 
L 151.352382 34.331686 
L 151.390739 33.996607 
L 151.351529 33.625464 
L 151.431104 33.365446 
L 151.446301 32.905521 
L 151.244777 32.567385 
L 151.275206 32.097365 
L 151.593151 31.939086 
L 151.456539 31.779723 
L 151.60961 31.73143 
L 151.698978 31.958886 
L 151.818065 32.290393 
L 151.809267 32.628875 
L 151.951229 32.975943 
L 152.297293 33.585153 
L 151.788169 33.471593 
L 151.57655 33.968595 
L 151.911842 34.321092 
L 151.902137 34.561453 
" style="fill:none;stroke:#ffffff;stroke-width:0.3;"/>
    <path clip-path="url(#pf7c6cb8b62)" d="M 164.016111 25.976121 
L 164.454545 25.832722 
L 164.454545 26.067818 
L 164.077377 26.08538 
L 164.016111 25.976121 
" style="fill:none;stroke:#ffffff;stroke-width:0.3;"/>
    <path clip-path="url(#pf7c6cb8b62)" d="M 150.975681 25.059057 
L 151.405744 25.027235 
L 151.894416 25.158737 
L 151.936041 25.249131 
L 151.414536 25.251539 
L 150.709616 25.213195 
L 150.649412 25.194997 
L 150.975681 25.059057 
" style="fill:none;stroke:#ffffff;stroke-width:0.3;"/>
    <path clip-path="url(#pf7c6cb8b62)" d="M 153.440352 24.710533 
L 152.801196 24.574801 
L 152.883502 24.463416 
L 153.524539 24.515344 
L 154.387665 24.605385 
L 153.990145 24.741294 
L 153.440352 24.710533 
" style="fill:none;stroke:#ffffff;stroke-width:0.3;"/>
    <path clip-path="url(#pf7c6cb8b62)" d="M 151.202656 24.258397 
L 152.445927 24.440782 
L 152.175483 24.696209 
L 150.907613 24.686688 
L 150.337215 24.76793 
L 149.65583 24.544296 
L 149.840659 24.307829 
L 150.294439 24.243308 
L 151.202656 24.258397 
" style="fill:none;stroke:#ffffff;stroke-width:0.3;"/>
   </g>
   <g id="PathCollection_1">
    <defs>
     <path d="M -2.236068 2.236068 
L 2.236068 -2.236068 
M -2.236068 -2.236068 
L 2.236068 2.236068 
" id="m1484264eb3" style="stroke:#e0f532;"/>
    </defs>
    <g clip-path="url(#pf7c6cb8b62)">
     <use style="fill:#e0f532;stroke:#e0f532;" x="133.372799" xlink:href="#m1484264eb3" y="40.97773"/>
    </g>
   </g>
   <g id="text_1">
    <!-- | -->
    <g transform="translate(7.2 87.759504)scale(0.02 -0.02)">
     <defs>
      <path d="M 1344 4891 
L 1344 -1509 
L 813 -1509 
L 813 4891 
L 1344 4891 
z
" id="DejaVuSans-7c" transform="scale(0.015625)"/>
     </defs>
     <use xlink:href="#DejaVuSans-7c"/>
    </g>
   </g>
   <g id="text_2">
    <!-- | -->
    <g transform="translate(7.2 8.728438)scale(0.02 -0.02)">
     <use xlink:href="#DejaVuSans-7c"/>
    </g>
   </g>
   <g id="text_3">
    <!-- | -->
    <g transform="translate(197.886614 8.728438)scale(0.02 -0.02)">
     <use xlink:href="#DejaVuSans-7c"/>
    </g>
   </g>
   <g id="text_4">
    <!-- | -->
    <g transform="translate(197.886614 87.759504)scale(0.02 -0.02)">
     <use xlink:href="#DejaVuSans-7c"/>
    </g>
   </g>
   <g id="text_5">
    <!-- Thimphu -->
    <g style="fill:#ffffff;opacity:0;" transform="translate(37.165039 69.845795)scale(0.1 -0.1)">
     <defs>
      <path d="M -19 4666 
L 3928 4666 
L 3928 4134 
L 2272 4134 
L 2272 0 
L 1638 0 
L 1638 4134 
L -19 4134 
L -19 4666 
z
" id="DejaVuSans-54" transform="scale(0.015625)"/>
      <path d="M 3513 2113 
L 3513 0 
L 2938 0 
L 2938 2094 
Q 2938 2591 2744 2837 
Q 2550 3084 2163 3084 
Q 1697 3084 1428 2787 
Q 1159 2491 1159 1978 
L 1159 0 
L 581 0 
L 581 4863 
L 1159 4863 
L 1159 2956 
Q 1366 3272 1645 3428 
Q 1925 3584 2291 3584 
Q 2894 3584 3203 3211 
Q 3513 2838 3513 2113 
z
" id="DejaVuSans-68" transform="scale(0.015625)"/>
      <path d="M 603 3500 
L 1178 3500 
L 1178 0 
L 603 0 
L 603 3500 
z
M 603 4863 
L 1178 4863 
L 1178 4134 
L 603 4134 
L 603 4863 
z
" id="DejaVuSans-69" transform="scale(0.015625)"/>
      <path d="M 3328 2828 
Q 3544 3216 3844 3400 
Q 4144 3584 4550 3584 
Q 5097 3584 5394 3201 
Q 5691 2819 5691 2113 
L 5691 0 
L 5113 0 
L 5113 2094 
Q 5113 2597 4934 2840 
Q 4756 3084 4391 3084 
Q 3944 3084 3684 2787 
Q 3425 2491 3425 1978 
L 3425 0 
L 2847 0 
L 2847 2094 
Q 2847 2600 2669 2842 
Q 2491 3084 2119 3084 
Q 1678 3084 1418 2786 
Q 1159 2488 1159 1978 
L 1159 0 
L 581 0 
L 581 3500 
L 1159 3500 
L 1159 2956 
Q 1356 3278 1631 3431 
Q 1906 3584 2284 3584 
Q 2666 3584 2933 3390 
Q 3200 3197 3328 2828 
z
" id="DejaVuSans-6d" transform="scale(0.015625)"/>
      <path d="M 1159 525 
L 1159 -1331 
L 581 -1331 
L 581 3500 
L 1159 3500 
L 1159 2969 
Q 1341 3281 1617 3432 
Q 1894 3584 2278 3584 
Q 2916 3584 3314 3078 
Q 3713 2572 3713 1747 
Q 3713 922 3314 415 
Q 2916 -91 2278 -91 
Q 1894 -91 1617 61 
Q 1341 213 1159 525 
z
M 3116 1747 
Q 3116 2381 2855 2742 
Q 2594 3103 2138 3103 
Q 1681 3103 1420 2742 
Q 1159 2381 1159 1747 
Q 1159 1113 1420 752 
Q 1681 391 2138 391 
Q 2594 391 2855 752 
Q 3116 1113 3116 1747 
z
" id="DejaVuSans-70" transform="scale(0.015625)"/>
      <path d="M 544 1381 
L 544 3500 
L 1119 3500 
L 1119 1403 
Q 1119 906 1312 657 
Q 1506 409 1894 409 
Q 2359 409 2629 706 
Q 2900 1003 2900 1516 
L 2900 3500 
L 3475 3500 
L 3475 0 
L 2900 0 
L 2900 538 
Q 2691 219 2414 64 
Q 2138 -91 1772 -91 
Q 1169 -91 856 284 
Q 544 659 544 1381 
z
M 1991 3584 
L 1991 3584 
z
" id="DejaVuSans-75" transform="scale(0.015625)"/>
     </defs>
     <use xlink:href="#DejaVuSans-54"/>
     <use x="61.083984" xlink:href="#DejaVuSans-68"/>
     <use x="124.462891" xlink:href="#DejaVuSans-69"/>
     <use x="152.246094" xlink:href="#DejaVuSans-6d"/>
     <use x="249.658203" xlink:href="#DejaVuSans-70"/>
     <use x="313.134766" xlink:href="#DejaVuSans-68"/>
     <use x="376.513672" xlink:href="#DejaVuSans-75"/>
    </g>
   </g>
   <g id="text_6">
    <!-- Bhutan -->
    <g style="fill:#ffffff;opacity:0;" transform="translate(37.165039 77.748902)scale(0.07 -0.07)">
     <defs>
      <path d="M 1259 2228 
L 1259 519 
L 2272 519 
Q 2781 519 3026 730 
Q 3272 941 3272 1375 
Q 3272 1813 3026 2020 
Q 2781 2228 2272 2228 
L 1259 2228 
z
M 1259 4147 
L 1259 2741 
L 2194 2741 
Q 2656 2741 2882 2914 
Q 3109 3088 3109 3444 
Q 3109 3797 2882 3972 
Q 2656 4147 2194 4147 
L 1259 4147 
z
M 628 4666 
L 2241 4666 
Q 2963 4666 3353 4366 
Q 3744 4066 3744 3513 
Q 3744 3084 3544 2831 
Q 3344 2578 2956 2516 
Q 3422 2416 3680 2098 
Q 3938 1781 3938 1306 
Q 3938 681 3513 340 
Q 3088 0 2303 0 
L 628 0 
L 628 4666 
z
" id="DejaVuSans-42" transform="scale(0.015625)"/>
      <path d="M 1172 4494 
L 1172 3500 
L 2356 3500 
L 2356 3053 
L 1172 3053 
L 1172 1153 
Q 1172 725 1289 603 
Q 1406 481 1766 481 
L 2356 481 
L 2356 0 
L 1766 0 
Q 1100 0 847 248 
Q 594 497 594 1153 
L 594 3053 
L 172 3053 
L 172 3500 
L 594 3500 
L 594 4494 
L 1172 4494 
z
" id="DejaVuSans-74" transform="scale(0.015625)"/>
      <path d="M 2194 1759 
Q 1497 1759 1228 1600 
Q 959 1441 959 1056 
Q 959 750 1161 570 
Q 1363 391 1709 391 
Q 2188 391 2477 730 
Q 2766 1069 2766 1631 
L 2766 1759 
L 2194 1759 
z
M 3341 1997 
L 3341 0 
L 2766 0 
L 2766 531 
Q 2569 213 2275 61 
Q 1981 -91 1556 -91 
Q 1019 -91 701 211 
Q 384 513 384 1019 
Q 384 1609 779 1909 
Q 1175 2209 1959 2209 
L 2766 2209 
L 2766 2266 
Q 2766 2663 2505 2880 
Q 2244 3097 1772 3097 
Q 1472 3097 1187 3025 
Q 903 2953 641 2809 
L 641 3341 
Q 956 3463 1253 3523 
Q 1550 3584 1831 3584 
Q 2591 3584 2966 3190 
Q 3341 2797 3341 1997 
z
" id="DejaVuSans-61" transform="scale(0.015625)"/>
      <path d="M 3513 2113 
L 3513 0 
L 2938 0 
L 2938 2094 
Q 2938 2591 2744 2837 
Q 2550 3084 2163 3084 
Q 1697 3084 1428 2787 
Q 1159 2491 1159 1978 
L 1159 0 
L 581 0 
L 581 3500 
L 1159 3500 
L 1159 2956 
Q 1366 3272 1645 3428 
Q 1925 3584 2291 3584 
Q 2894 3584 3203 3211 
Q 3513 2838 3513 2113 
z
" id="DejaVuSans-6e" transform="scale(0.015625)"/>
     </defs>
     <use xlink:href="#DejaVuSans-42"/>
     <use x="68.603516" xlink:href="#DejaVuSans-68"/>
     <use x="131.982422" xlink:href="#DejaVuSans-75"/>
     <use x="195.361328" xlink:href="#DejaVuSans-74"/>
     <use x="234.570312" xlink:href="#DejaVuSans-61"/>
     <use x="295.849609" xlink:href="#DejaVuSans-6e"/>
    </g>
   </g>
  </g>
 </g>
 <defs>
  <clipPath id="pf7c6cb8b62">
   <rect height="52.687377" width="136.204724" x="34.440945" y="19.265913"/>
  </clipPath>
 </defs>
</svg>
