<svg xmlns="http://www.w3.org/2000/svg" viewBox="0 0 66 66"><defs><style>.cls-1{fill:none;stroke-linecap:round;stroke-linejoin:round;stroke-width:4px;}.cls-1,.cls-3{stroke:#000;}.cls-2,.cls-3{fill:#fff;}.cls-3{stroke-miterlimit:10;stroke-width:0.25px;}</style></defs><g id="Icon_background" data-name="Icon background"><path class="cls-1" d="M40.42,32a7.2,7.2,0,0,1,.08,1,7.45,7.45,0,0,1-.07,1H64V32Z"/><path class="cls-1" d="M25.5,33.05a7.2,7.2,0,0,1,.08-1H2v2H25.57A7.45,7.45,0,0,1,25.5,33.05Z"/><circle class="cls-1" cx="33" cy="33.05" r="5.5"/><path d="M33,30.05a3,3,0,1,1-3,3,3,3,0,0,1,3-3m0-.5a3.5,3.5,0,1,0,3.5,3.5,3.5,3.5,0,0,0-3.5-3.5Z"/><path d="M33,29.55a3.5,3.5,0,1,1-3.5,3.5,3.5,3.5,0,0,1,3.5-3.5m0-4a7.5,7.5,0,1,0,7.5,7.5,7.51,7.51,0,0,0-7.5-7.5Z"/><path class="cls-1" d="M33,25.5a8.26,8.26,0,0,1,1,.07V2H32V25.57A8.26,8.26,0,0,1,33,25.5Z"/><path class="cls-1" d="M33,40.5a8.26,8.26,0,0,1-1-.07V64h2V40.43A8.26,8.26,0,0,1,33,40.5Z"/></g><g id="Icon_foreground_copy" data-name="Icon foreground copy"><path class="cls-2" d="M40.42,32a7.2,7.2,0,0,1,.08,1,7.45,7.45,0,0,1-.07,1H64V32Z"/><path class="cls-2" d="M25.5,33.05a7.2,7.2,0,0,1,.08-1H2v2H25.57A7.45,7.45,0,0,1,25.5,33.05Z"/><path class="cls-2" d="M33,38.55a5.5,5.5,0,1,1,5.5-5.5A5.51,5.51,0,0,1,33,38.55Zm0-9a3.5,3.5,0,1,0,3.5,3.5A3.5,3.5,0,0,0,33,29.55Z"/><path class="cls-2" d="M33,25.5a8.26,8.26,0,0,1,1,.07V2H32V25.57A8.26,8.26,0,0,1,33,25.5Z"/><path class="cls-2" d="M33,40.5a8.26,8.26,0,0,1-1-.07V64h2V40.43A8.26,8.26,0,0,1,33,40.5Z"/><path class="cls-3" d="M33,34.52A1.52,1.52,0,1,1,34.52,33,1.52,1.52,0,0,1,33,34.52Z"/></g></svg>