<?xml version="1.0" encoding="utf-8"?>
<!-- Generator: Adobe Illustrator 26.0.3, SVG Export Plug-In . SVG Version: 6.00 Build 0)  -->
<svg version="1.1" xmlns="http://www.w3.org/2000/svg" xmlns:xlink="http://www.w3.org/1999/xlink" x="0px" y="0px"
	 viewBox="0 0 129.2 61" style="enable-background:new 0 0 129.2 61;" xml:space="preserve">
<style type="text/css">
	.st0{fill:none;stroke:#000000;stroke-width:0.3;stroke-linejoin:round;}
	.st1{fill:#E0F532;stroke:#E0F532;stroke-linejoin:round;}
	.st2{fill:none;stroke:#FF0000;stroke-miterlimit:10;}
	.st3{fill:none;stroke:#FF0000;stroke-width:0.5;stroke-miterlimit:10;}
	.st4{fill:#FF0000;}
</style>
<g id="Layer_1">
	<g id="figure_1">
		<g id="axes_1">
			<g id="LineCollection_1">
				<g>
					<path class="st0" d="M129.2,36.5v0.2l-0.2,0.1l-0.2,0.1l0-0.1l0.2-0.1l0.1,0L129.2,36.5"/>
				</g>
				<g>
					<path class="st0" d="M128.6,37L128.6,37l0.2,0l-0.1,0.2l-0.2,0l-0.2,0l0-0.2l0.1-0.1L128.6,37"/>
				</g>
				<g>
					<path class="st0" d="M5.5,36.5l0,0.2l0,0L5.5,36.5L5.5,36.5"/>
				</g>
				<g>
					<path class="st0" d="M79,31.3L79,31.3l1.3,0.7l0,0.2l0.5,0.3L80.6,33l0,0.2l0.2,0.1l0,0.1l-0.1,0.2l0,0.1l0,0.2l0.1,0.2
						l0.1,0.3l0.1,0.1h0l-0.3,0.2l-0.4,0.1l-0.2,0L80.2,35L80,35l-0.1,0l-0.4-0.1l-0.3,0l-0.1-0.5L79,34.3l-0.1-0.1l-0.3-0.1
						l-0.2-0.1L78.2,34L78,34l-0.1-0.1l0,0l-0.2-0.4l-0.2-0.2l-0.1-0.2l0-0.2l-0.1-0.3l0.1,0l0.1-0.1l0.1-0.2l0.1-0.1l0-0.1L77.8,32
						l0-0.1v0l0.1,0l0-0.2l-0.1-0.2l0.1,0l0.4,0L79,31.3"/>
				</g>
				<g>
					<path class="st0" d="M64.3,21.5L64.3,21.5L64.3,21.5l0,0.6l-1.1,0l0,0.9l-0.3,0l-0.1,0.2l0.1,0.5l-1.3,0l-0.1,0.1l0-0.1l0,0
						l0.8,0l0-0.1l0.1-0.2l0.1-0.5l0.5-0.4l0.2-0.4l0.1,0l0.1-0.3l0.3,0l0.1,0H64l0.1-0.1l0.2,0L64.3,21.5L64.3,21.5"/>
				</g>
				<g>
					<path class="st0" d="M25.1,14.2L25.1,14.2l-1-0.5l-0.6-0.1l-0.2-0.3l0-0.2l-0.4-0.1l-0.1-0.3l-0.4-0.2l0-0.2l0.2-0.2l0-0.2
						L22,11.6l-0.6-0.6l-0.7-0.5L20,10.8l-0.5-0.4l-0.7-0.1l0-3.2l0,0l1.8,0.1l0.4-0.1l0.5,0l1.1-0.2L22.9,7l0.3-0.1l0.1-0.2l0.2,0
						l0.6,0.3l0.5-0.2l0,0.3l1-0.1l1.3,0.3l1.3,0.2l-0.5,0.2l0.6,0.1l1.2-0.1l0.4,0.2l0.4-0.2l-0.4-0.1l0.2-0.1l1,0l0.3,0.2l0.4,0
						l0.6,0.2l1,0l0-0.2l0.3-0.1l0.5,0.1l0,0.3l0.2-0.3l0.3,0l0.2-0.3l-0.8-0.4l0-0.4l0.4-0.2l0.8,0.2l0.5,0.4L35.5,7l0.6,0.1l0,0.4
						l0.5-0.3L37,7.4l-0.1,0.3l0.3,0.2l0.6-0.5l0-0.4l1,0.1l0.5,0.2l0,0.2l-0.3,0.2l0.2,0.2l0,0.2l-1.2,0.3l-0.4-0.1l-0.1,0.2
						L36.9,9l-0.5,0l-0.3,0.1l0,0.2l-0.4,0l-0.4,0.3l-0.5,0.7l0,0.4l0.5,0.1l0.3,0.6l0.5-0.1l1,0.3l0.2,0.2L39,12L39,12.3l0.1,0.3
						l0.2,0.4l0.5,0.3l0.3-0.1l0.2-0.4l-0.2-0.5l-0.2-0.2l0.6-0.2l0.6-0.5l0-0.2L40.7,11l-0.4-0.3l0.4-0.4l-0.1-0.3l-0.1-0.5
						l0.2-0.1l0.9,0.1l0.3-0.1l0.7,0.3l0.1,0.1l0.6,0l0,0.3l0.1,0.4l0.3,0.1L44,11l0.5-0.2l0.6-0.5l1.1,1.2l-0.1,0.2l1.5,0.6
						l0.1,0.3l0.4,0.2l0,0.4l-0.5,0.3l-0.6,0.1l-0.4,0.3l-0.6,0.1l-1.6-0.1L44.2,14l-0.4,0.2l-0.9,0.8l0.3-0.1l0.6-0.5l0.7-0.3
						l0.5,0l0.3,0.2l-0.3,0.2l0.2,0.6l0.4,0.2l0.6,0l0.3-0.4l0,0.2l0.2,0.1l-0.4,0.2l-1.1,0.3L44.8,16l-0.3,0l0-0.3l0.6-0.3
						l-0.9,0.1L44,15.3l0-0.5l-0.2-0.1l-0.2,0.1l-0.1-0.1L43.2,15L43,15.4l-0.3,0.2l-1.3,0.1L40.9,16l-0.8,0.1l0.1,0.2l-1.3,0.4
						l-0.1-0.1l0.3-0.5l-0.1-0.6l-0.5-0.3l0-0.1l-0.1,0L38.2,15l0-0.1l-1.2-0.5l-0.4,0.1l-1.4-0.2l-0.3-0.1L34.7,14l-0.1,0l0,0.1
						H25.1L25.1,14.2"/>
				</g>
				<g>
					<path class="st0" d="M38.4,9.5l0.3-0.2l0.5,0l0,0.1l-0.4,0.2L38.4,9.5L38.4,9.5"/>
				</g>
				<g>
					<path class="st0" d="M39.9,6l-0.4-0.2l0-0.1l0.2,0l0.8,0l0.6,0.2l0,0.1l-0.4,0l-0.4,0L39.9,6L39.9,6"/>
				</g>
				<g>
					<path class="st0" d="M39.7,9.7l0.1-0.1l0.1,0l0.1,0.1l-0.1,0.2l-0.2,0L39.7,9.7L39.7,9.7"/>
				</g>
				<g>
					<path class="st0" d="M35.1,5.2l-0.2,0.1l-0.5,0L34,5.2l0.2-0.2L34.7,5L35,5.1L35.1,5.2"/>
				</g>
				<g>
					<path class="st0" d="M35,4.3l-0.2,0l-0.6,0l-0.1-0.1l0.7,0L35,4.3L35,4.3"/>
				</g>
				<g>
					<path class="st0" d="M34,3.9L34.4,4l-0.1,0.1l-0.5,0.1l-0.3-0.1L33.4,4l0-0.1l0.4,0L34,3.9"/>
				</g>
				<g>
					<path class="st0" d="M37,5.4l-0.6,0l-0.9-0.1l-0.1-0.2l0-0.2L35,4.8l-0.7,0l-0.4-0.1L34,4.5l0.7,0l0.4,0.1l0.7,0l0.3,0.1
						L36,4.8l0.4,0.1L36.6,5l0.5,0l0.5,0L38.2,5l0.7,0l0.6,0l0.4,0.1l0.1,0.1l-0.2,0.1l-0.5,0.1l-0.4,0l-1,0.1L37,5.4"/>
				</g>
				<g>
					<path class="st0" d="M29,4.1l0.5,0.1l-0.1,0.1l-0.6,0.1l-0.5-0.1l0.3-0.1L29,4.1"/>
				</g>
				<g>
					<path class="st0" d="M29.2,3.9L29.6,4L29.2,4l-0.6,0l0,0L29,3.9L29.2,3.9"/>
				</g>
				<g>
					<path class="st0" d="M48.2,13.4L48,13.6l-0.2,0.3l0.2-0.1l0.2,0.1L48.1,14l0.3,0.1l0.2-0.1l0.3,0.1l-0.1,0.3l0.2-0.1l0,0.2
						l0.1,0.2L49.1,15l-0.2,0l-0.2-0.1l0.1-0.3l-0.1,0l-0.4,0.3l-0.2,0l0.2-0.2L48,14.6l-0.4,0l-0.7,0l-0.1-0.1l0.2-0.1l-0.1-0.1
						l0.3-0.2l0.4-0.5l0.2-0.2l0.3-0.1L48.2,13.4L48.2,13.4"/>
				</g>
				<g>
					<path class="st0" d="M38.5,8.6l0.4,0.1l0.4,0.1l0,0.2l0.3,0l0.2,0.1l-0.3,0.1l-0.5-0.1L38.7,9l-0.3,0.2l-0.5,0.2l-0.1-0.2
						l-0.5,0L37.6,9l0-0.3l0.1-0.3l0.2,0l0.1,0.2l0.2-0.1L38.5,8.6"/>
				</g>
				<g>
					<path class="st0" d="M40.2,6.1L40.5,6l0.8,0.2l0.5,0.2l0,0.2l0.6-0.1l0.4,0.2l0.8,0.1L44,6.9l0.3,0.3l-0.6,0.2l0.8,0.2L45,7.7
						L45.5,8L46,8l-0.1,0.2l-0.6,0.4l-0.4-0.1l-0.5-0.3l-0.4,0l0,0.2l0.4,0.2l0.5,0.2l0.1,0.1l0.2,0.3L45,9.5l-0.4-0.1l-0.9-0.3
						l0.5,0.3l0.4,0.2l0.1,0.1l-0.9-0.1l-0.7-0.2l-0.4-0.2l0.1-0.1l-0.5-0.2l-0.5-0.2l0,0.1l-1,0.1l-0.3-0.1l0.2-0.3l0.6,0l0.7,0
						l-0.1-0.1l0.1-0.2l0.4-0.3l-0.1-0.2l-0.1-0.1l-0.5-0.2l-0.7-0.1l0.2-0.1L40.7,7l-0.3,0l-0.3-0.1L40,7l-0.6,0l-1.3-0.1l-0.7-0.1
						l-0.6-0.1l-0.3-0.1l0.4-0.2l-0.5,0l-0.1-0.3l0.3-0.3l0.4-0.1l0.9-0.1l-0.3,0.2l0.3,0.2l0.3-0.3L39,5.6L39.6,6l-0.1,0.2
						L40.2,6.1"/>
				</g>
				<g>
					<path class="st0" d="M34.8,5.5l0.7,0l0.7,0.1l-0.5,0.3L35.3,6l-0.4,0.3l-0.4,0l-0.2-0.3l0-0.2l0.2-0.1L34.8,5.5"/>
				</g>
				<g>
					<path class="st0" d="M25.1,4.8L25.1,4.8l0.6-0.3l0.7-0.2l0.5,0l0.5-0.1l0,0.3L27,4.7l-0.3,0l-0.6,0.1l-0.6,0.1L25.1,4.8"/>
				</g>
				<g>
					<path class="st0" d="M21.7,12.4l0.3,0l-0.1,0.4l0.3,0.3l-0.1,0l-0.2-0.2l-0.1-0.2l-0.2-0.1l-0.1-0.2l0-0.1L21.7,12.4"/>
				</g>
				<g>
					<path class="st0" d="M31,3.7l0.7,0l0.9,0.1l0.3,0.2L33,4.2l-0.6,0l-0.6-0.1l-0.8,0L31.5,4l-0.4-0.1L31,3.7"/>
				</g>
				<g>
					<path class="st0" d="M24.8,14.3l-0.2,0l-0.6-0.2L24,14.1L23.7,14l-0.1-0.1l-0.4-0.1l-0.1-0.2l0-0.1l0.4,0.1l0.2,0.1l0.3,0
						l0.1,0.1l0.2,0.2l0.3,0.1L24.8,14.3"/>
				</g>
				<g>
					<path class="st0" d="M25.5,5.4L26,5.5l0.9,0l0.3,0.1l0.4,0.1l-0.4,0.1l-0.8,0.2l-0.4,0.2v0.2L25,6.6l-0.2-0.2L24,6.3l0.1-0.1
						l0.2-0.3l0.3-0.2l-0.3-0.2L25.5,5.4"/>
				</g>
				<g>
					<path class="st0" d="M30.2,4.9l0.3-0.1l0.4,0L31,5.1l-0.2,0.2l-1.2,0.1l-0.9,0.1l-0.5,0l0-0.1l0.7-0.2l-1.6,0l-0.5-0.1l0.5-0.3
						l0.3-0.1l1,0.1L29.2,5l0.6,0l-0.5-0.3l0.3-0.1l0.4,0l0.1,0.2L30.2,4.9"/>
				</g>
				<g>
					<path class="st0" d="M30.7,5.9L31.1,6l0.2,0.3l0.1,0.2L32,6.8l0.6,0.2l0,0.2l-0.6,0l0.2,0.1l-0.1,0.1l-0.6-0.1l-0.6-0.1l-0.4,0
						l-0.6,0.1L29,7.4l-0.6,0l-0.2-0.2l-0.5-0.1l-0.3,0L27,6.9l0.2,0l0.5-0.1l0.5,0l0.4-0.1L28,6.7l-0.7,0l-0.5,0l-0.2-0.1l0.8-0.1
						l-0.5,0l-0.6-0.1l0.3-0.3L26.8,6l0.9-0.2L28,5.9L27.9,6l0.8-0.1l0.5,0.2l0.4-0.2L29.8,6l0.3,0.3l0.2-0.1L30,5.9l0.3-0.1
						L30.7,5.9"/>
				</g>
				<g>
					<path class="st0" d="M32.8,6l-0.4-0.2l0.4-0.2l0.4,0.1l0.6,0l0.1,0.1l-0.3,0.2l0.5,0.1l-0.1,0.3l-0.6,0.1l-0.3,0l-0.2-0.1
						l-0.9-0.3l0-0.1L32.8,6"/>
				</g>
				<g>
					<path class="st0" d="M30.7,5.7l0.5,0l0.3,0.1L31.1,6l-0.5-0.2L30.7,5.7"/>
				</g>
				<g>
					<path class="st0" d="M33.4,4.6l0.3,0.2l0,0.2l-0.2,0.3l-0.6,0l-0.4-0.1l0-0.2l-0.6,0l0-0.3l0.4,0l0.5-0.1L33.4,4.6L33.4,4.6"/>
				</g>
				<g>
					<path class="st0" d="M34.3,3.3l0.2-0.1l0.4,0l-0.2-0.1l0.8,0L36,3.2l0.6,0.1l0.6,0.1l0.3,0.2l0.4,0.1l-0.5,0.1l-0.6,0.3l-0.6,0
						l-0.7,0L35,3.9l0-0.1l0.3-0.1l-0.6,0l-0.4-0.1l-0.2-0.2L34.3,3.3"/>
				</g>
				<g>
					<path class="st0" d="M35.8,2.8l0.5-0.1l0.4,0l0.7-0.1l0.5-0.1l0.4,0l0.4,0.1L39,2.5l0.5-0.1l0.6,0l1.1,0l0.2,0l1-0.1l0.7,0
						l0.7,0l0.9,0l0.7,0L46,2.6l0,0.1l-0.8,0.1l-0.8,0.1L44,3l0.7,0L44,3.2l-0.6,0.1l-0.6,0.3l-0.7,0.1l-0.2,0.1l-1,0l0.5,0
						l-0.2,0.1L41.4,4l-0.3,0.1l-0.5,0.1l-0.2,0.1l-0.5,0.1l0,0.1l0.6,0l0,0.1l-0.9,0.2l-0.9-0.1l-1,0.1l-0.5,0l-0.7,0l0-0.2
						l0.6-0.1L37,4.2l0.2,0l0.9,0.1l-0.5-0.2l-0.6-0.1l0.3-0.1L38,3.8L38,3.7l-0.5-0.1l-0.1-0.2l0.9,0l0.3,0l0.5-0.1l-0.8,0l-1.2,0
						l-0.6-0.1l-0.3-0.1L35.9,3L35.8,2.8"/>
				</g>
				<g>
					<path class="st0" d="M41.4,7.8l-0.2,0.1l-0.4,0l-0.1-0.2l0.1-0.2l0.3,0l0.3,0.1L41.4,7.8L41.4,7.8"/>
				</g>
				<g>
					<path class="st0" d="M34.2,7.1l0.2,0.1l-0.2,0.1l-0.5-0.1l-0.3,0L33,7.1L33.3,7l0.2-0.1L33.9,7L34.1,7L34.2,7.1"/>
				</g>
				<g>
					<path class="st0" d="M45.1,13.9l0.1,0l0.5,0.1l0.4,0.1l0,0.1l-0.2,0L45.4,14L45.1,13.9"/>
				</g>
				<g>
					<path class="st0" d="M45.3,14.8l0.1,0.2l0.2,0l0.3,0l-0.2,0.1l-0.1,0l-0.4-0.1l-0.1-0.1L45.3,14.8"/>
				</g>
				<g>
					<path class="st0" d="M25.1,14.2h9.5l0-0.1l0.1,0l0.2,0.2l2.4,0.3l1,0.5l0,0l0.1,0l0.1,0l0,0.1l0.5,0.3l0.1,0.6l-0.3,0.6
						l0.2,0.1l0.8-0.2l0.5-0.2l-0.1-0.2l0.5-0.1l0.3,0l0.2-0.2l0.5-0.3l1.3-0.1l0.3-0.2l0.1-0.3l0.3-0.3l0.1,0.1l0.2-0.1l0.2,0.1
						l0,0.5l0.3,0.3L43,16.3l0,0.2l0.1,0.2l0.1,0l0-0.1l0.1,0.2l-1.5,0.4l0.1,0l-0.1,0.2l-0.3,0.3l0-0.1l-0.2-0.1l0.1,0.2l0.1,0.2
						l-0.3,0.4l0.1-0.2l-0.2-0.1l0-0.3l0,0.4l-0.2-0.1l0.2,0.1l0.1,0.4l0.1,0.5L41.1,19l-0.4,0.1l-0.4,0.2L39.5,20l-0.2,0.4l0.2,0.5
						l0.2,0.4l0.2,0.6l-0.1,0.3l-0.3,0l-0.2-0.2l-0.4-0.7l0.1-0.2l-0.4-0.5l-0.1-0.1L38,20.8l-0.4-0.2l-1.1,0.1l0.1,0.1l0,0.3
						l-0.3,0l-0.2,0l-0.3-0.2l-0.3,0L35,20.8l-0.3,0.1l-0.9,0.7l-0.1,0.5l-0.5-0.2l-0.7-1l-0.2-0.1l-0.3,0L31.9,21l-0.5-0.2
						l-0.2-0.4l-0.5-0.4l-0.6,0l0,0.1l-1,0l-1.7-0.4l-0.4,0L27,19.6l-0.4-0.3l-0.6-0.1l-0.1-0.1l0-0.2l-0.3-0.3l-0.9-1.4l0.1-0.6
						l-0.1-0.3l0.2-0.6l0-0.3l-0.2-0.8l-0.1-0.2l0.5,0.1l0.2,0.3l0.1-0.1L25.1,14.2L25.1,14.2"/>
				</g>
				<g>
					<path class="st0" d="M13.9,24.1L13.9,24.1l0.1,0.1l0.1,0.1l0,0l-0.1,0.1l-0.1,0.1l-0.1,0.1l-0.1,0l0-0.1l-0.1-0.1l0,0l0.1-0.1
						l0-0.1l0,0l0,0L13.9,24.1"/>
				</g>
				<g>
					<path class="st0" d="M13.7,23.9L13.7,23.9l-0.1,0.1l-0.1-0.1l0,0l0,0l0,0L13.7,23.9L13.7,23.9"/>
				</g>
				<g>
					<path class="st0" d="M13.4,23.7L13.4,23.7l-0.2,0l0,0L13.4,23.7"/>
				</g>
				<g>
					<path class="st0" d="M13,23.5L13,23.5l0.1,0.1l0,0l0,0l-0.1,0L13,23.5L13,23.5L13,23.5"/>
				</g>
				<g>
					<path class="st0" d="M12.5,23.4L12.5,23.4l0,0.1l-0.1-0.1l0,0L12.5,23.4L12.5,23.4"/>
				</g>
				<g>
					<path class="st0" d="M10.1,10.2l0.3,0l0,0.1l-0.2,0.1l-0.2-0.1l-0.2-0.1L10.1,10.2"/>
				</g>
				<g>
					<path class="st0" d="M14.6,11.1l0.2,0l0.1,0.1l-0.3,0.2l-0.3,0.1l-0.2-0.1l-0.1-0.2l0.3-0.1L14.6,11.1"/>
				</g>
				<g>
					<path class="st0" d="M18.8,7L18.8,7l0,3.2l0.7,0.1l0.5,0.4l0.7-0.3l0.4,0.3l0.3,0.2l0.6,0.6l0.6,0.2l0,0.2l-0.2,0.2l-0.5-0.2
						l-0.1-0.3l-0.4-0.3L21.2,11l-1.3-0.1l-1-0.4l-0.6-0.1l-0.5,0l-1.5-0.2l0.1,0.2l-0.9,0.2l-0.4,0.1l0-0.2l0.2-0.3l0.4-0.1
						l-0.8,0.3l-0.5,0.2l0.3,0.2l-0.7,0.4l-0.3,0.1l-0.1,0.2l-0.5,0.2l-0.1,0.2l-0.6,0.1l-1.6,0.4l1.1-0.5l0.4,0l0.2-0.1l0.8-0.4
						l0.1-0.3l0.2-0.2l-0.7,0.2l-0.2-0.2l-0.1,0.1l-0.1-0.2l-0.6,0.1l0-0.3l-0.2-0.1L11,10.4l-0.5-0.2l0-0.2l-0.3-0.1l0.1-0.2
						L11,9.3l0.2,0.1l0.3-0.2l0.2,0L12,9.1L12,8.9l-0.2-0.1L12,8.7l-0.2,0l-0.7,0.1l-0.5,0l-0.5-0.1L9.9,8.6L9.5,8.4l1.3-0.3H11
						l0,0.2l0.7,0l-0.3-0.2l-0.7-0.3L10,7.5l0.2-0.2l0.6,0l0.4-0.2L11.3,7L12,6.8l1.5-0.3L14,6.5l0.2,0.2l0.2-0.1l0.6,0l0,0.1
						l2.5,0.2l0.5-0.1L18.8,7L18.8,7"/>
				</g>
				<g>
					<path class="st0" d="M8.3,9.1l0.2,0.1l0.2,0L9,9.2l0.3,0l0,0L9,9.4L8.7,9.3L8.6,9.2l-0.3,0l-0.1,0L8.3,9.1"/>
				</g>
				<g>
					<path class="st0" d="M97.4,14.1l-0.3,0.2l-0.3,0l0,0.3l-0.2,0.2l-0.7-0.1l-0.2,0.6l-0.2,0.1l-0.7,0.1l0.3,0.6l-0.2,0.1l0,0.2
						l-0.2-0.1l-0.2-0.1l-0.5,0l-0.6,0l-0.1,0l-0.5-0.1l-0.2,0.1l-0.1,0.2L92,16.3l-0.2,0l-0.1,0.2l-0.2,0.1l-0.5,0.2L90.9,17
						l-0.1,0l-0.1-0.2l-0.4,0l-0.1-0.3l-0.2,0l0-0.3L89.6,16l-0.6,0L88.6,16l-0.3-0.3L88,15.6l-0.5-0.2l-0.1,0l-0.9,0.2l0,1.3
						l-0.2,0l-0.2-0.3l-0.2-0.1l-0.4,0.1l-0.2,0.1l0-0.1l0.1-0.1l-0.1-0.1L85,16.2l-0.2-0.3l-0.2-0.1l0-0.1l0.3,0l0-0.3l0.3-0.1
						l0.3,0.1l0.1-0.3l-0.1-0.2l-0.3,0l-0.3-0.1L84.5,15l-0.3,0.1L84,15l0-0.2l-0.2-0.2l-0.3,0l-0.3-0.2l0.2-0.3L83.4,14l0.3-0.4
						l0.4,0.2l0-0.3l0.7-0.4l0.5,0l0.8,0.2l0.4,0.1l0.4-0.1l0.5,0l0.4,0.2l0.1-0.1l0.5,0l0.1-0.2l-0.6-0.2l0.3-0.2l-0.1-0.1l0.3-0.1
						l-0.2-0.2l0.2-0.1l1.3-0.1l0.2-0.1l0.9-0.1l0.3-0.1l0.6,0.1l0.1,0.4l0.4-0.1l0.4,0.1l0,0.2l0.3,0l0.9-0.3l-0.1,0.1l0.4,0.3
						l0.8,0.9l0.2-0.2l0.5,0.2l0.5-0.1l0.2,0.1l0.2,0.2l0.2,0.1l0.1,0.1l0.4,0L97.4,14.1"/>
				</g>
				<g>
					<path class="st0" d="M86.6,16.8l0-1.3l0.9-0.2l0.1,0l0.5,0.2l0.3,0.1l0.3,0.3l0.4-0.1l0.6,0l0.4,0.3l0,0.3l0.2,0l0.1,0.3l0.4,0
						l0.1,0.2l0.1,0l0.2-0.2l0.5-0.2l0.2-0.1l0.1,0l-0.3,0.2l0.3,0.1l0.2-0.1l0.4,0.2L92,17.2l-0.3,0l-0.1,0l0-0.1l0.1-0.2L91.2,17
						l-0.1,0.2l-0.2,0.2l-0.3,0l-0.1,0.2l0.3,0.1l0.1,0.3l-0.2,0.3l-0.3-0.1l-0.2,0l0-0.2l-0.5-0.1l-0.4-0.2l-0.2-0.2l-0.4-0.2
						l-0.2-0.4l-0.1-0.1l-0.4,0L88,16.8l0-0.3l-0.5-0.2l-0.3,0.2l-0.3,0.1l0.1,0.2L86.6,16.8"/>
				</g>
				<g>
					<path class="st0" d="M115.8,31.9l0.6,0.2l0.6,0.2l0.2,0.2l0.2,0.2l0.1,0.2l0.6,0.2l0.1,0.2l-0.3,0l0.1,0.2l0.3,0.2l0.2,0.4
						l0.2,0l0,0.2l0.3,0.1l-0.1,0.1l0.4,0.1l0,0.1l-0.2,0l-0.1-0.1l-0.3,0l-0.3-0.1l-0.3-0.2l-0.2-0.2l-0.2-0.3l-0.4-0.2l-0.3,0.1
						l-0.2,0.1l0,0.3l-0.3,0.1l-0.2-0.1l-0.4,0l0-1.1L115.8,31.9"/>
				</g>
				<g>
					<path class="st0" d="M119.8,32.3l0.1,0.1l0,0.2l-0.1,0.1l-0.1-0.2L119.8,32.3l-0.2-0.1l-0.2-0.1l-0.2-0.1l0.1-0.1l0.2,0.1
						l0.1,0.1l0.1,0.1L119.8,32.3"/>
				</g>
				<g>
					<path class="st0" d="M119.4,33l-0.2,0.1l-0.2,0.1l-0.2,0l-0.3-0.1l-0.2-0.1l0-0.1l0.3,0.1l0.2,0l0.1-0.2l0,0l0,0.2l0.2,0
						l0.1-0.1l0.2-0.1l0-0.2l0.2,0l0.1,0.1l0,0.2l-0.1,0.2L119.4,33L119.4,33"/>
				</g>
				<g>
					<path class="st0" d="M120.5,32.8l0.1,0.1l0.2,0.2l0.2,0.1l0,0.1l-0.1,0l-0.1-0.1l-0.2-0.2L120.5,32.8l0-0.1L120.5,32.8"/>
				</g>
				<g>
					<path class="st0" d="M115.8,31.9l0,1.1l0,1.1l-0.3-0.3l-0.3-0.1l-0.1,0.1l-0.4,0l0.1-0.3l0.2-0.1l-0.1-0.4l-0.2-0.3l-0.7-0.3
						l-0.3,0l-0.5-0.3l-0.1,0.2l-0.1,0l-0.1-0.1l0-0.1l-0.3-0.2l0.4-0.1l0.2,0l0-0.1l-0.5,0l-0.1-0.2l-0.3-0.1l-0.1-0.2l0.5-0.1
						l0.2-0.1l0.6,0.1l0.1,0.1l0.1,0.6l0.4,0.2l0.3-0.4l0.4-0.2l0.3,0l0.3,0.1l0.3,0.1L115.8,31.9"/>
				</g>
				<g>
					<path class="st0" d="M110.3,34.1L110.3,34.1l0,0.2l-0.2,0.3l-0.3,0.1l0,0l0-0.1l0.1-0.2L110.3,34.1"/>
				</g>
				<g>
					<path class="st0" d="M113.5,33.4l0-0.3l0.1-0.1l0.1-0.1l0.1,0.1l0,0.2L113.5,33.4"/>
				</g>
				<g>
					<path class="st0" d="M107.9,29.6l-0.2,0.3l0.3,0.3l-0.1,0.2l0.4,0.3l-0.4,0l-0.1,0.2l0,0.3l-0.3,0.2l0,0.3l-0.1,0.5l-0.1-0.1
						l-0.4,0.2l-0.1-0.2l-0.2,0l-0.2-0.1l-0.4,0.1l-0.1-0.2l-0.2,0l-0.3,0l-0.1-0.5l-0.2-0.1l-0.2-0.3l0-0.3l0-0.3l0.2-0.2l0.1,0.2
						l0.2,0.2l0.2-0.1l0.2,0l0.2-0.2l0.2,0l0.3,0.1l0.3-0.1l0.2-0.5l0.1-0.1l0.1-0.4l0.4,0L107.9,29.6"/>
				</g>
				<g>
					<path class="st0" d="M111.8,32l0.4,0.1l0.1,0.3l-0.3-0.1l-0.3,0l-0.2,0l-0.2,0l0.1-0.2L111.8,32"/>
				</g>
				<g>
					<path class="st0" d="M111,32.3l-0.2-0.1l-0.1-0.1l0.3,0l0.1,0.1L111,32.3"/>
				</g>
				<g>
					<path class="st0" d="M111.3,30.3l0,0.2l0.2,0l0,0.1l0,0.3l-0.2,0l-0.1,0.2l0.1,0.2l-0.1,0l-0.1-0.2l-0.1-0.4l0.1-0.3
						L111.3,30.3"/>
				</g>
				<g>
					<path class="st0" d="M109.6,30.7l0.4,0l0.3-0.2l0.1,0.1l-0.3,0.3l-0.3,0.1l-0.3-0.1l-0.6,0l-0.3,0l0,0.3l0.3,0.3l0.2-0.2
						l0.6-0.1l0,0.2l-0.1,0l-0.1,0.2l-0.3,0.1l0.3,0.4l-0.1,0.1l0.3,0.4l0,0.2l-0.2,0.1l-0.1-0.1l0.2-0.3l-0.3,0.1l-0.1-0.1l0-0.1
						l-0.2-0.2l0-0.3l-0.2,0.1l0,0.4l0,0.5l-0.2,0l-0.1-0.1l0.1-0.3l-0.1-0.3l-0.1,0l-0.1-0.2l0.1-0.2l0-0.3l0.2-0.5l0.1-0.1
						l0.3-0.3l0.3,0.1L109.6,30.7"/>
				</g>
				<g>
					<path class="st0" d="M108.7,34.5l-0.5-0.2l0.3-0.1l0.2,0.1l0.1,0.1l0,0.1L108.7,34.5"/>
				</g>
				<g>
					<path class="st0" d="M109.1,33.9l0.2,0l0.3-0.1l-0.1,0.2l-0.5,0.1l-0.5,0l0-0.1l0.3-0.1L109.1,33.9"/>
				</g>
				<g>
					<path class="st0" d="M108,33.9l0.2,0l0.1,0.1l-0.4,0.1l-0.2,0l-0.2,0l0.1-0.2l0.2,0l0.1-0.1L108,33.9"/>
				</g>
				<g>
					<path class="st0" d="M104.6,33.2l0,0.1l0.7,0l0.1-0.1l0.6,0.2l0.1,0.2l0.5,0.1l0.4,0.2l-0.4,0.1l-0.4-0.1l-0.3,0l-0.4,0
						l-0.3-0.1l-0.4-0.1l-0.3,0l-0.1,0l-0.6-0.1l-0.1-0.1l-0.3,0l0.2-0.3l0.4,0l0.3,0.1L104.6,33.2"/>
				</g>
				<g>
					<path class="st0" d="M103.2,31.4l0.1,0.2l0.1,0.2l0.3,0l0.2,0.2l-0.1,0.4l0,0.5l-0.4,0l-0.3-0.3l-0.4-0.3l-0.1-0.2l-0.3-0.3
						l-0.2-0.3l-0.3-0.5l-0.3-0.3l-0.1-0.3l-0.1-0.3l-0.3-0.2l-0.2-0.3l-0.3-0.2l-0.4-0.4l0-0.2l0.2,0l0.5,0.1l0.3,0.3l0.3,0.2
						l0.2,0.1l0.3,0.4l0.3,0l0.3,0.2l0.2,0.3L103,31l-0.1,0.3l0.2,0.1L103.2,31.4"/>
				</g>
				<g>
					<path class="st0" d="M43.7,49.1l0.1,0.2l0.2,0.3l0.4,0.2l0.5,0.1L44.8,50l-0.3,0l-0.2-0.1l-0.2,0l-0.4,0L43.7,49.1"/>
				</g>
				<g>
					<path class="st0" d="M47.5,41.4l-0.1,0.3L47.3,42l0,0.3l-0.1,0.1l0,0.2l0,0.2l0.4,0.3l0,0.2l0.2,0.1l0,0.2l-0.3,0.4l-0.5,0.2
						l-0.7,0.1l-0.4,0l0.1,0.2l-0.1,0.3l0.1,0.2l-0.2,0.1l-0.4,0L45.1,45l-0.1,0.1l0,0.3l0.2,0.1l0.2-0.1l0.1,0.2l-0.3,0.1L44.9,46
						l-0.1,0.3l-0.1,0.2l-0.3,0l-0.3,0.2l-0.1,0.3l0.3,0.3l0.3,0.1l-0.1,0.3l-0.4,0.2L44,48.2l-0.3,0.1l-0.1,0.2l0.1,0.4l0.2,0.2
						l-0.1,0l-0.3-0.1l-0.8,0l-0.1-0.2l0-0.3l-0.2,0l-0.1-0.1l0-0.4l0.3-0.2l0.1-0.2l0-0.2l0.2-0.3l0.1-0.5l0-0.2l0.2-0.1l0-0.1
						l-0.2-0.1l0.1-0.1l-0.2-0.1l-0.1-0.4l0.1-0.1l-0.1-0.4l0.1-0.4l0.1-0.3l0.2-0.1l-0.1-0.3l0-0.3l0.3-0.2l0-0.3l0.2-0.3l0-0.3
						l-0.1-0.1l-0.2-0.6l0.2-0.4l0-0.3l0.1-0.3l0.2-0.3l0.2-0.2l-0.1-0.1l0.1-0.1l0-0.6l0.4-0.2l0.1-0.4l0-0.1l0.3-0.3l0.5,0.1
						l0.2,0.2l0.1-0.3l0.4,0l0.1,0.1l0.6,0.6l0.3,0.1l0.4,0.3l0.4,0.1l0,0.2l-0.3,0.5l0.3,0.1l0.4,0.1l0.3-0.1l0.3-0.3l0.1-0.3
						l0.2-0.1l0.2,0.2l0,0.3l-0.3,0.2l-0.2,0.1L48,40.9L47.5,41.4"/>
				</g>
				<g>
					<path class="st0" d="M43.7,49.1l0,0.8l0.4,0l0.2,0L44.2,50l-0.3,0.1l-0.2,0l-0.2,0L43.3,50l-0.4,0l-0.4-0.2l-0.4-0.2l-0.5-0.4
						l0.3,0.1l0.5,0.2l0.5,0.1l0.2-0.2l0.1-0.2l0.3-0.1L43.7,49.1"/>
				</g>
				<g>
					<path class="st0" d="M43.4,37.1l0.2,0.2l0,0.2l0.2,0.1L43.7,38l0.2,0.4l0.1,0.5l0.2,0l0,0.1l-0.1,0.4l-0.4,0.2l0,0.6l-0.1,0.1
						l0.1,0.1l-0.2,0.2l-0.2,0.3l-0.1,0.3l0,0.3l-0.2,0.4l0.2,0.6l0.1,0.1l0,0.3l-0.2,0.3l0,0.3l-0.3,0.2l0,0.3l0.1,0.3l-0.2,0.1
						l-0.1,0.3l-0.1,0.4l0.1,0.4l-0.1,0.1l0.1,0.4l0.2,0.1l-0.1,0.1l0.2,0.1l0,0.1l-0.2,0.1l0,0.2l-0.1,0.5l-0.2,0.3l0,0.2l-0.1,0.2
						L42.1,48l0,0.4l0.1,0.1l0.2,0l0,0.3l0.1,0.2l0.8,0l0.3,0.1l-0.3,0l-0.2,0.1L43,49.2l-0.1,0.3l-0.1,0l-0.4-0.1L42,49.2l0,0
						L41.5,49l-0.1-0.2l0.1-0.2l-0.2-0.2l0-0.6l0.1-0.3l0.4-0.3l-0.5-0.1l0.3-0.3l0.1-0.6l0.4,0.1l0.2-0.7l-0.2-0.1L42,45.9l-0.2,0
						l0.1-0.5l0.1-0.6l0.2-0.2L42,44.2l0-0.4l0.1,0l0.2-0.6l0.2-0.6l0.1-0.5l-0.1-0.5l0.1-0.3l0-0.4l0.2-0.4l0.1-0.7l0.1-0.7
						l0.1-0.8l0-0.6l-0.1-0.5l0.2-0.1L43.4,37.1"/>
				</g>
				<g>
					<path class="st0" d="M77.4,32.6l0.1,0.3l0,0.2l0.1,0.2l0.2,0.2l0.2,0.4l0,0l-0.1,0l-0.5,0.1l-0.1,0l-0.1,0.2l0.1,0.2l-0.1,0.4
						l0,0.3l0.1,0.1l0.2,0.1l0.1-0.1l0,0.4l-0.3,0l-0.1-0.2L77,35.2l-0.3,0L76.7,35l-0.2,0.1l-0.3,0l-0.1-0.2l-0.2,0l-0.2,0l0-0.1
						l-0.1,0l-0.2,0l-0.2,0.1l-0.1,0l-0.1,0l0-0.4l-0.1-0.1l0-0.2l0.1-0.2l-0.1-0.1l0-0.2l-0.4,0l0-0.1l-0.2,0l0,0.1l-0.2,0
						l-0.1,0.2l-0.1,0.1l-0.2,0l-0.1,0l-0.2,0l-0.1-0.2l-0.1-0.1L73,33.3L72.9,33l-1,0l-0.1,0l-0.1,0l-0.1,0l0-0.1l0.1,0l0-0.1
						l0.1-0.1l0.1-0.1l0.1,0l0.1-0.1l0.2,0l0,0.1l0.1,0.1l0.2-0.2l0.2-0.2l0.1-0.1l0-0.3l0.1-0.3l0.2-0.2l0.2-0.2l0-0.1l0-0.1
						l0.1-0.1l0-0.2l0-0.3l0.1-0.2l0.1-0.2l0-0.2l0-0.2l0.1-0.2l0.2-0.1l0.3,0.1l0.2,0.1l0.3,0l0.3,0.1l0.1-0.2l0,0l0.2,0l0.4-0.2
						l0.1,0.1l0.1,0l0.1-0.1l0.1,0l0.3,0l0.2,0l0.1,0l0.2,0.3l0.2,0l0.1-0.1l0.2,0l0.2-0.1l0.1,0.1l0.3,0.2l0,0l0,0.4l0.1,0
						l-0.1,0.1l-0.1,0.1l-0.1,0.2l-0.1,0.2l0,0.3l-0.1,0.1l0,0.3l-0.1,0.1l0,0.2l0,0l0,0.2l0.1,0.2L77.4,32.6"/>
				</g>
				<g>
					<path class="st0" d="M81.6,31.6l-0.2-0.3l0-1.3l0.3-0.4l0.1-0.1l0.2,0l0.3-0.2l0.4,0l1-1L84,28l0.2-0.2l0-0.2l0-0.3l0-0.1l0,0
						l0,0l0.1,0l0.2-0.1l0.2,0l0.2-0.1l0.1,0l0,0.1l0,0.2l0,0.2l-0.1,0.1l-0.1,0.4l-0.2,0.4l-0.2,0.4L84,29.2l-0.3,0.4L83.3,30
						L83,30.3l-0.5,0.3l-0.3,0.3l-0.4,0.4L81.6,31.6L81.6,31.6"/>
				</g>
				<g>
					<path class="st0" d="M80.8,32.6l-0.5-0.3l0-0.2L79,31.4l-0.1,0l0-0.4l0.1-0.1l0.2-0.2l0.1-0.3L79.2,30l0-0.2L79,29.5l0.2-0.2
						l0.2-0.2l0.2,0.1v0.2l0.1,0.1H80l0.4,0.3l0.1,0l0.1,0l0.1,0l0.2,0l0.1-0.1l0.3-0.1l0.1,0.1l0.2,0l-0.3,0.4l0,1.3l0.2,0.3
						l-0.2,0.1l-0.1,0.1l-0.1,0l0,0.2L81,32.3l-0.1,0.2L80.8,32.6"/>
				</g>
				<g>
					<path class="st0" d="M75.8,28.2L75.5,28l-0.1-0.1l0-0.1l0.1-0.1l0-0.1l-0.2-0.2l0-0.1l0-0.1L75.1,27l0-0.2L75,26.7l-0.1,0
						l0-0.1l0.1-0.1l0-0.1l0.1-0.1L75,26.1l0.1-0.2l0.2-0.3l0.3,0l0-1.4l0-0.1l0.4,0v-0.7h1.4h1.3H80l0.1,0.3L80,23.8l0,0.4l0.1,0.4
						l0.1,0.1l0.2,0.1L80.4,25l-0.3,0.1L80,25.2l0,0.2l-0.1,0.5l0,0.1l-0.1,0.3l-0.1,0.3l-0.2,0.2l-0.1,0.3l0,0.1l-0.2,0.1L79,27.7
						l0,0.3l0-0.3l0,0l0-0.2l0-0.1l-0.2-0.1l0-0.2l0-0.3l-0.2,0l0,0.1l-0.2,0l0.1,0.1l0,0.2l-0.2,0.2l-0.2,0.2l-0.2,0l-0.3-0.2
						l-0.1,0.1l0,0.1l-0.2,0.1l0,0.1h-0.3l0-0.1l-0.2,0l-0.1,0.1l-0.1,0l-0.2-0.2l-0.1-0.1l-0.2,0l-0.1,0.2l-0.1,0.3L75.6,28l-0.1,0
						L75.8,28.2"/>
				</g>
				<g>
					<path class="st0" d="M75.5,24.3l0,1.4l-0.3,0l-0.2,0.3L75,26.1l0.1,0.1l-0.1,0.1l0,0.1l-0.1,0.1l0,0.1l0.1,0l0.1,0.1l0,0.2
						l0.1,0.1l0,0.1L75,27.2l-0.2,0.1l-0.2,0.4l-0.3,0.2l-0.3,0l-0.1,0l0,0.1l-0.2,0.1l-0.1,0.1l-0.4,0.1L73,28.4l-0.1,0l-0.1,0.1
						l-0.3,0l0.1-0.1l-0.1-0.2l0-0.1l-0.1-0.1l-0.2-0.2l0.1-0.2l0.2,0l0.1,0l0.2,0l-0.2-0.3l0-0.2l0-0.2l-0.1-0.2l0-0.2l-0.2,0
						l0-0.2L72,26.1l0.1-0.5l0.4-0.3l0-0.4l0.1-0.7l0.1-0.1l-0.1-0.1l0-0.1l-0.1-0.1l-0.1-0.5l0.3-0.2l1.4,0.7L75.5,24.3"/>
				</g>
				<g>
					<path class="st0" d="M42.7,24.2l0,0.2l0,0.1l-0.1,0.1l0.1,0.1l0,0.1l-0.2-0.1l-0.2,0l-0.2,0l-0.2,0.1l-0.2-0.1l0-0.1l0.3,0
						l0.3,0l0.1-0.1l-0.2-0.1l0-0.1l-0.2-0.1l0.1-0.1l0.2,0L42.7,24.2"/>
				</g>
				<g>
					<path class="st0" d="M42.7,24.8L42.7,24.8l-0.1-0.2l0.1-0.1l0-0.1l0-0.2l0-0.1l0.3,0l0.2,0.1l0.1,0l0.1,0.1l0.2,0l0,0.1l0.2,0
						l0.2,0.1l-0.1,0.1l-0.2-0.1l-0.2,0l-0.1,0l-0.1,0.1l-0.1,0L43,24.7l-0.1,0L42.8,25L42.7,24.8L42.7,24.8"/>
				</g>
				<g>
					<path class="st0" d="M128.8,6.6l0.4-0.1v0.2l-0.4,0L128.8,6.6"/>
				</g>
				<g>
					<path class="st0" d="M84.2,15.1L84,15.3l-0.3,0.1l-0.3,0.4l0.3,0.3l0,0.2l0.4,0.4l0,0l-0.4,0.2l-0.3-0.2l-1.4-0.5l-0.8-0.1
						l-1.1-0.6l0.3-0.1l0.3-0.3L80.3,15l0.5-0.2l-0.3,0.1l0-0.2l0.2-0.1l0.4-0.1L81,14.2l0.1-0.3l-1.6-0.4l-0.1-0.1l-0.3-0.1
						l0.1-0.1L78.9,13l-0.7,0.1l-0.1-0.4l0.4-0.1l-0.1-0.1l-0.4-0.2l-0.2-0.2l0.1-0.1l0-0.2L77,11.7l-0.3-0.4l0.1-0.1l-0.1-0.3
						l0.6-0.4L77,10.2l1.2-0.8l-0.5-0.2l0.1-0.2l-0.3-0.3l0.2-0.3L77.3,8l0.3-0.3l-0.5-0.2l0.1-0.2L78,7.1L78.4,7l0.6,0.2l0.9,0.1
						l1.6,0.6l0,0.2l-0.4,0.2l-0.6,0.1l-1.8-0.2l0.6,0.3l0,0.5L80,9.1l0-0.2l-0.2-0.1l0.2-0.1l0.8,0.2l0.3-0.1L81,8.5l0.8-0.3
						l0.6,0.1l0.2-0.2l-0.3-0.2l0.2-0.2l-0.3-0.2l1,0.1l0.2,0.2l-0.4,0L83,8l0.3,0.1L83.8,8l0.1-0.2l2.2-0.4l-0.3,0.2l0.4,0l0.2-0.1
						l0.6,0l0.5-0.1l0.4,0.2l0.4-0.2L88,7.1L88.1,7l1.5,0.2l1.2,0.4l0.2-0.2l-0.8-0.3L90.5,7l-0.2-0.4l0.6-0.3L91.1,6l0.3-0.1
						L92.3,6l0.1,0.2L92,6.5l0.2,0.1l0.1,0.2l-0.1,0.5l0.4,0.2l-0.1,0.2l-0.7,0.5l0.4,0.1l0.1-0.1L92.7,8l0.1-0.2l0.3-0.2l-0.2-0.2
						l0.2-0.2l-0.4,0l-0.1-0.2l0.3-0.3l-0.4-0.3l0.6-0.2L93,6l0.2,0l0.2,0.2l-0.1,0.3l0.4,0.1l-0.2-0.2L94,6.2l0.7,0l0.6,0.2L95,6
						l0-0.4l1.4-0.1l0.7,0l-0.3-0.2l0.4-0.2l0.4,0L98.4,5l2.2-0.1l0.8-0.2l0.6,0l0.1-0.1l0.3-0.1l0.8-0.1l0.6,0.1l-0.5,0.1l0.8,0.1
						l0.1,0.2l0.3-0.1l1,0l1.1,0.3l-0.1,0.2l-1.5,0.4l1.2,0.1l0.2,0.2l0.2-0.1l0.5-0.1l1.1,0.1l0.1,0.2l1.4,0.1l0-0.3l1.8,0.2
						l0.2,0.2l-0.2,0.1l0.4,0.3l0.5,0.1l0.3-0.4l0.6,0.2l0.6-0.1l0.7,0.1l0.3-0.1l0.6,0l-0.2-0.3l0.5-0.1l3.1,0.2l0.3,0.2l0.9,0.3
						l2.1,0l0.3,0.1l0,0.3l0.4,0.1l1.1-0.1l1.3,0l0.6,0.3l0.4-0.1l-0.3-0.2l0.2-0.2l3.3,0.4l0,1.4l-0.4,0.2l-0.4,0l0.3,0.2l0.3,0.6
						l-0.6-0.1l-1.8,0.5l-0.6,0.4l-0.5-0.2l-0.9,0.3l-0.2-0.1l-0.3,0.1l-0.5,0l-0.1,0.2L123,11l0,0.1l0.4,0.1l0,0.5l-0.3,0l-0.1,0.3
						l0.1,0.1l-0.6,0.2l-0.1,0.4l-0.5,0.1l-0.1,0.3l-0.5,0.3l-0.3-0.7l-0.2-0.8l0.2-0.5l0.3-0.2l0-0.2l0.5-0.1l1.2-0.8l0.6-0.3
						l0.3-0.5l-0.4,0l-0.2,0.3l-0.9,0.4l-0.3-0.4l-0.9,0.1l-0.9,0.6l0.3,0.2l-1.3,0.1l0-0.2l-0.5-0.1l-0.4,0.2l-1.1-0.1l-1.1,0.1
						l-2.4,1.5l0.5,0l0.2,0.2l0.3,0.1l0.2-0.2l0.4,0l0.5,0.4l0,0.3l-0.3,0.3l0,0.4l-0.2,0.5l-1.8,1.7l-0.7,0.2l-0.2-0.2l-0.6,0.3v0
						l0-0.2l0.2,0l0-0.4l-0.1-0.3l0.3-0.1l0.4,0.1l0.2-0.3l0.3-0.5l0.2-0.3l-1.4,0.2l-0.1-0.3l-0.4-0.2l-0.6-0.1l-0.4-0.7l-0.2-0.3
						l-0.8-0.2l-0.9,0.1l-0.3,0.2l0.2,0.1l0,0.2l-0.2,0.1l-0.3,0.5l-0.5,0.2l-0.4-0.1l-0.4,0l-0.4-0.2l-0.5,0.2l-1.5,0.1l-0.5-0.3
						l-0.8,0l-0.3,0.1l-0.5-0.1l-0.1-0.3l-1.1-0.3l-0.4,0.4l0.1,0.2l-0.3,0.2L99,13.5l-1.7,0.5l-0.2-0.2l-0.4,0l-0.1-0.1l-0.2-0.1
						L96,13.4l-0.5,0.1L95,13.3l-0.2,0.2l-0.8-0.9l-0.4-0.3l0.1-0.1l-1.2,0.3l0-0.2l-0.4-0.1l-0.4,0.1L91.7,12L91.1,12l-0.3,0.1
						l-2.5,0.4l0.2,0.2l-0.3,0.1l0.1,0.1l-0.3,0.2l0.6,0.2l-0.1,0.2l-1.6-0.1l-0.4,0.1l-1.2-0.4l-0.5,0l-0.7,0.4l0,0.3l-0.4-0.2
						L83.4,14l0.1,0.1l-0.2,0.3l0.3,0.2l0.3,0l0.2,0.2l0,0.2L84.2,15.1L84.2,15.1"/>
				</g>
				<g>
					<path class="st0" d="M99.6,3.1l0.7-0.1l0.7,0.2l0.8,0.3l-0.1,0.3l-0.8,0l-1-0.1l-0.6-0.1l-0.3-0.2l-0.5-0.1L99.6,3.1"/>
				</g>
				<g>
					<path class="st0" d="M102.7,3.7l0.9,0.2l-0.1,0.1l-1.9,0.1l0.6-0.5l0.3,0L102.7,3.7"/>
				</g>
				<g>
					<path class="st0" d="M115.1,4.8l0.9,0l1.2,0.2l-0.3,0.3l-1.3,0l-0.6,0.1l-0.7-0.2l0.2-0.2L115.1,4.8"/>
				</g>
				<g>
					<path class="st0" d="M118.3,5.1l0.9,0.1l-0.4,0.1l-0.5,0l-0.6-0.1l0.1-0.1L118.3,5.1"/>
				</g>
				<g>
					<path class="st0" d="M115.4,5.8l0.3-0.1l0.4,0l0.5,0.1l0,0.1l-0.5,0L115.4,5.8L115.4,5.8"/>
				</g>
				<g>
					<path class="st0" d="M82.7,3.3l0.7-0.1l0.5,0L84,3.3l0.2-0.1l0.3-0.1L85,3.3l-0.1,0.1l-0.5,0l-0.3,0l0,0.1l-0.4,0.1l-0.4-0.1
						l0.2-0.1L82.7,3.3"/>
				</g>
				<g>
					<path class="st0" d="M75.1,12.3l-0.6,0l-0.4,0l0.1-0.2l0.5-0.1l0.4,0.1l0.2,0.1L75.1,12.3L75.1,12.3"/>
				</g>
				<g>
					<path class="st0" d="M85.7,5.6l0.8-0.3l-0.1-0.2L87.2,5l1.1-0.2l1.1-0.1l0.6-0.1l0.7,0L91,4.7l-0.2,0.1L89.5,5l-1.1,0.2
						l-1.1,0.3l-0.5,0.3l-0.5,0.3l0.1,0.3l0.7,0.3l-0.2,0l-1.1,0l-0.1-0.2l-0.6-0.1L85,6.2l0.4-0.1l0-0.2L86,5.7L85.7,5.6"/>
				</g>
				<g>
					<path class="st0" d="M116.5,12.5l0.1,0.3l0,0.3l0.1,0.3l0.3,0.6l-0.5-0.1l-0.2,0.5l0.3,0.4l0,0.2l-0.3-0.2l-0.2,0.3l-0.1-0.3
						l0-0.3l0-0.4l0.1-0.3l0-0.5l-0.2-0.3l0-0.5l0.3-0.2l-0.1-0.2l0.2,0L116.5,12.5"/>
				</g>
				<g>
					<path class="st0" d="M7.2,7.9l0,0.2l0.2,0.1L7.3,7.9L8.2,8l0.7,0.3L8.5,8.5L8,8.5l0,0.3L7.8,8.9l-0.3,0L7.2,8.8L6.8,8.7
						L6.7,8.5L6.4,8.5L6,8.5L5.8,8.4l0.1-0.1L5.4,8.4l0.2,0.2L5.4,8.7V7.3l0.8,0.3L7.2,7.9"/>
				</g>
				<g>
					<path class="st0" d="M5.9,6.6l-0.4,0V6.4l0,0l0.3,0l0.5,0.1l0,0L5.9,6.6"/>
				</g>
				<g>
					<path class="st0" d="M78.8,15.2L78.8,15.2l0.3,0l0.1,0l0,0.1l0.1,0l0,0l0.2,0.1l0.4,0l-0.1,0.1l-0.4,0.1L79,15.8l-0.2-0.1
						l0.1-0.2l-0.4-0.1l0.1-0.1L78.8,15.2L78.8,15.2"/>
				</g>
				<g>
					<path class="st0" d="M40.2,21.8l0.2,0l0.2,0l0,0.1l-0.4,0.1L40.2,21.8"/>
				</g>
				<g>
					<path class="st0" d="M40.6,21.7l0.3,0.2l-0.1,0.2l-0.1,0l0-0.2L40.6,21.7L40.6,21.7"/>
				</g>
				<g>
					<path class="st0" d="M40.4,22.3l0.1,0l0.1,0.3l0,0.2l-0.1,0l-0.1-0.2l-0.1-0.1L40.4,22.3"/>
				</g>
				<g>
					<path class="st0" d="M46.3,48.8l0.4-0.2l0.3,0.1l0.2-0.1l0.3,0.2l-0.1,0.1L46.9,49l-0.2-0.1L46.4,49L46.3,48.8"/>
				</g>
				<g>
					<path class="st0" d="M72.5,3.6l0.1-0.1l0.5,0l0.4,0.1l1.1,0.3L73.9,4l-0.2,0.3l-0.3,0.1l-0.2,0.3l-0.4,0l-0.7-0.2l0.3-0.1
						l-0.5-0.1l-0.7-0.3l-0.3-0.3l0.9-0.1L72,3.6L72.5,3.6"/>
				</g>
				<g>
					<path class="st0" d="M78,7.1l-0.6,0.1l-0.3,0L77.3,7l-0.4-0.1L76.3,7l-0.2,0.3l-0.3,0.2l-0.4-0.1l-0.4,0l-0.4-0.2l-0.2,0.1
						l-0.2,0l-0.1,0.2l-0.6-0.1l-0.1,0.2l-0.3,0l-0.2,0.2l-0.3,0.4L72,8.7l0.1,0.1L72,9l-0.3,0l-0.2,0.3l0,0.5l0.2,0.2l-0.1,0.4
						l-0.3,0.2l-0.2,0.2l-0.2-0.2L70.2,11L69.7,11l-0.5-0.2l-0.1-0.4L69,9.7l0.3-0.2l0.9-0.3l0.7-0.4l0.6-0.5l0.8-0.7L73,7.4L73.9,7
						l0.8-0.2l0.6,0l0.5-0.3l0.6,0L77,6.5l1.1,0.3l-0.4,0.1L78,7.1"/>
				</g>
				<g>
					<path class="st0" d="M76.7,3.5l-0.5,0.2l-1,0l-1-0.1l-0.1-0.1l-0.5,0l-0.4-0.2l1.1-0.1l0.5,0.1l0.3-0.1l0.9,0.1L76.7,3.5"/>
				</g>
				<g>
					<path class="st0" d="M75.8,4.2l-0.8,0.1l-0.6-0.1l0.2-0.1l-0.2-0.1L75.2,4l0.1,0.1L75.8,4.2"/>
				</g>
				<g>
					<path class="st0" d="M51.2,2.6l1.2-0.2l1.2,0L54,2.3l1.2,0l2.7,0l2.2,0.3l-0.6,0.1l-3.2,0l1.4,0l1,0.1l0.7-0.1l0.3,0.1
						l-0.4,0.2l2.5-0.3l1,0.1l0.2,0.1l-2.7,0.4l0.8,0l-0.7,0.5l0,0.4L61,4.5l-1.1,0.1l0.6,0.2l0.1,0.3l-0.4,0l0.4,0.3l-0.8,0
						l0.4,0.1l-0.1,0.1l-1,0.1L59.6,6l0,0.2L59,6l-0.2,0.1l0.5,0.1l0.5,0.2l0.1,0.3l-0.6,0.1l-0.7-0.3l0.1,0.2l-0.4,0.2l1.4,0
						l-1.9,0.6L56,7.7l-0.5,0.4l-1,0.3l-1,0.2l-0.3,0.2l0,0.2l-0.2,0.2l-0.6,0.3l0.1,0.3l-0.3,0.6l-0.5,0l-0.5-0.3l-0.7,0l-0.3-0.2
						l-0.2-0.3l-0.8-0.7l0-0.3l-0.5-0.3L49,8l-0.2-0.1l0.3-0.4l0.7-0.3L49.8,7l-0.9,0.2l-0.4-0.1l0-0.2l0.1-0.2l1,0.1l-0.9-0.3
						l-0.3,0l-0.3-0.1L48.5,6L48,5.7l-0.4-0.4l-0.4-0.1l0-0.1l-0.9-0.2l-2.9-0.1l-0.6-0.2l1.6-0.1l-2.2-0.2l0-0.1l2.6-0.3l0.1-0.1
						l-0.9-0.1l0.3-0.1L45.9,3l-0.1-0.2l1.9-0.1l3.6,0.1L52,2.9l-0.8-0.2L51.2,2.6L51.2,2.6"/>
				</g>
				<g>
					<path class="st0" d="M110.3,34.1L110.3,34.1l0.3-0.2l0.2,0l0.1,0l0.1,0L111,34l-0.4,0.2l-0.3,0.1L110.3,34.1L110.3,34.1"/>
				</g>
				<g>
					<path class="st0" d="M72.9,40.8l0.2-0.2l0.1,0.1l0.1,0.1l0.2,0l0.2,0.1l0.2,0l0.3-0.2l0-1.3l0.1,0.1l0.2,0.3l0,0.2l0.1,0.1
						l0.2,0l0.2-0.2l0.2-0.1l0.1-0.2l0.2-0.1l0.1,0l0.2,0.1l0.3,0l0.2-0.1l0-0.1l0.1-0.2l0.2,0l0.1-0.1l0.1-0.2l0.3-0.3l0.5-0.3
						l0.1,0l0.2,0.1l0.1,0l0.2,0l0.2,0.5l0.1,0.2l-0.1,0.4l0,0.1l-0.2-0.1l-0.1,0l0,0.1l-0.1,0.1l0,0.1l0.2,0.2l0.2,0l0.1-0.2l0.3,0
						l-0.1,0.3l0,0.3l-0.1,0.2l-0.2,0.2l-0.1,0l-0.1,0.2l-0.1,0.2l-0.2,0.2l-0.4,0.4L77,42.3l-0.3,0.2l-0.4,0.1l-0.2,0l0,0.1
						L76,42.6l-0.2,0.1l-0.4-0.1l-0.2,0l-0.1,0l-0.4,0.1l-0.3,0.1L74.2,43l-0.2,0l-0.1-0.1l-0.1,0l-0.1-0.2l0,0l0-0.1l0-0.2
						l-0.1-0.2l0.1-0.1l0-0.3l-0.2-0.3l-0.2-0.3l0,0L72.9,40.8"/>
				</g>
				<g>
					<path class="st0" d="M77.3,41l-0.2-0.1L77,40.9l-0.2,0.1l-0.2,0.2l0.3,0.3l0.1,0l0.1-0.1l0.2-0.1l0.1-0.1l0.1-0.2L77.3,41"/>
				</g>
				<g>
					<path class="st0" d="M77.3,41l0.1,0.1l-0.1,0.2l-0.1,0.1L77,41.4L77,41.5l-0.1,0l-0.3-0.3l0.2-0.2l0.2-0.1l0.2-0.1L77.3,41"/>
				</g>
				<g>
					<path class="st0" d="M27,19.8l0.8-0.1l0,0.1l1.3,0.4l1,0l0-0.1l0.6,0l0.9,0.9l0.3,0.1l0.2-0.3l0.3,0l0.2,0.1l0.9,1.1l0.4,0.1
						l-0.2,0.5l0,0.8l0.6,1.1l0.8,0.1l0.7-0.2l0.2-0.1l0.2-0.6l0.6-0.2l0.6,0.1l0,0.2l-0.3,0.4l0.1,0.1l-0.1,0.4L37,24.6l-0.1,0
						l-0.2,0.2l-0.6,0l0,0.2l-0.2,0l0.3,0.4l-0.4,0l-0.2,0.4l0,0.1L35,25.5l-0.5-0.1l-0.4,0.2l-2.4-0.9l-0.1-0.2l-0.4-0.2L31,24
						l0.1,0l0-0.1l0.1-0.2L30,22.4l-0.4-0.2l0.1-0.2l-0.4-0.2l-0.1-0.2l-0.2,0l-0.4-0.5l-0.3-0.5l0-0.1l-0.6-0.2l-0.1,0.1l0.2,0.6
						l0.5,0.5l0.2,0.4l0.2,0.2l0.3,0.8l0.2,0l0.3,0.4l-0.2,0.1L29.4,23l-0.6-0.7l-0.1-0.2l-0.9-0.6l0.2,0l0.1-0.3l-0.7-0.8L27,19.8
						L27,19.8"/>
				</g>
				<g>
					<path class="st0" d="M47.5,41.4l0.2,0l0.3,0.3l0.1,0l0.4,0.2l0.3,0.2l0.2,0.2l-0.2,0.2l0.1,0.2l-0.1,0.2L48.4,43L48.2,43L48,43
						l-0.3-0.1l-0.2,0l-0.2-0.2l0-0.2l0.1-0.1l0-0.3l0.1-0.4L47.5,41.4"/>
				</g>
				<g>
					<path class="st0" d="M49,42.6l-0.1-0.2l0.2-0.2l-0.5-0.4l-0.8-0.5l-0.2,0l1.1-0.9l0.3-0.2l0-0.3l-0.2-0.2l-0.2,0.1l0.1-0.6
						l-0.3,0l-0.1,0l-0.1-0.6l-0.2-0.1l-0.1,0.1l-0.4-0.1l0.1-1.6l-0.2-0.2l0.1-0.2l-0.7,0l-0.1-0.4l0.1,0l-0.1-0.4l-0.6-0.2
						l-0.8-0.3L44.8,35l0-0.6l-0.6,0.2l-0.6,0.3l-0.6,0l0-0.5l-0.3,0.2l-0.3,0l-0.1-0.2l-0.2,0l0.1-0.1l-0.3-0.5l0.1-0.1l0-0.1
						l0.2-0.1l0.1-0.3l0-0.2l0.7-0.4l0.3,0l0.1-1.3l-0.2-0.1l0-0.2l0.3-0.2l-0.2,0l0-0.2l0.7,0l0.1-0.1l0.4,0.5l0.3-0.1l0.4-0.1
						l0-0.1l0.2-0.2l-0.3,0l-0.1-0.6l0.6,0l0.6-0.2l0.3-0.2l0.1,0.1l0,0.2l0.1,0.1l0.1,0.2l-0.1,0.1l-0.1,0.3l0.3,0.5l0.3-0.1
						l0.5-0.1l0.2,0l0-0.2l0.6,0.1l0.2-0.1l0,0.1l0.3-0.2l0.3-0.6l0.1,0l0.5,1.1l-0.3,0.3L50,31l0.6,0.1l0,0.3l0.3-0.2l1,0.3
						l0.2,0.2L52,31.9l0.4-0.1l0.7,0.2l0.5,0l0.5,0.3l0.7,0.5l0.4,0.1l0.2,0.6l-0.1,0.6l-1.3,1.6l0,0.6l-0.3,1.4l-0.3,0.4l-0.1,0.4
						L53,38.7l-0.1,0.2l-0.4,0l-1.2,0.4l-0.4,0.3l-0.3,0.3l-0.1,1l-0.2,0.2l-0.7,0.9l-0.2,0.2l-0.2,0.3L49,42.6L49,42.6"/>
				</g>
				<g>
					<path class="st0" d="M43.4,34.8l0.3,0l0.2,0l0.1-0.1l0.3-0.1l0.2-0.1l0.5-0.1l0,0.3l0,0.1l0,0.2l0.4,0.3l0.4,0.1l0.1,0.1
						l0.2,0.1l0.1,0.1l0.2,0l0.2,0.1l0,0.2l0.1,0.1l0,0.1l-0.1,0l0.1,0.4l0.7,0l-0.1,0.2l0,0.1l0.2,0.1l0.1,0.2l-0.1,0.3l-0.1,0.2
						l0,0.2L47.3,38l0-0.1L47,37.7l-0.3,0l-0.6,0.1l-0.2,0.3l0,0.2l-0.1,0.4l-0.1-0.1l-0.4,0l-0.1,0.3L45,38.6l-0.5-0.1l-0.3,0.3
						l-0.2,0l-0.1-0.5L43.7,38l0.1-0.3l-0.2-0.1l0-0.2l-0.2-0.2l0.2-0.4l-0.1-0.3l0.1-0.1l-0.1-0.1l0.1-0.2l0-0.3l0-0.2l0.1-0.1
						L43.4,34.8"/>
				</g>
				<g>
					<path class="st0" d="M43.3,32.5l-0.3,0l0,0.1l-0.3,0.1l-0.4,0.2l0,0.2l-0.1,0.1l0,0.2L42,33.4l0,0.1l-0.1,0.1l0.1,0.3l0.2,0.2
						l-0.1,0.1l0.2,0l0.1,0.2l0.3,0l0.3-0.2l0,0.5l0.2,0l0.2-0.1l0.3,0.6l-0.1,0.1l0,0.2l0,0.3l-0.1,0.2l0.1,0.1l-0.1,0.1l0.1,0.3
						l-0.2,0.4l-0.1,0.2l-0.2,0.1l-0.3-0.2l0-0.1l-0.7-0.3l-0.6-0.4L41.2,36L41,35.8l0.1-0.1l-0.3-0.5l-0.3-0.6l-0.3-0.7L40,33.7
						l-0.1-0.3l-0.3-0.2l-0.2-0.1l0.1-0.2l-0.2-0.3l0.1-0.2l0.3-0.2l0,0.1l-0.1,0.1l0,0.1l0.1,0l0.1,0l0.1,0.2l0.2-0.1l0.1-0.2
						l0.2-0.3l0.4-0.1l0.4-0.4l0.1-0.2l0-0.3l0.1,0l0.2,0.2l0.1,0.2l0.2,0.1l0.2,0.4l0.3,0l0.2-0.1l0.1,0.1l0.2,0l0.3,0.2L43,32.3
						l0.1,0L43.3,32.5"/>
				</g>
				<g>
					<path class="st0" d="M44.3,30.6L44.3,30.6l-0.1-0.2l-0.1-0.1L44,30.4l-0.7,0l0,0.2l0.2,0l0,0.1l-0.1,0l-0.2,0.1l0,0.2l0.2,0.1
						l0.1,0.2l0,0.1l-0.2,0.9l-0.2-0.2l-0.1,0l0.2-0.4L43,31.8l-0.2,0l-0.1-0.1l-0.2,0.1l-0.3,0L42,31.4l-0.2-0.1l-0.1-0.2L41.5,31
						l-0.1,0L41.2,31l-0.2-0.1L41,30.9l-0.3,0l-0.1-0.1l-0.1,0l-0.3-0.2l0-0.1l0.1,0l0-0.2l0.1-0.1l0.2,0l0.1-0.2l0.1-0.2l-0.1-0.1
						l0.1-0.2l-0.1-0.3l0.1-0.1l-0.1-0.3l-0.1-0.2l0-0.2l0.1,0l0.1-0.1l-0.1-0.2l0-0.1l0.2,0l0.3-0.2l0.1,0l0-0.1l0.1-0.3l0.2-0.2
						l0.2,0l0-0.1l0.3,0l0.3-0.2l0.1-0.1l0.2-0.2l0.1,0l0.1,0.1L42.8,27L42.6,27l-0.1,0.2l-0.1,0.1l-0.1,0.1l0,0.2l-0.1,0.2l0.2,0
						l0,0.2l0.1,0.1l0,0.1l0,0.1l0,0.1l0.1,0l0.1,0.1l0.4,0l0.2,0l0.2,0.3l0.1,0l0.2,0l0.2,0l0.1,0.1l-0.1,0.2L44,29.2l0,0.2
						l0.1,0.2l0.1,0.1l0,0.1L44,30l0.1,0.1l0.1,0.1L44.3,30.6"/>
				</g>
				<g>
					<path class="st0" d="M40.7,28L40.7,28l0,0.3l-0.1,0.1l-0.1,0l0,0.2l-0.1-0.1l-0.1-0.2l0.1-0.1l-0.1,0L40.3,28l-0.2-0.1l-0.2,0
						l-0.1,0.1l-0.1,0.1l-0.1,0l0,0.1l0.2,0.2l-0.1,0l0,0.1l-0.2,0l-0.1-0.2l0,0.1l-0.1,0l-0.1-0.1l-0.1,0l-0.1,0l-0.1,0l0,0.1
						l0-0.1l0-0.1l0-0.1l0-0.1l0.1,0l-0.1-0.1l0-0.1l0.1,0l0.1,0.1l0,0.1l0.1,0l0,0l0.1,0.1l0.2,0l0.1-0.1l0.2-0.1l0.1-0.1l0.2,0
						l0,0l0.2,0l0.2,0.1l0.1,0.1L40.7,28"/>
				</g>
				<g>
					<path class="st0" d="M38.9,27.7l-0.1,0l0,0.1l0.1,0.1l-0.1,0l0,0.1l0,0.1l0,0.1l-0.2-0.1L38.5,28l0-0.1l0-0.1l-0.1-0.1
						l-0.1-0.1l-0.1,0l0-0.1l-0.1-0.1l0,0.1L38,27.7L38,27.6l-0.1,0l0-0.1l0-0.1l0-0.1l-0.1,0l0.1-0.1l0.1,0l0.2,0.1l0.1,0l0.1,0
						l0.1,0.1l0.1,0l0.1-0.1l0.1,0.2l0.1,0.1L38.9,27.7"/>
				</g>
				<g>
					<path class="st0" d="M38.5,27.2L38.5,27.2l-0.2,0l-0.1-0.1l-0.1,0l-0.1,0l-0.2-0.1l-0.1,0l-0.1-0.1L37.6,27l-0.1-0.1l-0.1-0.1
						l-0.2-0.2l0-0.1l0.1,0.1l0,0l0.1,0l0-0.1l0.1,0l0-0.2l0.1,0l0.1,0l0.1-0.1l0.1,0.1l0,0l0.1,0l0.1-0.1l0-0.1l0,0l0-0.1l0,0
						l0.1,0.1l0.1,0l0.1,0l0.1,0l0.1,0l0,0l0.1,0l0,0l0,0.1l0,0.1l-0.1,0.1l0,0.1l0,0.2l0,0.1l0,0.2l-0.1,0l0,0.1l0,0.1l-0.1,0.1
						L38.5,27.2L38.5,27.2"/>
				</g>
				<g>
					<path class="st0" d="M38.7,25.9l-0.1,0l0,0l-0.1,0l-0.1,0l-0.1,0l-0.1,0l-0.1-0.1l0,0l0,0.1l0,0l0,0.1l-0.1,0.1l-0.1,0l0,0
						l-0.1-0.1l-0.1,0.1l-0.1,0l-0.1,0l0,0.2l-0.1,0l0,0.1l-0.1,0l-0.1-0.1l-0.1,0l0-0.1l0,0l-0.1,0l-0.2,0l0,0l-0.1-0.1l-0.1-0.1
						l-0.1,0l0.1-0.1l0-0.1l0-0.1l0.2-0.1l0.2-0.1l0,0l0.1-0.1l0.1,0l0,0l0.1,0l0.2,0l0.2,0l0.1,0l0,0l0.1,0l0.1,0l0.1,0l0.1,0
						l0.2,0l0.1,0l0.1,0.1l0.1,0.1L38.7,25.9L38.7,25.9"/>
				</g>
				<g>
					<path class="st0" d="M36.6,26.1l0.1,0l0.1,0.1l0.1,0.1l0,0l0.2,0l0.1,0l0,0l0,0.1l0,0.1l-0.2,0l-0.1,0l-0.1-0.1l-0.2,0
						l-0.1-0.1l0-0.1l0.1-0.1L36.6,26.1L36.6,26.1L36.6,26.1"/>
				</g>
				<g>
					<path class="st0" d="M35.6,26l0-0.1l0-0.1l0-0.1l0.2-0.3l0.4,0l0-0.1l-0.1,0l0-0.1L36,25.2l-0.1-0.1l0.2,0l0-0.2l0.3,0l0.3,0
						l0,0.3l0,0.4l0.1,0l0.1,0.1l0-0.1l0.1,0l-0.2,0.1l-0.2,0.1l0,0.1l0,0.1l-0.1,0.1l-0.1,0l0,0l-0.1,0l-0.1,0.1l0,0.1l-0.2-0.1
						l-0.2,0l-0.2-0.1L35.6,26"/>
				</g>
				<g>
					<path class="st0" d="M36.7,24.9L36.7,24.9L36.7,24.9l0.1,0l0.1-0.2l0.1,0l0,0.1l0.1,0l0,0.1L37,24.9l0,0.1l0,0.1l0,0l0,0.2
						l-0.1,0.1l-0.1,0l-0.1,0.1l-0.1,0l0-0.4L36.7,24.9"/>
				</g>
				<g>
					<path class="st0" d="M46.4,29.2L46.4,29.2l-0.1,0.2L46,29.6l-0.2,0.1l-0.1,0.1l-0.3-0.1l-0.3,0l-0.1,0l0.2,0.1l0,0.2l0,0.2
						l0.3,0l0,0.1l-0.2,0.1l0,0.1l-0.1,0.1l-0.3,0.1l-0.1,0.1l-0.3,0l-0.2-0.2l-0.1-0.3l-0.1-0.1L44,30l0.2-0.2l0-0.1l-0.1-0.1
						L44,29.5l0-0.2l0.1-0.1l0.1-0.2L44,28.9l-0.2,0l-0.2,0l-0.1,0l-0.2-0.3l-0.2,0l-0.4,0l-0.1-0.1l-0.1,0l0-0.1l0-0.1l0-0.1
						L42.3,28l0-0.2l-0.2,0l0.1-0.2l0-0.2l0.1-0.1l0.1-0.1l0.1-0.2l0.2-0.1l0,0.1l-0.2,0l0.1,0.2l0,0.2l-0.2,0.2l0.1,0.3l0.1,0
						l0.1-0.2l-0.1-0.1l0-0.3l0.4-0.1l0-0.2l0.1-0.1l0.1,0.2l0.2,0l0.2,0.2l0,0.1l0.3,0l0.4,0l0.2,0.2l0.3,0l0.2-0.1l0-0.1l0.4,0
						l0.4,0l-0.3,0.1l0.1,0.2l0.3,0l0.3,0.2l0.1,0.3l0.2,0l0.1,0.1l-0.3,0.2l0,0.1l0.1,0.1l-0.1,0.1l-0.2,0.1l0,0.2L46.2,29
						L46.4,29.2"/>
				</g>
				<g>
					<path class="st0" d="M47.9,30.4L47.9,30.4l-0.3,0l-0.1,0.1l-0.2,0.1l-0.1,0l0,0.1l-0.2,0l-0.2-0.2l0-0.2l-0.1-0.2l0.1-0.3
						l0.1-0.1l-0.1-0.2l-0.1-0.1l0-0.2l-0.1-0.1l-0.2,0L46.2,29l0.1-0.1l0-0.2l0.2-0.1l0.1-0.1l-0.1-0.1l0-0.1l0.3-0.2l0.2,0.1
						l0.2,0.2l0,0.2l0.1,0l0.2,0.2l0.1,0.1l-0.1,0.3l-0.2,0.1l0,0.1l-0.1,0.2l0.2,0.2l0.1,0l0,0.2L47.9,30.4"/>
				</g>
				<g>
					<path class="st0" d="M48.6,30.2l-0.2-0.1l-0.2,0l-0.1,0l0,0.1l0.1,0.1l0,0.1l-0.2,0l-0.2-0.3l0-0.2l-0.1,0l-0.2-0.2l0.1-0.2
						l0-0.1l0.2-0.1l0.1-0.3l0.4,0.1l0-0.1l0.3,0l0.4,0.1l-0.2,0.3l0,0.2l0.1,0.2l-0.1,0.1l0,0.2L48.6,30.2"/>
				</g>
				<g>
					<path class="st0" d="M49.5,29.6l-0.2,0.3l-0.1,0.3l-0.1,0.1l-0.2,0l0-0.1l-0.1,0l-0.1,0.1l-0.2-0.1l0.1-0.1l0-0.2l0.1-0.1
						l-0.1-0.2l0-0.2l0.2-0.3l0.1,0l0.3,0.1l0.4,0.3L49.5,29.6"/>
				</g>
				<g>
					<path class="st0" d="M69.4,14l0.2,0.1l0.5,0.1l-0.2,0.2l0,0.2l-0.1,0.1l-0.2,0l0,0.1l-0.3,0.2l0,0.2l0.2-0.1l0.1,0.2l0,0.1
						l0.1,0.1l-0.1,0.1l0.1,0.3l0.2,0l0,0.1l-0.3,0.2l-0.7-0.1l-0.5,0.1l0,0.2l-0.4,0l-0.4-0.2l-0.1,0.1l-0.6-0.2l-0.1-0.1l0.2-0.2
						l0.1-0.7l-0.4-0.4l-0.3-0.2l-0.5-0.1l0-0.3l0.4-0.1l0.6,0.1l-0.1-0.4L67,14l0.8-0.3l0.1-0.3l0.3-0.1l0,0.1l0.2,0l0.2,0.1
						l0.2,0.2l0.2,0l0.3,0.2L69.4,14L69.4,14"/>
				</g>
				<g>
					<path class="st0" d="M70.3,16.3l0.2-0.1l0.1,0.3l-0.1,0.3l-0.2-0.1l-0.1-0.2L70.3,16.3"/>
				</g>
				<g>
					<path class="st0" d="M41.4,31.1l0,0.3l-0.1,0.2L41,31.9L40.5,32l-0.2,0.3l-0.1,0.2l-0.2,0.1l-0.1-0.2l-0.1,0l-0.1,0l0-0.1
						l0.1-0.1l0-0.1l0.2-0.3l-0.1-0.2l-0.1,0.2l-0.2-0.2l0.1-0.1l-0.1-0.3l0.1-0.1l0.1-0.2l0.1-0.2l0-0.1l0.2-0.1l0.2-0.1l0.3,0.2
						l0.1,0l0.1,0.1l0.3,0l0.1-0.1l0.2,0.1L41.4,31.1"/>
				</g>
				<g>
					<path class="st0" d="M44.5,24.6l0.2,0l0.1,0.1l-0.1,0.1l-0.3,0l-0.2,0l0-0.1l0-0.1L44.5,24.6"/>
				</g>
				<g>
					<path class="st0" d="M40.6,24.7l0.2,0l0.2,0.1l0.1,0.1l-0.2,0l-0.1,0.1l-0.2-0.1l-0.2-0.1l0-0.1L40.6,24.7L40.6,24.7"/>
				</g>
				<g>
					<path class="st0" d="M39,23l0.3,0l0.3,0l0.3,0.1l0.1,0.1l0.3,0l0.1,0.1l0.3,0.2l0.2,0.2l0.1,0l0.2,0.1l0,0.1l0.3,0l0.3,0.1
						l0,0.1l-0.2,0l-0.2,0l-0.2,0l-0.5,0l0.2-0.2l-0.1-0.1l-0.2,0l-0.1-0.1l-0.1-0.2l-0.2,0l-0.3-0.1l-0.1-0.1l-0.4-0.1l-0.1-0.1
						l0.1-0.1l-0.3,0l-0.2,0.2l-0.1,0l0,0.1l-0.2,0l-0.1,0l0.2-0.1l0.1-0.1l0.2-0.1l0.2-0.1L39,23L39,23"/>
				</g>
				<g>
					<path class="st0" d="M78,38.7l-0.2,0l-0.1,0l-0.2-0.1l-0.1,0l-0.2-0.2L77,38.4l-0.1-0.2l0-0.1l-0.1,0l-0.4-0.4l-0.1-0.2
						l-0.1-0.1L76,37.1l0.4,0l0.1,0l0.1,0l0.2-0.2l0.3-0.3l0.1,0l0-0.1l0.2-0.1l0.3,0l0,0.1l0.3,0l0.2,0.1l0.1,0.1l0.2,0l0.2,0.1
						l0,0.4l-0.1,0.2l0,0.3l0.1,0.1l0,0.2l-0.1,0l-0.1,0.2L78,38.7"/>
				</g>
				<g>
					<path class="st0" d="M77.4,38.6L77,38.9l-0.3,0.3l-0.1,0.2l-0.1,0.1l-0.2,0l-0.1,0.2l0,0.1l-0.2,0.1l-0.3,0l-0.2-0.1l-0.1,0
						l-0.2,0.1l-0.1,0.2l-0.2,0.1l-0.2,0.2l-0.2,0l-0.1-0.1l0-0.2l-0.2-0.3l-0.1-0.1l0-1l0.3,0l0-1.2l0.3,0l0.5-0.1l0.1,0.1l0.2-0.1
						l0.1,0l0.2-0.1l0.1,0l0.1,0.3l0.1,0.1l0.1,0.2l0.4,0.4l0.1,0l0,0.1l0.1,0.2l0.3,0.1L77.4,38.6"/>
				</g>
				<g>
					<path class="st0" d="M74.2,39.5l0,1.3L73.9,41l-0.2,0l-0.2-0.1l-0.2,0l-0.1-0.1l-0.1-0.1l-0.2,0.2l-0.3-0.3l-0.1-0.3L72.5,40
						l-0.1-0.2l-0.1-0.5l0-0.4l0-0.2l-0.1-0.1l-0.2-0.3l-0.2-0.4l-0.1-0.2l-0.3-0.3l0-0.3l0.2-0.1l0.2-0.1l0.2,0l0.2,0.2l0.1,0
						l1.4,0l0.2,0.2l0.8,0l0.6-0.1l0.3-0.1l0.2,0l0.1,0.1l0,0l-0.2,0.1l-0.1,0l-0.2,0.1l-0.1-0.1l-0.5,0.1l-0.3,0l0,1.2l-0.3,0
						L74.2,39.5"/>
				</g>
				<g>
					<path class="st0" d="M61.6,26.3l-0.1-0.3l-0.2-0.1l0.2-0.1l0.2-0.2l0.1-0.2l0.1-0.1l0.2,0l0.2-0.1l0.2,0l0.2,0.1l0.2,0.1
						l0.2,0.3l0.2,0.2l0,0.2l0.1,0.2l0.1,0.1l0,0.1l0,0.1l0,0l-0.2,0l0,0l-0.1,0l-0.2-0.1l-0.2,0l-0.6,0l-0.1,0l-0.1,0l-0.2,0.1
						l-0.1-0.3l0.3,0l0.1,0l0.1,0l0.1-0.1l0.1,0.1l0.1,0l0.1-0.1l-0.1-0.1l-0.1,0.1l-0.1,0l-0.1-0.1l-0.1,0l-0.1,0.1L61.6,26.3"/>
				</g>
				<g>
					<path class="st0" d="M63.4,26.7l0-0.1l0-0.1l-0.1-0.1l-0.1-0.2l0-0.2l0.1-0.1l0.1-0.2l0.1,0l0.2,0.1l0.2-0.1l0.1,0l0.1-0.1
						l1.4,0l0.1-0.2l-0.1,0l-0.2-1.5l-0.2-1.5l0.5,0l1.2,0.8l1.2,0.8l0.1,0.2l0.2,0.1l0.2,0.1l0,0.2l0.4,0l0,0.8l-0.2,0.2l0,0.2
						l-0.3,0.1l-0.5,0l-0.1,0.1l-0.2,0l-0.2,0l-0.1-0.1l-0.2,0L66.6,26l-0.1,0.1l-0.3,0.2l0,0.1l-0.1,0.1l-0.2,0l-0.1,0.1l-0.1,0.2
						L65.5,27l0,0.1l-0.1,0.1l0,0.2l-0.1,0.1l-0.1,0l-0.1-0.1l-0.1,0l-0.1,0L65,27.5l-0.3,0l-0.1-0.1l0,0l-0.1-0.1l0-0.1l0,0l-0.1,0
						l0-0.1l0.1-0.1l-0.1-0.1l0-0.1l-0.1-0.1l-0.1,0l-0.1,0l-0.1,0l-0.1,0.1l-0.1,0l-0.1-0.1l-0.1,0l-0.1,0l-0.1,0L63.4,26.7"/>
				</g>
				<g>
					<path class="st0" d="M61.4,23.8l0.1-0.1l1.3,0l-0.1-0.5l0.1-0.2l0.3,0l0-0.9l1.1,0l0-0.5l1.3,0.8l-0.5,0l0.2,1.5l0.2,1.5l0.1,0
						l-0.1,0.2l-1.4,0L64,25.8l-0.1,0l-0.2,0.1l-0.2-0.1l-0.1,0l-0.1,0.2L63.1,26l-0.2-0.2l-0.2-0.3l-0.2-0.1l-0.2-0.1l-0.2,0
						l-0.2,0.1l-0.2,0l-0.1,0.1l0-0.2l0.1-0.2l0-0.3l0-0.3l0-0.2l0-0.2l-0.1-0.2L61.4,23.8"/>
				</g>
				<g>
					<path class="st0" d="M68.2,28.9l-0.3,0l-0.1-0.2l0-0.8l-0.1-0.1l0-0.2l-0.1-0.1l-0.1-0.1l0-0.2l0.1,0l0.1-0.2l0.2,0l0.1-0.1
						l0.1-0.1l0.1,0l0.3,0.2l0,0.1l0.1,0.2l-0.1,0.1l0,0.1l-0.2,0.2l-0.1,0.1l-0.1,0.2l0,0.2L68.2,28.9"/>
				</g>
				<g>
					<path class="st0" d="M72.4,23.1l0.1,0.5l0.1,0.1l0,0.1l0.1,0.1l-0.1,0.1l-0.1,0.7l0,0.4l-0.4,0.3L72,26.1l0.1,0.1l0,0.2l0.2,0
						l0,0.2l-0.1,0l0,0.1l-0.1,0l-0.2-0.4l-0.1,0l-0.3,0.2l-0.3-0.1l-0.2,0l-0.1,0l-0.2,0l-0.2,0.1l-0.2,0L70,26.4l-0.2,0.1l-0.2,0
						l-0.1-0.1l-0.3-0.1l-0.4,0l-0.1,0.1l0,0.2l-0.1,0.1l0,0.3l-0.3-0.2l-0.1,0l-0.1,0.1l0-0.2l-0.4-0.1l0-0.2l-0.2-0.2l0-0.2l0-0.2
						l0.2,0l0.1-0.1l0.5,0l0.3-0.1l0-0.2l0.2-0.2l0-0.8l0.5-0.2l1-0.7l1.2-0.7l0.5,0.1l0.2,0.2L72.4,23.1"/>
				</g>
				<g>
					<path class="st0" d="M68.2,28.9l0-0.6l0-0.2l0.1-0.2l0.1-0.1l0.2-0.2l0-0.1l0.1-0.1l-0.1-0.2l0-0.1l0-0.3l0.1-0.1l0-0.2
						l0.1-0.1l0.4,0l0.3,0.1l0.1,0.1l0.2,0l0.2-0.1l0.4,0.2l0.2,0l0.2-0.1l0.2,0l0.1,0l0.2,0l0.3,0.1l0.3-0.2l0.1,0l0.2,0.4l0.1,0
						l0.1,0.1l0,0.1l0,0.1L72,27.3l-0.1,0.2l0,0.2l-0.1,0.1L71.7,28l-0.2,0.1l-0.1,0.2l-0.1,0.1l0,0.1l-0.2,0.1l-0.2-0.1l-0.1,0
						l-0.2,0.2l-0.1,0l-0.2,0.3l-0.1,0.2l-0.4,0.1l-0.1,0l-0.1,0.1l-0.3,0l-0.2-0.2L69,29.1l-0.2-0.2l-0.3,0L68.2,28.9"/>
				</g>
				<g>
					<path class="st0" d="M72.3,26.6l0.1,0.2l0,0.2l0,0.2l0.2,0.3l-0.2,0l-0.1,0l-0.2,0l-0.1,0.2l0.2,0.2l0.1,0.1l0,0.1l0.1,0.2
						l-0.1,0.1l-0.2,0.3l-0.1,0.1l0,0.3l0,0.1l0,0.1l0.2,0.2l0,0.1l0.1,0.2l0.2,0.1l0,0.2l0,0.1l0,0.2l-0.3-0.1l-0.3-0.1l-0.4,0l0,0
						l-0.2,0l-0.2,0l-0.2,0l-0.6,0l0.1-0.3l-0.1-0.2l-0.2-0.1l-0.1-0.2l-0.1,0l0-0.1l0.1-0.2l0.2-0.3l0.1,0l0.2-0.2l0.1,0l0.2,0.1
						l0.2-0.1l0-0.1l0.1-0.1l0.1-0.2l0.2-0.1l0.1-0.2l0.1-0.1l0-0.2l0.1-0.2l0.3-0.3l0-0.1l0-0.1l-0.1-0.1L72.3,26.6L72.3,26.6"/>
				</g>
				<g>
					<path class="st0" d="M67.6,27.2l0,0.2l0.1,0.1l0.1,0.1l0,0.2l0.1,0.1l0,0.8l0.1,0.2L67.7,29l-0.1-0.1l-0.1-0.2l0-0.2l0.1-0.3
						L67.5,28l0-0.3l0-0.2l-0.1-0.2l0-0.1L67.6,27.2"/>
				</g>
				<g>
					<path class="st0" d="M67.3,27.2l0,0.1l0.1,0.2l0,0.2l0,0.3l0.1,0.1l-0.1,0.3l0,0.2l0.1,0.2l0.1,0.1l-0.5,0.2L67,29.3l-0.3,0.1
						l-0.3-0.1l0-0.1l-0.1-0.3l0.1-0.4l0.1-0.3l-0.1-0.5l0-0.3l0-0.2l0.6,0l0.2,0l0.1-0.1L67.3,27.2"/>
				</g>
				<g>
					<path class="st0" d="M64.6,27.5L64.6,27.5l0.1,0l0.3,0l0.1-0.1l0.1,0l0.1,0l0.1,0.1l0.1,0l0.1-0.1l0.2,0.1l0.1,0.1l0.2,0.1
						l0.1-0.1l0.2,0l0.2,0.1l0.1,0.5l-0.1,0.3l-0.1,0.4l0.1,0.3l0,0.1l-0.2,0l-0.2-0.1l-0.2,0l-0.4,0.1l-0.2,0.1l-0.3,0.1l-0.1,0
						l0-0.3l0,0l0-0.1l-0.1-0.1l-0.1,0l-0.1-0.1l0.1-0.2l0-0.2l0-0.1l0.1,0l0-0.2l0-0.1l0,0l0.1,0l-0.1-0.3l-0.1-0.1L64.6,27.5
						L64.6,27.5"/>
				</g>
				<g>
					<path class="st0" d="M62.6,26.7l0.2,0l0.2,0.1l0.1,0l0,0l0.2,0l0,0l0,0.1l0.1,0l0.1,0l0.1,0l0.1,0.1l0.1,0l0.1-0.1l0.1,0l0.1,0
						l0.1,0l0.1,0.1l0,0.1l0.1,0.1l-0.1,0.1l0,0.1l0.1,0l0,0l0,0.1l0.1,0.1l-0.1,0l0,0.1l0.1,0.1l0.1,0.3l-0.1,0l0,0l0,0.1l0,0.2
						l-0.1,0l-0.1,0l-0.1,0.1l-0.1,0l-0.1-0.1l0-0.1L64,28.1l-0.1,0l-0.1,0l-0.1,0l0-0.1l-0.1-0.1l0-0.1l-0.1-0.1l-0.1-0.1l-0.3,0
						l-0.1,0.1l-0.1,0L63,27.7l0,0.1l-0.2,0.2l-0.2-0.2l-0.1-0.1l-0.1,0l-0.1-0.1l0-0.2l-0.1-0.1l-0.1-0.1l0.2-0.2l0.1,0l0.1-0.1
						l0.1,0l0.1,0l0-0.1l0,0L62.6,26.7"/>
				</g>
				<g>
					<path class="st0" d="M61.6,26.8l0.2-0.1l0.1,0l0.1,0l0.6,0l0,0.1l0,0l0,0.1l-0.1,0l-0.1,0l-0.1,0.1l-0.1,0l-0.2,0.2l-0.2-0.1
						l-0.1,0L61.7,27l0-0.1L61.6,26.8L61.6,26.8"/>
				</g>
				<g>
					<path class="st0" d="M64.4,28.4l0,0.1l0,0.2l-0.1,0.2l0.1,0.1l0.1,0l0.1,0.1l0,0.1l0,0l0,0.3l-0.1,0l-0.4-0.2l-0.3-0.3
						l-0.3-0.2l-0.2-0.2l0.1-0.1l0-0.1l0.2-0.2l0.2-0.2l0.1,0l0.1,0l0.1,0.2l0,0.1l0.1,0.1l0.1,0L64.4,28.4L64.4,28.4"/>
				</g>
				<g>
					<path class="st0" d="M62.8,27.9l0.2-0.2l0-0.1l0.1-0.1l0.1,0l0.1-0.1l0.3,0l0.1,0.1l0.1,0.1l0,0.1l0.1,0.1l0,0.1l0.1,0
						l-0.2,0.2l-0.2,0.2l0,0.1l-0.1,0.1l-0.1,0L63,28.5l-0.2-0.2l-0.1-0.1L62.8,27.9"/>
				</g>
				<g>
					<path class="st0" d="M65.5,27.4l0-0.2l0.1-0.1l0-0.1l0.3-0.3l0.1-0.2l0.1-0.1l0.2,0l0.1-0.1l0-0.1l0.3-0.2l0.1-0.1l0.3-0.1
						l0.2,0l0.1,0.1l0.2,0l0,0.2l0,0.2l0.2,0.2l0,0.2l0.4,0.1l0,0.2L68,27l-0.2,0l-0.1,0.2l-0.1,0l-0.3,0l-0.2,0l-0.1,0.1l-0.2,0
						l-0.6,0l0,0.2l0,0.3l-0.2-0.1l-0.2,0l-0.1,0.1l-0.2-0.1l-0.1-0.1L65.5,27.4"/>
				</g>
				<g>
					<path class="st0" d="M76.7,29.2l-0.1,0l-0.2,0l-0.3,0l-0.1,0L76,29.3l-0.1,0l-0.1-0.1l-0.4,0.2l-0.2,0l0,0L75,29.6l-0.3-0.1
						l-0.3,0l-0.2-0.1L74,29.3l-0.2,0.1l-0.1,0.2l0,0.2l-0.2,0l-0.2-0.1L73,29.9l-0.2,0.3l0-0.1l0-0.2l-0.2-0.1l-0.1-0.2l0-0.1
						l-0.2-0.2l0-0.1l0-0.1l0-0.3l0.1-0.1l0.2-0.3l0.3,0l0.1-0.1l0.1,0l0.1,0.1l0.4-0.1l0.1-0.1l0.2-0.1l0-0.1l0.1,0l0.3,0l0.3-0.2
						l0.2-0.4l0.2-0.1l0.2-0.1l0,0.1l0.2,0.2l0,0.1l-0.1,0.1l0,0.1l0.1,0.1l0.3,0.2l0.2,0.1l0,0.1l0.2,0.2l0.1,0.1l0.1,0.2l0.3,0.1
						L76.7,29.2"/>
				</g>
				<g>
					<path class="st0" d="M73.7,29.8l0,0.2l-0.1,0.2l-0.1,0.2l0,0.3l0,0.2L73.4,31l0,0.1l0,0.1l-0.2,0.2L73,31.6l-0.1,0.3l0,0.3
						l-0.1,0.1l-0.2,0.2l-0.2,0.2l-0.1-0.1l0-0.1l-0.2,0l-0.1,0.1l-0.1,0l-0.1-0.1l-0.1,0.1l-0.1,0.1l-0.3-0.4l0.3-0.2L71.3,32
						l0.1-0.1l0.2,0l0-0.2l0.2,0.2l0.3,0l0.1-0.2l0-0.2l0-0.3L72.1,31l0.1-0.4l-0.1-0.1l-0.3,0l-0.1-0.2l0-0.2l0.4,0l0.3,0.1
						l0.3,0.1l0-0.2l0.2-0.3l0.2-0.2l0.2,0.1L73.7,29.8"/>
				</g>
				<g>
					<path class="st0" d="M71.2,30.2l0.2,0l0.2,0l0.2,0l0,0l0,0.2l0.1,0.2l0.3,0l0.1,0.1L72.1,31l0.2,0.2l0,0.3l0,0.2l-0.1,0.2
						l-0.3,0l-0.2-0.2l0,0.2l-0.2,0L71.3,32l0.1,0.2l-0.3,0.2L70.8,32l-0.2-0.3l-0.2-0.4l0-0.1l0.1-0.1l0.1-0.3l0.1-0.3l0.1,0l0.5,0
						L71.2,30.2"/>
				</g>
				<g>
					<path class="st0" d="M70.6,30.2l0.6,0l0,0.4l-0.5,0l-0.1,0l-0.1-0.1L70.6,30.2"/>
				</g>
				<g>
					<path class="st0" d="M77.9,33.9L78,34l0.1,0.1l0.2,0.1l0.2,0.1l0.2,0.2l0.1,0.3l-0.1,0.1L78.7,35l0.1,0.3l-0.1,0.1l-0.1,0.3
						l0.2,0.1l-1,0.3l0,0.2l-0.3,0l-0.2,0.1l0,0.1l-0.1,0L76.8,37l-0.2,0.2l-0.1,0l-0.1,0l-0.4,0l-0.1,0l0,0L75.8,37l-0.2,0L75.3,37
						l-0.2-0.2l-0.2-0.3l0-1.1l0.7,0l0-0.1l0.1-0.1L75.5,35l0-0.2l0-0.1l0.1,0l0,0.1l0.2,0l0.2,0l0.1,0.2l0.3,0l0.2-0.1l0.1,0.2
						l0.3,0l0.1,0.1l0.1,0.2l0.3,0l0-0.4l-0.1,0.1l-0.2-0.1l-0.1-0.1l0-0.3l0.1-0.4l-0.1-0.2l0.1-0.2l0.1,0l0.5-0.1L77.9,33.9"/>
				</g>
				<g>
					<path class="st0" d="M78.6,34.2l0.3,0.1l0.1,0.1l0.1,0.2l0.1,0.5l-0.1,0.3l0.1,0.4l0.1,0l0.1,0.1l0.1,0.2l0,0.4l-0.1,0.1
						l-0.1,0.2l-0.2-0.2l0-0.2l0.1-0.2l0-0.1L79,36l-0.1,0l-0.2-0.2l-0.2-0.1l0.1-0.3l0.1-0.1L78.7,35l0.1-0.3l0.1-0.1l-0.1-0.3
						L78.6,34.2"/>
				</g>
				<g>
					<path class="st0" d="M79.2,35l0.3,0l0.4,0.1l0.1,0l0.2,0l0.1-0.1l0.2,0l0.4-0.1l0.3-0.2h0l0,0l0.1,0.2l0,0.3l0,0.3l0,0.5
						l0.1,0.2l-0.1,0.2l-0.1,0.2l-0.2,0.2l-0.3,0.1l-0.4,0.2l-0.4,0.4l-0.1,0.1l-0.2,0.2l-0.1,0.1l0,0.2l0.2,0.3l0.1,0.2l0,0.1
						l0.1,0l0,0.3l-0.1,0.2l0.1,0.1l-0.1,0.1l-0.1,0.1l-0.3,0.1l-0.4,0.2l-0.2,0.1l0,0.1l0.1,0l0,0.2l-0.3,0l0-0.2l-0.1-0.2l0-0.1
						l0.1-0.4l-0.1-0.2L78,38.7l0.4-0.4l0.1-0.2l0.1,0l0-0.2l-0.1-0.1l0-0.3l0.1-0.2l0-0.4l-0.2-0.1l-0.2,0l-0.1-0.1L78,36.5l-0.3,0
						l0-0.1l0-0.2l1-0.3l0.2,0.2l0.1,0l0.1,0.1l0,0.1l-0.1,0.2l0,0.2l0.2,0.2l0.1-0.2l0.1-0.1l0-0.4l-0.1-0.2l-0.1-0.1l-0.1,0
						l-0.1-0.4L79.2,35"/>
				</g>
				<g>
					<path class="st0" d="M78.3,40.2l-0.1,0.2l-0.2,0l-0.2-0.2l0-0.1L78,40l0-0.1l0.1,0l0.2,0.1l0.1,0.2L78.3,40.2"/>
				</g>
				<g>
					<path class="st0" d="M71.8,32.7l-0.1,0.1l-0.1,0.1l0,0.1l-0.1,0l-0.1-0.3l0.1-0.1l0.1-0.1L71.8,32.7"/>
				</g>
				<g>
					<path class="st0" d="M71.6,33.1l0.1,0l0.1,0l0.1,0l1,0l0.1,0.3l0.1,0.2l0.1,0.1l0.1,0.2l0.2,0l0.1,0l0.2,0l0.1-0.1l0.1-0.2
						l0.2,0l0-0.1l0.2,0l0,0.1l0.4,0l0,0.2l0.1,0.1l-0.1,0.2l0,0.2l0.1,0.1l0,0.4l0.1,0l0.1,0l0.2-0.1l0.2,0l0,0.1l0,0.2l0.1,0.2
						l-0.1,0.1l0,0.1l-0.7,0l0,1.1l0.2,0.3l0.2,0.2l-0.6,0.1l-0.8,0L73.6,37l-1.4,0l-0.1,0l-0.2-0.2l-0.2,0l-0.2,0.1L71.4,37l0-0.2
						l0-0.3l0.1-0.3l0-0.1l0.1-0.3l0.1-0.1l0.2-0.2l0.1-0.2l0-0.3l0-0.2l-0.1-0.1l-0.1-0.2l-0.1-0.2l0-0.1l0.1-0.1l-0.1-0.3
						l-0.1-0.2L71.6,33.1L71.6,33.1"/>
				</g>
				<g>
					<path class="st0" d="M77.8,31.8l0,0.1l0.1,0.1l0,0.1l-0.1,0.1l-0.1,0.2l-0.1,0.1l-0.1,0l0-0.4L77.3,32l0.2,0l0.1-0.2L77.8,31.8
						"/>
				</g>
				<g>
					<path class="st0" d="M79.6,19.8l-0.1,0.1l-0.1,0l-0.1,0.2l0.1,0l-0.1,0l0,0.1l0.2,0l0,0.1l-0.2,0.5l0-0.1l-0.2-0.5l0,0l0,0
						l0.1-0.1l0,0l0.1-0.2l0.1-0.3l0-0.1l0,0l0.1,0l0-0.1l0.1,0L79.6,19.8L79.6,19.8L79.6,19.8"/>
				</g>
				<g>
					<path class="st0" d="M79.6,19.6L79.6,19.6l-0.1,0.1l-0.1,0l0.1-0.3l0.2-0.2l0,0l0.2,0l0.1,0.1l-0.2,0.1L79.6,19.6"/>
				</g>
				<g>
					<path class="st0" d="M84.4,35.3l0.1,0.1l0.1,0.2l0.1,0.4l0.1,0.2l0,0.2l-0.1,0.1l-0.1-0.2l-0.1,0.1l0.1,0.3l0,0.1l-0.1,0.1
						l0,0.3l-0.1,0.4L84,38.1l-0.2,0.7l-0.1,0.5l-0.2,0.4l-0.3,0.1l-0.3,0.1l-0.2-0.1l-0.3-0.1l-0.1-0.2l0-0.3l-0.1-0.3l0-0.2
						l0.1-0.2l0.2-0.1l0-0.1l0.2-0.3l0-0.2l-0.1-0.2l-0.1-0.2l0-0.3l0.1-0.2l0-0.2l0.2,0l0.2-0.1l0.1-0.1l0.2,0l0.2-0.2l0.3-0.2
						l0.1-0.2l0-0.1l0.1,0l0.2-0.2l0-0.2l0.1-0.2L84.4,35.3"/>
				</g>
				<g>
					<path class="st0" d="M79.5,20.2l-0.2,0l0-0.1L79.5,20.2l-0.1-0.1l0.1-0.2l0.1,0l0,0.2L79.5,20.2"/>
				</g>
				<g>
					<path class="st0" d="M61.6,26.3l0.4,0l0.1-0.1l0.1,0l0.1,0.1l0.1,0l0.1-0.1l0.1,0.1l-0.1,0.1l-0.1,0l-0.1-0.1L62,26.4l-0.1,0
						l-0.1,0l-0.3,0L61.6,26.3"/>
				</g>
				<g>
					<path class="st0" d="M70.6,20.6L70.4,20l-0.2-0.1l0-0.1l-0.3-0.2l0-0.3l0.2-0.2l0.1-0.3l-0.1-0.3l0.1-0.2l0.4-0.1l0.2,0l0,0.2
						l0.3-0.1l0,0.1L71,18.5l0,0.2l0.1,0.1l0,0.3l-0.2,0.2l0.1,0.2l0.2,0l0.1,0.2l0.1,0.1l0,0.3L71.1,20L71,20.1l-0.2,0.1l0,0.1
						l0,0.1L70.6,20.6"/>
				</g>
				<g>
					<path class="st0" d="M64.3,21.6L64.3,21.6L64.3,21.6l0-0.5l0.6-0.3l0.3-0.1l0.3-0.1l0.1-0.2l0.4-0.1l0-0.3l0.2,0l0.2-0.1
						l0.5-0.1l0.1-0.1l-0.1-0.1l-0.1-0.4l0-0.2l-0.1-0.2l0.3-0.2l0.4-0.1l0.2-0.1l0.3-0.1l0.6-0.1l0.6,0l0.2,0.1l0.3-0.1l0.4,0
						l0.1,0.1l0.2,0l-0.1,0.2l0.1,0.3l-0.1,0.3l-0.2,0.2l0,0.3l0.3,0.2l0,0.1l0.2,0.1l0.1,0.6l0.1,0.3l0,0.2l-0.1,0.3l0,0.2l0,0.2
						l0,0.2L70.5,22l0.2,0.3l0,0.1l0.1,0.2l0.2-0.1l0.3,0.2l0.2,0.2l-1.2,0.7l-1,0.7l-0.5,0.2l-0.4,0l0-0.2l-0.2-0.1L68,24.1
						l-0.1-0.2l-1.2-0.8l-1.2-0.8L64.3,21.6"/>
				</g>
				<g>
					<path class="st0" d="M79.5,19.9l0.1-0.1l0.4,0.1l0.7-0.4l0.1,0.4L80.7,20L80,20.2l0.3,0.3l-0.1,0.1l-0.1,0.1l-0.3,0l-0.1,0.1
						L79.7,21l-0.4-0.1l0,0l0.2-0.5l0-0.1l0.1-0.1L79.5,19.9"/>
				</g>
				<g>
					<path class="st0" d="M85.1,22.7L85.1,22.7L85.1,22.7l0.3,0l0.3,0l0.2,0l0.2-0.2l0.3-0.2l0.2-0.2l0.1,0.1l0,0.3l-0.2,0l0,0.2
						l0.1,0l-0.2,0.1l0,0.1l-0.1,0.1l0,0.1l-0.1,0.1l-1-0.2L85.1,22.7L85.1,22.7"/>
				</g>
				<g>
					<path class="st0" d="M84.8,22.5l0-0.3l0.1-0.2l0.1,0l0.1,0.1l0,0.2L85,22.5l-0.1,0L84.8,22.5"/>
				</g>
				<g>
					<path class="st0" d="M83.8,20.7l0.1,0.2l0,0.1l0.1,0.3l-0.2,0L83.6,21l-0.3,0l0.3-0.3L83.8,20.7"/>
				</g>
				<g>
					<path class="st0" d="M80.8,19.9l-0.1-0.4l0.8-0.4l0.1-0.4l0-0.3l0.2-0.1l0.2-0.2l0.1-0.1l0.4,0l0.1,0.1l0.2-0.1l0.2,0.4
						l0.2,0.1l0,0.2L83,19.1l-0.1,0.3l0.2,0.3l0.4,0.2l0.2,0.3l-0.1,0.2l0.1,0l0,0.2l0.2,0.2l-0.2,0l-0.2,0L83.3,21l-0.6,0l-1-0.7
						L81.2,20L80.8,19.9"/>
				</g>
				<g>
					<path class="st0" d="M86.3,23.2l0-0.1l0.1-0.1l0-0.1l0.2-0.1l-0.1,0l0-0.2l0.2,0l0.2,0.2l0.2,0.1l0.3,0l0.2,0.1l0.2,0.2
						l0.1,0.1l0.1,0l0,0.1l-0.1,0.2l-0.1,0.1l-0.1,0.1L87.4,24l-0.2,0L87.2,24l-0.1,0.2l0,0.2l0,0l-0.2,0l-0.2,0.1l0,0.2l-0.1,0.1
						l-0.2,0l-0.1,0.1l0,0.1l-0.2,0.1l-0.2,0l-0.2,0.1l-0.2,0L85.5,25l-0.3-0.6l1-0.3l0.2-0.7L86.3,23.2"/>
				</g>
				<g>
					<path class="st0" d="M86.7,22.2L86.6,22l0.1-0.1l0,0L86.7,22.2L86.7,22.2"/>
				</g>
				<g>
					<path class="st0" d="M124.8,36.5l0.2,0.2l-0.1,0L124.8,36.5L124.8,36.5"/>
				</g>
				<g>
					<path class="st0" d="M124.7,36.4L124.7,36.4l-0.1-0.4l0.2,0.1l0.1,0.3L124.7,36.4L124.7,36.4"/>
				</g>
				<g>
					<path class="st0" d="M102.6,26.8l-0.1-0.4l0.2-0.3l0.4-0.1l0.3,0l0.3,0.1l0.2-0.2l0.3,0.1l0.1,0.2l0,0.4l-0.6,0.3l0.2,0.2
						l-0.4,0l-0.3,0.1l-0.3-0.1l-0.1-0.2L102.6,26.8"/>
				</g>
				<g>
					<path class="st0" d="M103.5,26.1l-0.3,0l-0.4,0.1l-0.2,0.3l0.1,0.4l-0.3-0.2l-0.3,0l0.1-0.3l-0.3,0l0,0.4l-0.2,0.5l-0.1,0.3
						l0,0.2l0.2,0l0.1,0.3l0.1,0.3l0.2,0.2l0.2,0l0.2,0.2l-0.1,0.1l-0.2,0l0-0.2l-0.3-0.2l-0.1,0.1l-0.1-0.1l-0.1-0.2l-0.2-0.2
						l-0.2-0.2l-0.1,0.2l-0.1-0.2l0-0.2l0.1-0.3l0.2-0.4l0.2-0.3l-0.1-0.3l0-0.2l0-0.2l-0.2-0.3l-0.1-0.2l0.1-0.1l0.1-0.3l-0.1-0.2
						L101,25l-0.2-0.3l0.1-0.1l0.2-0.4l0.2,0l0.2-0.1l0.2-0.1l0.1,0.1l0,0.2l0.2,0l-0.1,0.4l0,0.3l0.4-0.2l0.1,0.1l0.2,0l0.1-0.1
						l0.3,0l0.3,0.3l0,0.3l0.3,0.3l0,0.3L103.5,26.1"/>
				</g>
				<g>
					<path class="st0" d="M104.3,26.1l-0.3-0.1l-0.2,0.2l-0.3-0.1l0.1-0.2l0-0.3l-0.3-0.3l0-0.3l-0.3-0.3l-0.3,0l-0.1,0.1l-0.2,0
						l-0.1-0.1l-0.4,0.2l0-0.3l0.1-0.4l-0.2,0l0-0.2l-0.1-0.1l0.1-0.1l0.3-0.2l0,0.1l0.2,0l-0.1-0.4l0.2-0.1l0.2,0.3l0.2,0.3l0.4,0
						l0.1,0.3l-0.2,0.1l-0.1,0.1l0.4,0.2l0.3,0.4l0.2,0.3l0.3,0.2l0.1,0.2L104.3,26.1"/>
				</g>
				<g>
					<path class="st0" d="M101.8,24l-0.2,0.1l-0.2,0.1l-0.2,0l-0.2,0.4l-0.1,0.1L101,25l0.2,0.3l0.1,0.2l-0.1,0.3l-0.1,0.1l0.1,0.2
						l0.2,0.3l0,0.2l0,0.2l0.1,0.3l-0.2,0.3l-0.2,0.4l0-0.3l0.1-0.3l-0.1-0.2l0-0.4l-0.1-0.2l-0.1-0.4l-0.1-0.4l-0.1-0.3l-0.2,0.2
						l-0.4,0.2l-0.2,0l-0.2-0.1l0.1-0.4l-0.1-0.3l-0.3-0.4l0-0.1l-0.2,0l-0.2-0.3l0-0.3l0.1,0.1l0-0.2l0.2-0.1l0-0.1l0.1-0.1l0-0.4
						l0.3,0.1l0.2-0.3l0-0.2l0.2-0.3l0-0.2l0.4-0.2l0.2,0.1l0-0.2l0.1-0.1l0-0.1l0.2,0l0.1,0.2l0.2,0.1l0,0.3l0,0.3l-0.3,0.3l0,0.4
						l0.4-0.1l0.1,0.3l0.2,0.1l-0.1,0.3l0.3,0.1l0.1,0.1l0.3-0.1l0,0.1l-0.3,0.2L101.8,24"/>
				</g>
				<g>
					<path class="st0" d="M103.2,27.4l0.3-0.1l0.4,0l-0.2-0.2l0.6-0.3l0-0.4l-0.1-0.2l0.1-0.3l-0.1-0.2l-0.3-0.2l-0.2-0.3l-0.3-0.4
						l-0.4-0.2l0.1-0.1l0.2-0.1l-0.1-0.3l-0.4,0l-0.2-0.3l-0.2-0.3l0.2-0.1l0.3,0l0.3,0l0.3-0.2l0.2,0.1l0.3,0.1l-0.1,0.2l0.2,0.1
						l0.3,0.1l-0.5,0.3l-0.3,0.3l-0.1,0.2l0.3,0.4l0.3,0.4l0.3,0.2l0.2,0.3l0.2,0.6l0,0.6l-0.3,0.2l-0.4,0.2l-0.3,0.3l-0.4,0.3
						l-0.1-0.2l0.1-0.2L103.2,27.4"/>
				</g>
				<g>
					<path class="st0" d="M112.3,16.5L112.3,16.5L112.3,16.5L112.3,16.5"/>
				</g>
				<g>
					<path class="st0" d="M112.3,16.4L112.3,16.4L112.3,16.4L112.3,16.4l-0.2,0.2l-0.1,0.1l0,0.2l-0.2,0.1l-0.1,0.1l-0.1,0.1
						l-0.2,0.1l-0.1,0.1l0,0.1l0,0l0.1,0.1l0.2,0.2l0,0.1l-0.1,0l-0.2,0l-0.1,0.2l-0.2,0l0,0l-0.2-0.1l0,0.1l-0.1,0l0-0.1l-0.1,0
						l-0.1-0.1l0.1-0.2l0.1,0l0-0.1l0.1-0.2l0-0.1l-0.2,0l-0.2-0.1l0.3-0.2l0.4-0.2l0.2-0.2l0.2,0.1l0.3,0l-0.1-0.2l0.5-0.1l0.1-0.2
						L112.3,16.4"/>
				</g>
				<g>
					<path class="st0" d="M110.7,18L110.7,18l0.2,0l0.1-0.2l0.2,0l0.1,0l0-0.1l0.3,0.4l0.1,0.2l0,0.4l-0.1,0.2l-0.3,0.1l-0.3,0.1
						l-0.3,0l0-0.2l0.1-0.3l-0.2-0.4l0.3-0.1L110.7,18"/>
				</g>
				<g>
					<path class="st0" d="M97.5,14.1l0.4-0.1l0.7-0.3l0.5-0.2l0.3,0.1l0.4,0l0.2,0.2l0.3,0l0.5,0.1l0.3-0.2l-0.1-0.2l0.4-0.4
						l0.4,0.1l0.3,0l0.4,0.1l0.1,0.3l0.5,0.1l0.3-0.1l0.4,0l0.3,0l0.3,0.2l0.2,0.2l0.3,0l0.4,0.1l0.3-0.1l0.5-0.1l0.5-0.2l0.2,0
						l0.2,0.1l0.4,0l-0.2,0.3l-0.2,0.3l0.1,0.1l0.2,0l0.3,0.1l0.3-0.1l0.3,0.1l0.3,0.2l0,0.1l-0.3,0l-0.5,0l-0.2,0.1l-0.3,0.2
						l-0.5,0.1l-0.3,0.2l-0.4-0.1l-0.2,0l-0.2,0.2l0.1,0.1l0.1,0.1l-0.2,0.1l-0.2,0.2l-0.4,0.1l-0.5,0l-0.6,0.1l-0.4,0.2l-0.2-0.1
						l-0.4,0l-0.5-0.2l-0.3-0.1l-0.5,0l-0.7-0.1l-0.4,0l-0.2-0.2l-0.2-0.3l-0.2,0l-0.4-0.2l-0.5,0l-0.4-0.1l-0.1-0.1l0.1-0.4
						l-0.2-0.3l-0.5-0.1l-0.3-0.2L97.5,14.1"/>
				</g>
				<g>
					<path class="st0" d="M100.8,21.3l0,0.1l-0.1,0.1l0,0.2l-0.2-0.1l-0.4,0.2l0,0.2l-0.4,0.7l-0.3-0.1l-0.1,0.6l-0.2,0.1l-0.3-0.5
						l-0.1,0.2l-0.2-0.2l0.1-0.2l0.2,0l0.2-0.3l-0.5-0.1l-0.3,0l0-0.2l-0.2,0l-0.3-0.1l-0.1,0.2l0.2,0.2l-0.3,0.3l0.2,0.1l-0.1,0.2
						l0.2,0.5l0,0.1l-0.7,0.1l0,0.3l-0.2,0.2l-0.5,0.2l-0.6,0.6l-0.3,0.2l0,0.2l-0.7,0.5l0.1,0.7l-0.1,0.3l0,0.6l-0.2,0l-0.2,0.3
						l0.1,0.1l-0.3,0.1L94,28.3L93.7,28l-0.4-1l-0.2-0.3L92.9,26l-0.3-0.5l-0.3-1.8l-0.5,0.2l-0.2,0l-0.4-0.4l0.2-0.1l-0.1-0.1
						l-0.4-0.3l0.2-0.2l0.8,0l-0.1-0.3l-0.2-0.2l0-0.3l-0.2-0.2l0.4-0.4l0.4,0l0.9-1.1l0-0.2l0.3-0.2l-0.3-0.2l-0.2-0.5l0.2-0.1
						l0.5,0.1l0.4-0.1l0.3-0.3l0.4,0.4l0,0.3l0.1,0.2l0,0.2l-0.2,0l0.1,0.4l0.8,0.5L95,20.8l-0.1,0.3l2,0.7l0.7,0.1l0-0.4l0-0.1
						l0.2-0.1l0,0.3l0.3,0.1l0.5,0l0.3,0l0-0.2l-0.1-0.1l0.3,0l0.7-0.5l0.3,0.1l0.2-0.1l0.2,0.2l-0.1,0.1L100.8,21.3L100.8,21.3"/>
				</g>
				<g>
					<path class="st0" d="M99.2,23.4l0,0.2l-0.1-0.1l0,0.3L99,23.7l0-0.2l-0.1-0.2l-0.1-0.2l-0.3,0l0,0.1l-0.1,0.2l-0.1-0.1
						l-0.1,0.1l-0.1,0l-0.1,0l-0.1-0.3l-0.1-0.3l0.1-0.2l-0.2-0.1l0.1-0.1l0.2-0.1l-0.2-0.2l0.1-0.2l0.3,0.1l0.2,0l0,0.2l0.3,0
						l0.3,0l0.2,0.1l-0.2,0.3l-0.2,0l-0.1,0.2l0.2,0.2l0.1-0.2l0.1,0L99.2,23.4"/>
				</g>
				<g>
					<path class="st0" d="M98.9,21.5l0.1,0.1l0,0.2l-0.3,0l-0.3,0l-0.2,0.1l-0.3-0.1l0-0.1l0.2-0.3l0.2-0.1l0.2,0.1l0.2,0L98.9,21.5
						"/>
				</g>
				<g>
					<path class="st0" d="M97.6,21.4l0,0.1l0,0.2l0,0.1l-0.3,0l-0.4-0.1l-0.3,0l-0.2-0.2l-0.5,0l-0.4-0.2l-0.3-0.2l-0.3-0.1l0.1-0.3
						l0.2-0.2l0.1-0.1l0.3,0.1l0.3,0.2l0.2,0l0.1,0.2l0.3,0.1l0.3,0.2l0.4,0.1L97.6,21.4"/>
				</g>
				<g>
					<path class="st0" d="M94.1,18.8l-0.3,0.3l-0.4,0.1l-0.5-0.1l-0.2,0.1l0.1,0.3l0.1,0.2l0.3,0.2l-0.3,0.2l0,0.2l-0.3,0.3L92.4,21
						L92,21.4l-0.4,0l-0.4,0.4l0.2,0.2l0,0.3l0.2,0.2l0.1,0.3l-0.8,0l-0.2,0.2l-0.3-0.1l-0.1-0.2l-0.3-0.3l-0.6,0.1l-0.6,0l-0.5,0
						l0.1-0.4l0.5-0.2l0-0.2l-0.2-0.1l0-0.3l-0.3-0.2l-0.1-0.2l-0.2-0.2l0.6,0.2l0.3-0.1l0.2,0l0.1-0.1l0.2,0l0.4-0.1l0-0.3l0.2-0.2
						l0.3,0l0-0.1l0.3,0l0.1,0l0.1-0.1l0-0.2l0.1-0.2l0.2-0.1l-0.1-0.2l0.3,0l0.1-0.1l0-0.1l0.2-0.1l0-0.2l-0.1-0.1l0.2-0.1l0.4-0.1
						l0.4,0l0.2-0.1l0.2,0l0.3,0.2l0.1,0.3L94.1,18.8"/>
				</g>
				<g>
					<path class="st0" d="M90.2,18.2l0.2,0l0.3,0.1l0.1,0l0.2-0.1l0.1,0.1l0.1-0.2l0.2,0l0.1-0.1l0-0.1l0.1-0.1l0.2,0.1l0,0.1l0.1,0
						l0,0.3l0.1,0.1l0.1-0.1l0.2,0l0.2-0.2l0.2,0l0.4,0l0.1,0.1l-0.2,0l-0.2,0.1l-0.4,0L92,18.5l-0.2,0.1l0.1,0.1l0,0.2l-0.2,0.1
						l0,0.1l-0.1,0.1l-0.3,0l0.1,0.2l-0.2,0.1l-0.1,0.2l0,0.2L91,20.1l-0.1,0l-0.3,0l0,0.1l-0.3,0l-0.2,0.2l0,0.3l-0.4,0.1l-0.2,0
						l-0.1,0.1l-0.2,0l-0.3,0.1l-0.6-0.2l0.3-0.3l0-0.2l-0.3-0.1l0-0.2l-0.1-0.3l0.1-0.2l-0.1-0.1l0.1-0.3l0.1-0.4l0.4,0.1l0.3,0
						l0.1-0.2l0.3-0.1l0.2-0.1l0.1-0.3l0.3-0.1l0.1-0.1l0.2,0.1L90.2,18.2"/>
				</g>
				<g>
					<path class="st0" d="M90.6,18.2l0.2-0.3l-0.1-0.3l-0.3-0.1l0.1-0.2l0.3,0l0.2-0.2l0.1-0.2l0.5-0.1l-0.1,0.2l0,0.1l0.1,0
						l-0.1,0.1l-0.4-0.1l0,0.2l0.4,0l0.4,0.1l0.7-0.1l0.1,0.3l0.1,0l0.2,0.1l0,0.1l0.1,0.2l-0.4,0l-0.2,0l-0.2,0.2l-0.2,0L92,18.4
						l-0.1-0.1l0-0.3l-0.1,0l0-0.1l-0.2-0.1l-0.1,0.1l0,0.1l-0.1,0.1l-0.2,0l-0.1,0.2L91,18.2l-0.2,0.1L90.6,18.2"/>
				</g>
				<g>
					<path class="st0" d="M91.7,16.5l0.1-0.2l0.2,0l0.6,0.1l0.1-0.2l0.2-0.1l0.5,0.1l0.1,0l0.6,0l0.5,0l0.2,0.1l0.2,0.1l0,0.1
						l-0.5,0.2l-0.1,0.1l-0.4,0l-0.1,0.2l-0.4,0L93,17.1l-0.3,0.2l0,0.1l-0.1,0.1L92,17.5l-0.4-0.1l-0.4,0l0-0.2l0.4,0.1l0.1-0.1
						l0.3,0l0.4-0.2L92,16.8l-0.2,0.1l-0.3-0.1l0.3-0.2L91.7,16.5"/>
				</g>
				<g>
					<path class="st0" d="M85.4,16.6l0.2-0.1l0.4-0.1l0.2,0.1l0.2,0.3l0.2,0l0.4,0l-0.1-0.2l0.3-0.1l0.3-0.2l0.5,0.2l0,0.3l0.1,0.1
						l0.4,0l0.1,0.1l0.2,0.4l0.4,0.2l0.2,0.2l0.4,0.2l0.5,0.1l0,0.2l-0.1,0l-0.2-0.1l-0.1,0.1l-0.3,0.1l-0.1,0.3l-0.2,0.1l-0.3,0.1
						L89,18.8l-0.3,0l-0.4-0.1l0-0.3l-0.3,0l-0.4-0.3l-0.3,0L87,17.9l-0.2,0L86.6,18l-0.2,0l-0.2,0.2l-0.3,0.1L85.8,18l0.1-0.4
						l-0.3-0.1l0.1-0.2l-0.2,0l0.1-0.3l0.3,0.1l0.3-0.1l-0.3-0.2l-0.1-0.2l-0.3,0.1l0,0.3L85.4,16.6"/>
				</g>
				<g>
					<path class="st0" d="M84,20.7l-0.2-0.2l0-0.2l-0.1,0l0.1-0.2l-0.2-0.3l-0.4-0.2l-0.2-0.3l0.1-0.3l0.2-0.1l0-0.2l-0.2-0.1
						l-0.2-0.4l0,0L82.5,18l0.1-0.1l-0.1-0.4l0.2-0.1l0.1,0.1l0.2,0.2l0.2,0l0.1,0l0.4-0.3l0.1,0l0.1,0.1l-0.1,0.2l0.2,0.2l0.1,0
						l0.1,0.3l0.3,0.1l0.2,0.2l0.5,0.1l0.5-0.1l0-0.1l0.3-0.1l0.2-0.2l0.2,0l0.2-0.1l0.2,0l0.4,0.2l0.3,0l0.4,0.3l0.3,0l0,0.3
						l-0.1,0.4l-0.1,0.3l0.1,0.1l-0.1,0.2l0.1,0.3l0,0.2l0.3,0.1l0,0.2l-0.3,0.3l0.2,0.2l0.1,0.2l0.3,0.2l0,0.3l0.2,0.1l0,0.2
						L88.6,22l-0.1,0.4l-0.6-0.1l-0.4-0.1l-0.4,0l-0.1-0.4l-0.2-0.1l-0.3,0.1l-0.3,0.2l-0.4-0.1l-0.3-0.3L85,21.4l-0.2-0.3l-0.3-0.5
						l-0.2,0.1l-0.2-0.1L84,20.7"/>
				</g>
				<g>
					<path class="st0" d="M79.6,19.8L79.6,19.8L79.6,19.8l0-0.2l0.1-0.2l0.2-0.1l-0.1-0.1l-0.2,0l0-0.3l0.1-0.1l0.1-0.1l0.1-0.1
						l0-0.2l0.1,0.1l0.4-0.1l0.2,0.1l0.3,0l0.4-0.1l0.2,0l0.4-0.1l-0.2,0.2l-0.2,0.1l0,0.3l-0.1,0.4l-0.8,0.4L80,19.9L79.6,19.8"/>
				</g>
				<g>
					<path class="st0" d="M83.3,17.7l-0.1,0L83,17.5l0-0.1l-0.2,0l-0.1-0.1l-0.1,0l-0.1-0.1l-0.3-0.1l0-0.2l-0.1-0.1l0.5-0.1
						l0.1,0.1L83,17l-0.1,0.1l0.2,0.1L83,17.3l0.1,0.1l0.2,0.1L83.3,17.7"/>
				</g>
				<g>
					<path class="st0" d="M71.1,10.8l0.2-0.2l0.3-0.2l0.1-0.4l-0.2-0.2l0-0.5L71.6,9L72,9l0.1-0.1L72,8.7l0.5-0.5l0.3-0.4l0.2-0.2
						l0.3,0l0.1-0.2l0.6,0.1l0.1-0.2l0.2,0l0.5,0.2l0.5,0.2l0,0.5l0.1,0.1l-0.6,0.1l-0.3,0.2l0.1,0.2l-0.5,0.3l-0.7,0.3l-0.3,0.5
						l0.2,0.2l0.3,0.2l-0.3,0.4l-0.4,0.1L73,11.4l-0.2,0.3l-0.4,0L72.2,12l-0.4,0l-0.1-0.3l-0.3-0.4L71.1,10.8"/>
				</g>
				<g>
					<path class="st0" d="M77,11.7l0.4,0.1l0,0.1l0.2,0l0.3,0.1l0,0.2l-0.1,0.1l0.2,0.2l0.1,0.1l0,0.1l0.2,0.1l0.1,0.1l-0.1,0.1
						l-0.3,0l-0.1,0l0.1,0.1l0.1,0.2h0l-0.3,0l-0.1,0.1l0,0.2l-0.1,0l-0.3,0l-0.1-0.1l-0.1,0.1l-0.1,0l-0.3,0l-0.4-0.1l-0.3,0
						l-0.3,0l-0.2,0.1l-0.2,0l0-0.2L75.3,13l0.2-0.1l0-0.1l-0.1-0.1l0-0.2l0.3,0l0.4-0.1l0.1-0.2l0.3-0.1l0-0.2l0.2-0.1L77,11.7"/>
				</g>
				<g>
					<path class="st0" d="M78.3,13.1l0.1,0l0.1-0.1l0.1,0l0.4,0l0.2,0.2l-0.1,0.1l0,0.1l0.3,0l0.1,0.1l0,0.1l0.4,0.1l0.3-0.1
						l0.2,0.2l0.2,0l0.5,0.1l0,0.1L81,14.2l0.1,0.2L81,14.5l-0.3,0l-0.2,0.1l0,0.2l-0.3,0L80,14.9l-0.3,0l-0.3,0.1l0,0.2l-0.1,0
						l0-0.1l-0.1,0l-0.2-0.1l-0.1,0.1l0,0l-0.5-0.1l0-0.1l-0.3,0l-0.1,0.2l-0.3,0.3l-0.2-0.1l-0.2,0.1L77,15.4l0.1,0l0.1-0.1
						l0.1-0.1l0-0.1l0.1,0l0,0l0.2,0l0.1,0l-0.1,0l0-0.1l-0.1-0.1l0-0.1l-0.1-0.1l0-0.1l-0.2-0.1l-0.1,0l-0.3-0.1l-0.2,0l-0.1,0.1
						l-0.1,0l-0.1,0.1l-0.3,0l-0.1,0.1l-0.2-0.1l-0.2,0l-0.2,0l-0.1,0.1l0-0.1l-0.2-0.1l0.1-0.1l0.1-0.1l0.1,0L75.1,14l0.3-0.3
						l0.2,0l0-0.1l-0.2-0.3l0.2,0l0.2-0.1l0.3,0l0.3,0l0.4,0.1l0.3,0l0.1,0l0.1-0.1l0.1,0.1l0.3,0l0.1,0l0-0.2l0.1-0.1L78.3,13.1"/>
				</g>
				<g>
					<path class="st0" d="M75.4,12.5l0,0.2l0.1,0.1l0,0.1L75.3,13l0.1,0.2l0,0.2l0.2,0.3l0,0.1l-0.2,0L75.1,14l0.1,0.2l-0.1,0
						L74.7,14l-0.2,0l-0.2,0l-0.2,0.1L74,14l-0.1,0l0,0l-0.2-0.2l-0.3,0l0-0.1l-0.2,0l-0.1,0.1l-0.2-0.1l0-0.1l-0.3,0l-0.2-0.1
						l-0.1-0.2l0-0.1l-0.1-0.2l-0.1-0.1l0.1-0.1l-0.1-0.2l0.2-0.1l0.5-0.2l0.4-0.1l0.3,0.1l0,0.1l0.3,0l0.4,0l0.6,0l0.2,0L75.4,12.5
						"/>
				</g>
				<g>
					<path class="st0" d="M73.2,14.5l0,0.1l-0.2,0l0.1,0.1l-0.1,0.2L72.8,15l-0.3,0L72.4,15l-0.3,0l-0.5-0.1l-0.1-0.1l-0.3,0.1
						l0,0.1l-0.2,0l-0.2,0l-0.2-0.1l0.1-0.1l0-0.1l0.1,0l0.2,0.1l0-0.1l0.3,0l0.2-0.1l0.2,0l0.1,0.1l0-0.1l0-0.2l0.1,0l0.1-0.2
						l0.3,0.1l0.2-0.1l0.1,0l0.3,0.1l0.2,0l0.2,0.1l0,0L73.2,14.5"/>
				</g>
				<g>
					<path class="st0" d="M74.9,14.4l0.2,0.1l0,0.1l-0.2,0.1l-0.2,0.2l-0.2,0.2l-0.3,0.1l-0.2,0l-0.3,0.1l0,0l-0.1,0.1l-0.3-0.1
						l-0.3-0.1L73,15l-0.1-0.1l-0.1,0l0.1-0.2l-0.1-0.1l0.2,0l0-0.1l0.2,0.1l0.1,0l0.3,0l0-0.1l0.1,0l0.2-0.1l0,0l0.2,0l0.1-0.1
						l0.1,0L74.9,14.4L74.9,14.4"/>
				</g>
				<g>
					<path class="st0" d="M76.5,14.4L76.5,14.4l0.3-0.1l0.3,0.1l0.1,0l0.2,0.1l0,0.1l0.1,0.1l0,0.1l0.1,0.1l0,0.1l0.1,0l-0.1,0
						l-0.2,0l0,0l-0.1,0l0,0.1l-0.1,0.1l-0.1,0.1l-0.1,0L77,15.2l0-0.1l0-0.2l-0.2-0.2l-0.1-0.1l-0.1-0.1L76.5,14.4"/>
				</g>
				<g>
					<path class="st0" d="M77,15.4l0.2,0.1l0.2-0.1l0.2,0.1l0,0.1l-0.2,0.1l-0.1,0L77.1,16l-0.2,0l-0.3-0.1l-0.4,0.1L76.1,16l-0.5,0
						l-0.3-0.1l-0.1,0l-0.1-0.1L75,15.7l0.1-0.1l-0.1,0l-0.1,0.1l-0.2-0.1l0-0.1l-0.2-0.1l0-0.1l-0.2-0.1l0.3-0.1l0.2-0.2l0.2-0.2
						l0.2-0.1l0.1-0.1l0.2,0l0.2,0l0.2,0.1l0.1-0.1l0.3,0l0.1-0.1l0.1,0l0.1,0l0.1,0.1l0.1,0.1l0.2,0.2l0,0.2l0,0.1L77,15.4"/>
				</g>
				<g>
					<path class="st0" d="M76.4,11.9l0,0.2l-0.3,0.1l-0.1,0.2l-0.4,0.1l-0.3,0l-0.1-0.1l-0.2,0l0-0.1l0-0.1L75,12.1L74.6,12
						l-0.1-0.3l0.4-0.1l0.6,0l0.3,0l0,0.1l0.2,0L76.4,11.9"/>
				</g>
				<g>
					<path class="st0" d="M76.7,11.2l0.2,0.1l0,0.2l0.1,0.2l-0.4,0.1l-0.2,0.1l-0.3-0.2l-0.2,0l0-0.1l-0.3,0l-0.6,0l-0.4,0.1l0-0.3
						l0.2-0.2l0.3-0.1l0.3,0.3l0.3,0l0.1-0.3l0.3-0.1l0.2,0l0.3,0.1L76.7,11.2"/>
				</g>
				<g>
					<path class="st0" d="M76.9,10.6L76.9,10.6L76.9,10.6l-0.2,0.3l0.1,0.3l-0.1,0.1l-0.3,0l-0.3-0.1l-0.2,0l-0.3,0.1l0-0.2l-0.1,0
						l-0.2-0.1l0-0.2l0.4-0.1l0.4,0l0.4,0.1L76.9,10.6L76.9,10.6"/>
				</g>
				<g>
					<path class="st0" d="M72.2,12.5l0.1,0.2l-0.1,0.1l0.1,0.1l0.1,0.2l0,0.1l0.1,0.2l-0.2,0l-0.1,0l-0.1,0.1l-0.2,0.1l-0.1,0.1
						l-0.2,0.1l0.1,0.1l0,0.1l0.2,0.1l0.2,0.1l-0.1,0.2l-0.1,0l0,0.2l0,0.1l-0.1-0.1l-0.2,0l-0.2,0.1l-0.3,0l0,0.1l-0.2-0.1l-0.1,0
						l-0.4-0.1l-0.1,0.1l-0.3,0l0-0.2l0.2-0.2l-0.5-0.1L69.4,14l0-0.2l-0.1-0.1l0-0.2l-0.1-0.4l0.2,0l0.1-0.1l0.1-0.3l-0.1-0.1
						l0.1-0.1l0.3,0l0.1,0.1l0.2-0.2l-0.1-0.1l0-0.2l0.3,0l0.2-0.1l0,0.1l0.3,0.1l0,0.1l0.3-0.1l0.2-0.1l0.4,0.1L72.2,12.5"/>
				</g>
				<g>
					<path class="st0" d="M75.1,15.8l0.1,0.1l0.1,0l0.3,0.1l0.5,0l0.2-0.1l0.4-0.1l0.3,0.1l0.2,0L77,16.1l-0.1,0.2l0.1,0.2l-0.3,0
						l-0.4,0.1l0,0.2l-0.3,0l-0.2-0.1l-0.3,0.1l-0.3,0l0-0.2L75,16.5l0.1,0l0,0l0.1-0.1l0.1-0.1L75.1,16L75.1,15.8L75.1,15.8"/>
				</g>
				<g>
					<path class="st0" d="M76.4,18.9l0,0.1l-0.5,0l0-0.1l-0.4-0.1l0.1-0.1l0.2,0.1l0.3,0l0.3,0l0,0.1L76.4,18.9"/>
				</g>
				<g>
					<path class="st0" d="M75.2,16.8l0.3,0l0.3-0.1l0.2,0.1l0.3,0l0-0.2l0.2,0.1l-0.1,0.2l-0.1,0l-0.2,0l-0.2,0L75.5,17l0.2,0.2
						l-0.2,0.1l-0.2,0l-0.2-0.2l-0.1,0.1l0.1,0.2l0.2,0.2l-0.1,0.1l0.2,0.2l0.2,0.1l0,0.2L75.3,18l0.1,0.2l-0.2,0l0.1,0.3l-0.2,0
						l-0.3-0.1l-0.1-0.3l-0.1-0.2l-0.1-0.2l-0.2-0.2l0-0.1l0.2-0.2l0-0.1l0.1,0l0-0.1l0.2,0l0.1-0.1l0.2,0L75.2,16.8L75.2,16.8"/>
				</g>
				<g>
					<path class="st0" d="M82.7,18.2l-0.2,0.1l-0.1-0.1l-0.4,0l-0.1,0.1l-0.4,0.1l-0.2,0l-0.4,0.1l-0.3,0l-0.2-0.1l-0.4,0.1L80,18.3
						l0,0.2l-0.1,0.1l-0.1,0.1l-0.1-0.2l0.1-0.1l-0.2,0l-0.3-0.1L79,18.6l-0.5,0l-0.3-0.2l-0.4,0l-0.1,0.1l-0.2,0l-0.3-0.2l-0.4,0
						l-0.2-0.3l-0.3-0.2l0.2-0.3l-0.2-0.2l0.4-0.3l0.5,0l0.1-0.3l0.7,0l0.4-0.2l0.4-0.1l0.6,0l0.6,0.2l0.5,0.1l0.4-0.1l0.3,0
						l0.4-0.2l0.4,0l0.3,0.2l0.1,0.1l0,0.2l0.3,0.1l0.1,0.1l-0.2,0.1l0.1,0.4L82.5,18L82.7,18.2L82.7,18.2"/>
				</g>
				<g>
					<path class="st0" d="M76.3,16.6l0.4-0.1l0.3,0l0,0.1l0.3,0.1l-0.1,0.1l-0.4,0L76.7,17l-0.3,0.2L76.3,17l0-0.1l0.1,0l0.1-0.2
						L76.3,16.6"/>
				</g>
				<g>
					<path class="st0" d="M74.5,17L74.5,17l-0.1,0.1l0,0.1l-0.2,0.2l-0.1,0l0-0.1L74,17.2l0-0.2l0-0.2l0-0.1L74,16.6l0,0l0-0.1
						l0.1-0.2l0,0.1l0.1,0l0.1,0.1l0.1,0l0,0.1l0,0l0,0.1l0,0.1L74.5,17"/>
				</g>
				<g>
					<path class="st0" d="M73,15l0.1,0l0.3,0.1l0.3,0.1l0.1-0.1l0.1,0.1l0.1,0.1l-0.1,0.1l-0.2-0.1l-0.2,0l-0.3-0.1l-0.2,0l-0.1,0.1
						l-0.1-0.1l-0.1,0.1l0.2,0.2l0.1,0.1l0.2,0.1l0.1,0.1l0.1,0.1l0.3,0.1l0,0.1v0l-0.3-0.1l-0.2-0.1L72.8,16l-0.3-0.3l0.1,0
						l-0.2-0.1l0-0.1l-0.2-0.1l-0.1,0.1L72,15.5l0-0.1l0,0l0.2,0l0.1-0.1l0.1,0.1l0.1,0l0-0.1l0.1,0l0-0.1L73,15"/>
				</g>
				<g>
					<path class="st0" d="M70.6,14.7L70.6,14.7l0,0.1l0.2,0.1l0.2,0l0,0.1l-0.2,0.1l-0.3,0l-0.1,0.1l-0.2,0l-0.1-0.1L70,15.2l-0.2,0
						l-0.1-0.1L69.6,15l-0.2,0.1l0-0.2l0.3-0.2l0-0.1l0.2,0l0.1-0.1l0.3,0l0.1-0.1L70.6,14.7"/>
				</g>
				<g>
					<path class="st0" d="M69.4,13.8L69.4,13.8l0,0.2l-0.1,0l-0.1,0L69.4,13.8L69.4,13.8"/>
				</g>
				<g>
					<path class="st0" d="M69.4,13.5l0,0.2l-0.1,0l0,0.2L69,13.8l-0.2,0l-0.2-0.2l-0.2-0.1l-0.2,0l0-0.1l0.3-0.1h0l0,0l0.3,0
						l0.3-0.1l0.2,0.2L69.4,13.5"/>
				</g>
				<g>
					<path class="st0" d="M69.7,12.6l0.1,0.1L69.7,13l-0.1,0.1l-0.2,0l0.1,0.4l-0.2-0.1L69,13.3l-0.3,0.1l-0.3,0l0,0l0.2-0.1
						l0.3-0.5l0.5-0.1L69.7,12.6"/>
				</g>
				<g>
					<path class="st0" d="M64.2,16.6l0.1-0.1l0.1-0.1l0.1,0.2l0.2,0l0.1,0l0.2,0l0.1,0.2L65,16.9l0,0.3l-0.1,0.1l0,0.2l-0.1,0
						l0.1,0.2l-0.1,0.2l0.1,0.1l0,0.1l-0.1,0.1l0,0.1l-0.1,0.1l-0.2,0l-0.2,0l0.1-0.3l0-0.2l-0.2,0L64,17.7l0-0.2l0.1-0.1l0-0.1
						l0.1-0.2l0-0.1l-0.1-0.1L64.2,16.6"/>
				</g>
				<g>
					<path class="st0" d="M64.8,18.3l0-0.1l0.1-0.1l0-0.1l-0.1-0.1l0.1-0.2l-0.1-0.2l0.1,0l0-0.2l0.1-0.1l0-0.3l0.2-0.1L65,16.6
						l-0.2,0l-0.1,0l-0.2,0l-0.1-0.2l-0.1,0.1l-0.1,0.1l0-0.2l-0.1-0.1l0.5-0.2L65,16l0.5,0l0.4,0.1l0.3,0l0.6,0l0.1,0.1l0.6,0.2
						l0.1-0.1l0.4,0.2l0.4,0l0,0.2L68,16.8l-0.4,0.1l0,0.1l-0.2,0.2l-0.1,0.3l0.1,0.2l-0.2,0.2l-0.1,0.2l-0.3,0.1l-0.2,0.3l-0.4,0
						l-0.3,0l-0.2,0.1l-0.1,0.1l-0.2,0l-0.1-0.1l-0.1-0.2L64.8,18.3"/>
				</g>
				<g>
					<path class="st0" d="M65.2,12.5l0.1,0.2L65,13l-0.6,0.2l-0.5-0.1l0.3-0.4L64,12.5l0.5-0.3l0.3-0.2l0.1,0.2l-0.1,0.2l0.2,0
						L65.2,12.5"/>
				</g>
				<g>
					<path class="st0" d="M124.3,38.3l0.3,0.2l0.2,0.2l-0.1,0.1l-0.2-0.1l-0.2-0.2l-0.2-0.2l-0.2-0.2l0-0.1l0.1,0l0.2,0.1l0.2,0.1
						L124.3,38.3"/>
				</g>
				<g>
					<path class="st0" d="M123.1,34.6l0.1,0.1l-0.2,0l-0.1-0.2L123.1,34.6L123.1,34.6"/>
				</g>
				<g>
					<path class="st0" d="M122.9,34.3L122.9,34.3l-0.3-0.2l-0.1-0.2h0.1l0.1,0.3L122.9,34.3"/>
				</g>
				<g>
					<path class="st0" d="M122.6,34.4l-0.1,0l-0.2,0l-0.1-0.1l0-0.1l0.2,0.1L122.6,34.4L122.6,34.4"/>
				</g>
				<g>
					<path class="st0" d="M122.2,33.8l0.1,0.1l0,0.1l-0.3-0.1l-0.2-0.1l-0.1-0.1l0.1,0l0.2,0.1L122.2,33.8"/>
				</g>
				<g>
					<path class="st0" d="M121.4,33.4l0.1,0.1l-0.1,0L121.4,33.4l-0.2-0.1l0-0.1L121.4,33.4"/>
				</g>
				<g>
					<path class="st0" d="M128.2,44.8L128,45l-0.2,0.2l-0.3,0.1l-0.1-0.1l-0.1,0l0.2-0.3l-0.1-0.2l-0.4-0.1l0-0.1l0.2-0.1l0.1-0.3
						l0-0.2l-0.1-0.2l0-0.1l-0.2-0.1l-0.3-0.3l-0.1-0.2l0.1,0l0.2,0.2l0.3,0.1l0.1,0.3l0.2,0.4l0-0.2l0.2,0.1l0.1,0.3l0.3,0.1l0.2,0
						l0.2-0.1l0.2,0l-0.1,0.3l-0.1,0.2l-0.3,0l-0.1,0.1L128.2,44.8L128.2,44.8"/>
				</g>
				<g>
					<path class="st0" d="M125.7,46l0.3-0.2l0.2-0.2l0.2-0.3l0.1-0.1l0.1-0.2l0.2-0.2l0.1,0.1l0.1,0.1l0.2-0.1l0.1,0.1l0,0.1
						l-0.1,0.2l-0.2,0.3l-0.2,0.1l0.1,0.2l-0.3,0l-0.3,0.1l-0.1,0.2l-0.2,0.3l-0.3,0.2l-0.2,0.1l-0.3,0l-0.2-0.1l-0.4,0l-0.1-0.1
						l0.2-0.3l0.4-0.3l0.2-0.1L125.7,46"/>
				</g>
				<g>
					<path class="st0" d="M118.1,45l0.2,0l0,0.4l-0.1,0.1l0,0.3l-0.1-0.1l-0.2,0.2l-0.1,0l-0.2,0l-0.2-0.3l0-0.2l-0.2-0.3l0-0.2
						l0.2,0l0.3,0.1l0.2,0L118.1,45"/>
				</g>
				<g>
					<path class="st0" d="M110.7,42.1l-0.7,0.4l-0.1,0.1l-1.3,0l-0.3,0.2l-0.3,0.2l-0.5,0l-0.5-0.3l0-0.2l0.2-0.1l-0.2-0.9l-0.4-1.1
						l-0.2-0.4l0.2,0.1l-0.1-0.3l0.3,0.2l0-0.2l-0.3-0.5l0.3-0.9l0,0.3l0.1-0.2l1.8-0.6l0.5-0.3l0.6-1l0.1,0.3l0.1-0.1l-0.1-0.2
						l0.1-0.2l0.2,0.1l0-0.3l0.8-0.6l0.2,0l0.7,0.4l0.2,0l-0.1-0.2l0.4-0.6l0.2-0.1l0.2,0l0.3-0.1l0-0.2l-0.3-0.1l0.2,0l1,0.4
						l0.4-0.1l0.2,0.2l-0.2,0.3l-0.1,0l0,0.1l-0.2,0.4l1.1,0.6l0.6,0.3l0.2-0.1l0.2-1l0.1-0.6l-0.1-0.1l0.3-0.6l0.3,0.7l0.1,0.6
						l0.2-0.1l0.2,0.4l0.4,1.2l0.8,0.5l0,0.1l0.2,0.2l0.1,0.4l0.1-0.1l1,1.1l0.1,0.5l0,0.2l0.2,0.3l-0.1,0.5l-0.3,1.1l-0.3,0.2
						l-0.8,1.6l-0.4,0l-0.7,0.4l-0.5-0.2l0.1-0.2l-0.2,0.1l-0.3,0.2l-1.2-0.5l-0.1-0.4l-0.2-0.1l-0.3,0l0.1-0.2l-0.1-0.3l-0.2,0.2
						l-0.3,0.1l0.2-0.4l0.1-0.2l0-0.3l-0.6,0.7l-0.3-0.1l0-0.2l-0.3-0.5l-1-0.4l-1.1,0.2l-0.4,0.1L110.7,42.1L110.7,42.1"/>
				</g>
				<g>
					<path class="st0" d="M95.4,28.4l-0.1,0.4l-0.1,0.1L95,29l-0.2-0.3l-0.1-0.5l0.2-0.6l0.2,0.2l0.2,0.2L95.4,28.4"/>
				</g>
				<g>
					<path class="st0" d="M105,24.8l-0.3-0.1l0-0.3l0.2-0.2l0.4-0.1l0.2,0l0.1,0.1l-0.2,0.2l-0.1,0.2L105,24.8"/>
				</g>
				<g>
					<path class="st0" d="M94.9,16.4l0-0.2l0.2-0.1l-0.3-0.6l0.9-0.2l0.2-0.6l0.7,0.1l0.2-0.2l0-0.3l0.3,0l0.4-0.3l0.1,0.2l0.3,0.2
						l0.5,0.1l0.2,0.3l-0.1,0.4l0.1,0.1l0.9,0.1l0.6,0.3l0.4,0.5l1.5,0l0.3,0.1l0.5,0.2l1-0.1l1.7-0.4l0.2-0.1l-0.2-0.2l0.2-0.2
						l0.5,0.1l0.3-0.2l0.5-0.1l0.5-0.3l0.8-0.1l-0.6-0.4l-0.3,0.1l-0.6-0.2l0.4-0.6l0.4,0.1l0.5-0.2l0-0.2l0.5-0.7l-0.2-0.1l0.3-0.2
						l0.9-0.1l0.8,0.2l0.6,1l0.6,0.1l0.4,0.2l0.1,0.3l0.5,0l0.3-0.1l0.6-0.1l-0.7,1.1l-0.4-0.1l-0.3,0.1l0.1,0.3l0,0.4l-0.2,0l0,0.2
						l-0.2-0.2l-0.1,0.2l-0.5,0.1l0.1,0.2l-0.5-0.1l-0.2,0.2l-1.8,0.8l0.2-0.2l-0.1-0.1l0.3-0.2l-0.2-0.2l-0.7,0.4l-0.2,0.2l-0.3,0
						l-0.2,0.2l0.2,0.2l0.3,0.1l0,0.2l0.3,0.1l0.4-0.2l0.6,0.3l-0.5,0.1l-0.2,0.2l-0.3,0.2l-0.2,0.2l0.4,0.2l0.3,0.7l0.2,0.3l0,0.3
						l-0.2,0.1l0.1,0.2l0.2,0.1l-0.1,0.6l-0.2,0l-0.8,1.2l-1,0.6l-0.4,0l-0.2,0.2l-0.1-0.1l-0.2,0.2l-0.8,0.2l-0.1,0.4l-0.2,0
						l-0.1-0.2l0.1-0.1l-1.1-0.3l0.1-0.2l-0.5-0.2l-0.3,0.2l-1,0.2l0.1,0.4l-0.2-0.1l0-0.1l-0.3,0.1l-0.4-0.2l0.1-0.3l-0.2-0.1
						l-0.1-0.3l-0.4,0.1l0-0.4l0.3-0.3l0-0.5l-0.2-0.1l-0.1-0.2l-0.6,0l0.1-0.1l-0.2-0.2l-0.2,0.1l-0.3-0.1l-1,0.5l-0.3-0.1
						l-0.2-0.1l-0.2,0.1l-0.2,0.3l0-0.3l-0.2,0.1l-0.8-0.1l-1.5-0.8l-0.1,0.1l-0.8-0.5l-0.1-0.4l0.2,0l0-0.2l-0.1-0.2l0-0.3
						l-0.4-0.4l-0.6-0.1l-0.1-0.3l-0.3-0.3l0-0.3l-0.3,0l-0.1-0.3l0.6-0.4l0.4,0l0.1-0.2l0.4,0l0.1-0.1L94.9,16.4L94.9,16.4"/>
				</g>
				<g>
					<path class="st0" d="M109.2,22.6l-0.2,0.6l-0.1,0.3l-0.2-0.3l0-0.3l0.2-0.3l0.3-0.3l0.2,0.1L109.2,22.6"/>
				</g>
				<g>
					<path class="st0" d="M70.9,14.9l0.2,0l0-0.1l0.3-0.1l0.1,0.1l0.5,0.1l0,0.2l0.1,0.1l-0.3-0.1l-0.3,0.1l0,0.2l0,0.1l0.1,0.2
						L72,16l0.2,0.3l0.4,0.3l0.3,0l0.1,0.1l-0.1,0.1l0.3,0.1l0.3,0.1l0.3,0.2l0,0.1l-0.1,0.1l-0.2-0.2l-0.3-0.1L73,17.3l0.2,0.1
						l0,0.2l-0.1,0l-0.2,0.3l-0.1,0l0-0.1l0.1-0.2l0.1-0.1l-0.1-0.2l-0.1-0.2l-0.1,0L72.4,17L72.2,17L72,16.8l-0.3,0l-0.3-0.2
						l-0.3-0.2l-0.2-0.2l-0.1-0.3l-0.2,0l-0.3-0.1l-0.2,0L70,16l-0.1,0l0-0.1l-0.2,0l-0.1-0.3l0.1-0.1l-0.1-0.1l0-0.1l0.1,0.1l0.2,0
						l0.2-0.1l0.1,0.1l0.2,0l0.1-0.1l0.3,0l0.2-0.1L70.9,14.9"/>
				</g>
				<g>
					<path class="st0" d="M72.4,17.9l0.3,0l-0.1,0.3l0.1,0.1l-0.1,0.2l-0.3-0.1l-0.2,0l-0.5-0.2l0-0.2l0.4,0L72.4,17.9"/>
				</g>
				<g>
					<path class="st0" d="M70.3,16.9l0.2-0.1l0.2,0.2l0,0.5l-0.2,0l-0.1,0.1l-0.1-0.1l0-0.4l-0.1-0.2L70.3,16.9"/>
				</g>
				<g>
					<path class="st0" d="M70.7,12.1l-0.2,0.1l-0.3,0l-0.1-0.2l0-0.4l0.1-0.1l0.1-0.1l0.3,0l0.1-0.1l0.3-0.1l0,0.2l-0.1,0.1l0,0.1
						l0.2,0.1L71,11.7l-0.1,0l-0.2,0.2L70.7,12.1"/>
				</g>
				<g>
					<path class="st0" d="M71.6,11.7l0.1,0.2l-0.2,0.3L71.1,12l0-0.1L71.6,11.7"/>
				</g>
				<g>
					<path class="st0" d="M65.2,12.5l-0.3-0.1l-0.2,0l0.1-0.2L64.7,12l0.3,0l0.4,0.2L65.2,12.5"/>
				</g>
				<g>
					<path class="st0" d="M66.3,12.6L66.3,12.6l0.1-0.2l-0.2-0.2l0,0l-0.4-0.1l-0.1-0.1l0.1-0.2l-0.1-0.1L65.4,12l0-0.3l-0.2-0.2
						l0.1-0.4l0.3-0.3l0.3,0l0.4,0l-0.4,0.4l0.4,0l0.4,0l-0.1,0.3l-0.3,0.3l0.4,0l0,0l0.3,0.4l0.2,0.1l0.2,0.4l0.1,0.1l0.4,0.1
						l0,0.2l-0.2,0.1l0.1,0.2l-0.3,0.2l-0.5,0l-0.6,0.1l-0.2-0.1l-0.2,0.2l-0.3,0l-0.2,0.1l-0.2-0.1l0.5-0.4l0.3-0.1l0,0l-0.5-0.1
						l-0.1-0.1l0.4-0.1l-0.2-0.2l0.1-0.2L66.3,12.6"/>
				</g>
				<g>
					<path class="st0" d="M62.3,8.2l-0.1,0.2l0.4,0.2l-0.4,0.3l-1,0.2l-0.3,0.1l-0.5-0.1l-1-0.1l0.3-0.2l-0.7-0.2l0.6-0.1l0-0.1
						L59,8.4l0.2-0.2l0.5-0.1l0.5,0.2l0.5-0.2l0.4,0.1l0.6-0.2L62.3,8.2"/>
				</g>
				<g>
					<path class="st0" d="M83.3,16.6L83.3,16.6l0.3,0.2l0.2,0l0.1-0.1l0.2-0.1l0.2,0.2l0.2,0.2l0.2,0l0.1,0.1l-0.3,0l-0.1,0.3
						l-0.1,0.1l-0.1,0.1l0,0.2l-0.1,0l-0.2-0.2l0.1-0.2l-0.1-0.1l-0.1,0l-0.4,0.3l0-0.2l-0.2-0.1L83,17.3l0.1-0.1l-0.2-0.1L83,17
						l-0.1-0.1l-0.1-0.1l0.1-0.1l0.3,0.1l0.2,0l0,0L83.3,16.6L83.3,16.6"/>
				</g>
				<g>
					<path class="st0" d="M83.2,17.7l-0.2,0l-0.2-0.2l-0.1-0.1l0.1,0l0.1,0.1l0.2,0l0,0.1L83.2,17.7"/>
				</g>
				<g>
					<path class="st0" d="M81.1,16.1L81.1,16.1l0.3,0l0.5,0.1l0.5,0.2l0.1,0.1l0.2-0.1l0.3,0.1l0.1,0.1l0.2,0.1l-0.1,0l0.2,0.2l0,0
						l-0.2,0l-0.3-0.1l-0.1,0.1l-0.5,0.1L82,16.7l-0.4,0l0.1-0.1l-0.1-0.2l-0.2-0.1l-0.2,0L81.1,16.1"/>
				</g>
				<g>
					<path class="st0" d="M108.9,26.6l-0.2-0.3l0.3,0l0.1,0.1l-0.1,0.3L108.9,26.6"/>
				</g>
				<g>
					<path class="st0" d="M109.5,27.6L109.5,27.6l0.1-0.3l0.2,0l-0.1,0.2l0.3-0.3l0,0.3l-0.1,0.1l-0.1,0.2l-0.1,0.1L109.5,27.6
						L109.5,27.6"/>
				</g>
				<g>
					<path class="st0" d="M110.8,28.1l0,0.2l0,0.2l-0.1,0.3l-0.1-0.4l-0.2,0.2l0.1,0.3l-0.1,0.2l-0.4-0.2l-0.1-0.2l0.1-0.2l-0.2-0.2
						l-0.1,0.1l-0.2,0l-0.3,0.2l-0.1-0.1l0.1-0.3l0.2-0.1l0.2-0.1l0.1,0.2l0.3-0.1l0.1-0.2l0.2,0l0-0.3l0.3,0.2l0,0.2L110.8,28.1"/>
				</g>
				<g>
					<path class="st0" d="M108.1,27.8l-0.5,0.3l0.2-0.2l0.2-0.2l0.2-0.2l0.2-0.3l0.1,0.3l-0.2,0.2L108.1,27.8"/>
				</g>
				<g>
					<path class="st0" d="M109.4,24.7l-0.1,0.1l0.1,0.2l-0.1,0.3l-0.2,0.1l-0.1,0.3l0.1,0.3l0.2,0l0.2,0l0.4,0.2l0,0.2l0.1,0.1
						l0,0.2l-0.3-0.2l-0.1-0.2l-0.1,0.1l-0.2-0.2l-0.3,0.1l-0.2-0.1l0-0.1l0.1-0.1l-0.1-0.1l0,0.1l-0.2-0.2l-0.1-0.1l0-0.3l0.1,0.1
						l0-0.5l0.1-0.3l0.2,0l0.2,0.1L109.4,24.7L109.4,24.7"/>
				</g>
				<g>
					<path class="st0" d="M109.3,27.1l-0.1-0.2l0.2,0.1l0.2,0l0,0.1l-0.2,0.1l-0.2,0.1l0-0.2L109.3,27.1"/>
				</g>
				<g>
					<path class="st0" d="M110.5,26.8l0.1,0.4l-0.3-0.1l0,0.1l0.1,0.2l-0.2,0.1l0-0.2l-0.1,0l-0.1-0.2l0.2,0l0-0.1l-0.2-0.3l0.3,0
						L110.5,26.8"/>
				</g>
				<g>
					<path class="st0" d="M101.7,28.8L101.7,28.8l0.3,0.1l0,0.2l0.2,0l0.1-0.1l0.1,0l0.2,0.2l0.1,0.2l0,0.2l0,0.2l0,0.1l0,0.2
						l0.1,0.1l0.1,0.3l0,0.1l-0.2,0l-0.3-0.3l-0.4-0.3l0-0.2l-0.2-0.2l0-0.3l-0.1-0.2l0-0.3L101.7,28.8"/>
				</g>
				<g>
					<path class="st0" d="M107.9,29.6l-0.3-0.1l-0.4,0l-0.1,0.4l-0.1,0.1l-0.2,0.5l-0.3,0.1l-0.3-0.1l-0.2,0l-0.2,0.2l-0.2,0
						l-0.2,0.1l-0.2-0.2l-0.1-0.2l0.3,0.1l0.3-0.1l0.1-0.3l0.1-0.1l0.4-0.1l0.2-0.3l0.2-0.2l0.2,0.2l0.1-0.1l0.2,0l0-0.2l0-0.2
						l0.3-0.2l0.2-0.3l0.1,0l0.2,0.2l0,0.1L108,29l0.3,0.1l0,0.1l-0.2,0l0.1,0.2L107.9,29.6"/>
				</g>
				<g>
					<path class="st0" d="M107,29.1l0,0.2l0,0.2l-0.2,0l-0.1,0.1l-0.2-0.2l0.1-0.1L107,29.1"/>
				</g>
				<g>
					<path class="st0" d="M72.1,15l0.3,0l0.2-0.1l0.3,0l0.1-0.1l0.1,0L73,15l-0.3,0.1l0,0.1l-0.1,0l0,0.1l-0.1,0l-0.1-0.1l-0.1,0.1
						l-0.2,0l0.1,0L72,15.2L72.1,15"/>
				</g>
				<g>
					<path class="st0" d="M77.2,7.3l-0.1,0.2l0.5,0.2L77.3,8l0.4,0.4l-0.2,0.3l0.3,0.3l-0.1,0.2l0.5,0.2L78,9.6l-0.3,0.2L77,10.2
						l0,0v0l-0.6,0l-0.6,0.1l-0.6,0.1L75,10.2l-0.3-0.1l0.1-0.3l-0.2-0.3l0.2-0.2L75,9.1l0.8-0.4l0.2-0.1l0-0.1l-0.5-0.2l-0.1-0.1
						l0-0.5l-0.5-0.2l-0.5-0.2l0.2-0.1L75,7.3l0.4,0l0.4,0.1l0.3-0.2L76.3,7l0.5-0.1L77.3,7L77.2,7.3"/>
				</g>
				<g>
					<path class="st0" d="M75.1,14.1L75.1,14.1l-0.2,0.2l-0.1,0l-0.4-0.1l-0.1,0l-0.1,0.1l-0.2,0l0,0l-0.2,0.1l-0.1,0l0,0.1l-0.3,0
						l-0.1,0l-0.2-0.1l0-0.1l0,0l0-0.1l0.2,0l0.1,0l0,0l0.1,0l0-0.1l0.1,0l0.1-0.1l0.1,0l0,0l0.1,0l0.2,0.1l0.2-0.1l0.2,0l0.2,0
						L75.1,14.1"/>
				</g>
				<g>
					<path class="st0" d="M72.5,13.4l0.2,0.1l0.3,0l0,0.1l0.2,0.1l0.1-0.1l0.2,0l0,0.1l0.3,0l0.2,0.2l-0.1,0L73.6,14l-0.1,0l0,0.1
						l-0.1,0l0,0l-0.1,0l-0.2,0l0,0.1L73,14.2l-0.2,0l-0.3-0.1l-0.1,0l-0.2,0.1L72,14.2l-0.2-0.1L71.6,14l0-0.1l-0.1-0.1l0.2-0.1
						l0.1-0.1l0.2-0.1l0.1-0.1l0.1,0L72.5,13.4"/>
				</g>
				<g>
					<path class="st0" d="M79.8,26.1l0-0.1l0.1-0.5l0-0.2l0.1-0.1l0.3-0.1l0.2-0.2l0.2,0.4l0.1,0.3l0.2,0.2l0.5,0.3l0.2,0.2l0.2,0.2
						l0.1,0.1l0.2,0.1L82,26.7l-0.1,0l-0.1-0.1l-0.1-0.2l-0.2-0.1l-0.1-0.1L81.1,26l-0.2,0l-0.1-0.1L80.6,26l-0.2-0.2l-0.1,0.3
						L79.8,26.1"/>
				</g>
				<g>
					<path class="st0" d="M116.1,17.5l-0.3,0.3l0,0.4l-0.1,0.3l0.1,0.2l-0.2,0.2l-0.4,0.2l-0.6,0l-0.5,0.4l-0.2-0.1l0-0.3l-0.6,0.1
						l-0.4,0.2l-0.4,0l0.3,0.3l-0.2,0.6l-0.2,0.1l-0.2-0.1l0.1-0.3l-0.2-0.1l-0.1-0.2l0.3-0.1l0.2-0.2l0.3-0.2l0.3-0.2l0.7-0.1
						l0.4,0.1l0.4-0.6l0.2,0.2l0.5-0.3l0.2-0.1l0.2-0.4l-0.1-0.4l0.1-0.2l0.4-0.1l0.2,0.5L116.1,17.5"/>
				</g>
				<g>
					<path class="st0" d="M117.1,15.9l0.2-0.1l0.1,0.4l-0.5,0.1l-0.3,0.3l-0.5-0.2l-0.2,0.4l-0.4,0l0-0.3l0.2-0.3l0.4,0l0.1-0.5
						l0.1-0.3l0.4,0.4l0.3,0.1L117.1,15.9"/>
				</g>
				<g>
					<path class="st0" d="M112.8,19.5l0.2-0.2l0.2,0l0.1-0.1l0.3,0.1l0,0.1l-0.2,0.2l-0.1-0.1l-0.2,0.1l-0.1,0.2l-0.2-0.1
						L112.8,19.5"/>
				</g>
				<g>
					<path class="st0" d="M47.3,38l0.1,0.2l0,0.5l0.4,0.1l0.1-0.1l0.2,0.1l0.1,0.1l0,0.3l0,0.1l0.1,0l0.1-0.1l0.1,0.1l0,0.2l0,0.2
						l-0.1,0.2l-0.1,0.3l-0.3,0.3l-0.3,0.1l-0.4-0.1l-0.3-0.1l0.3-0.5l0-0.2l-0.4-0.1l-0.4-0.3l-0.3-0.1l-0.6-0.6l0.1-0.4l0-0.2
						l0.2-0.3l0.6-0.1l0.3,0l0.3,0.2L47.3,38"/>
				</g>
				<g>
					<path class="st0" d="M85.2,24.5l0.3,0.6l0.1,0.2l-0.2,0.1l-0.1,0.2l0,0.1l-0.3,0.1L84.4,26l-0.3,0.2l-0.2,0l-0.1,0l-0.2,0.1
						l-0.2,0.1l-0.3,0l-0.1,0l-0.1,0.1l-0.1,0l-0.1,0.1l-0.2,0l-0.1,0l-0.2,0l-0.1-0.2l0-0.2l-0.1-0.1l-0.1-0.3L82,25.8l0.1,0l0-0.2
						l0-0.1l0-0.2l0.2-0.1l0-0.1l0.1-0.2l0.1,0.1l0.1,0l0.4,0l0.1,0l0.3,0l0.1,0l0.1,0.1l0.2-0.1l0.2-0.4l0.3-0.2L85.2,24.5"/>
				</g>
				<g>
					<path class="st0" d="M79.3,20.9l0.4,0.1l0.1-0.1l0.1-0.1l0.3,0l0.1-0.1l0.1-0.1L80,20.2l0.7-0.2l0.1-0.1l0.4,0.1l0.5,0.2l1,0.7
						l0.6,0l0.3,0l0.1,0.2l0.2,0l0.1,0.3l0.2,0.1l0.1,0.1l0.2,0.1l0,0.1l0,0.1l0,0.1l0.1,0.1l0,0.1l0.1,0.1l0.1,0.1l0.1,0l0.1,0.1
						l0,0.1l0.1,0.3l1,0.2l0.1-0.1l0.2,0.2l-0.2,0.7l-1,0.3l-1,0.1l-0.3,0.2l-0.2,0.4l-0.2,0.1l-0.1-0.1l-0.1,0l-0.3,0l-0.1,0
						l-0.4,0l-0.1,0L82.2,25l-0.1,0.2l0,0.1L82,25.4l0-0.1l-0.1-0.1l0-0.1l-0.2-0.1l-0.2-0.3l-0.1-0.3l-0.2-0.2L81,24l-0.2-0.3
						l0-0.2l0-0.2l-0.2-0.4l-0.2-0.1l-0.2-0.1l-0.1-0.2l0-0.1L80,22.2l-0.1-0.1l-0.1-0.3l-0.2-0.3l-0.2-0.2l-0.2,0l0.1-0.2l0-0.1
						L79.3,20.9"/>
				</g>
				<g>
					<path class="st0" d="M78.6,18.9L78.6,18.9L78.6,18.9l0.3-0.1l0.3-0.1L79,18.9l0,0.1l0,0l-0.1,0l-0.1,0l0,0l0,0l0,0l-0.1,0
						L78.6,18.9L78.6,18.9"/>
				</g>
				<g>
					<path class="st0" d="M78.6,18.9L78.6,18.9l0.2,0l0.1,0l0,0l0,0l0,0l0.1,0l0.1,0l0,0l0,0l-0.4,0.1l-0.2,0l-0.1-0.1L78.6,18.9"/>
				</g>
				<g>
					<path class="st0" d="M66.6,18.9l0.1,0.2l0,0.2l0.1,0.4l0.1,0.1l-0.1,0.1L66.4,20l-0.2,0.1l-0.2,0l0,0.3l-0.4,0.1l-0.1,0.2
						l-0.3,0.1l-0.3,0.1l-0.6,0.3l0,0.4h-0.1l0,0.2l-0.2,0L64,21.8h-0.2l-0.1,0l-0.3,0L63.3,22l-0.1,0L63,22.5l-0.5,0.4l-0.1,0.5
						l-0.1,0.2l0,0.1l-0.8,0l0,0l0-0.2l0.1-0.1l0.1-0.2l0-0.1l0.1-0.2l0.2-0.2l0.1-0.1l0.1-0.2l0-0.2l0.1-0.2l0.2-0.1l0.2-0.4l0,0
						l0.2-0.1l0.3,0l0.3-0.2l0.2-0.1l0.3-0.3l-0.1-0.4l0.1-0.3l0-0.2l0.2-0.2l0.3-0.2l0.3-0.1l0.2-0.4l0.1-0.2l0.3,0l0.2,0.1l0.3,0
						l0.4,0.1L66.6,18.9"/>
				</g>
				<g>
					<path class="st0" d="M80,23.4h-1.4h-1.3h-1.4v-1.3V21l-0.1-0.3l0.1-0.2l-0.1-0.1l0.1-0.2l0.5,0l0.3,0.1l0.3,0.1l0.2,0.1
						l0.3-0.1l0.1-0.1l0.3,0l0.2,0l0.1,0.2l0.1-0.1l0.3,0.1l0.3,0l0.2-0.1l0,0l0.2,0.5l0,0.1L79.2,21l-0.1,0.3l-0.1,0.2L79,21.5
						l-0.1-0.1l-0.2-0.2l-0.2-0.5l0,0l0.1,0.4l0.2,0.3L79,22l0.1,0.2l0.1,0.2l0.3,0.4l-0.1,0.1l0,0.2L80,23.4L80,23.4"/>
				</g>
				<g>
					<path class="st0" d="M75.9,23.4v0.7l-0.4,0l0,0.1l-1.4-0.7L72.8,23l-0.3,0.2l-0.2,0.1L72,23.1l-0.5-0.1l-0.2-0.2L71,22.6
						l-0.2,0.1l-0.1-0.2l0-0.1L70.5,22l0.1-0.1l0-0.2l0-0.2l0-0.2l0.1-0.3l0-0.2l-0.1-0.3l0.2-0.1l0-0.1l0-0.1l0.2-0.1l0.1-0.1
						l0.2-0.1l0-0.3l0.4,0.1l0.1,0l0.3,0.1l0.5,0.2l0.2,0.3l0.3,0.1l0.5,0.1l0.4,0.2l0.2-0.1l0.2-0.2l-0.1-0.3l0.1-0.2l0.2-0.2
						l0.2,0l0.5,0.1l0.1,0.2l0.1,0l0.1,0.1l0.3,0l0.1,0.1l-0.1,0.2l0.1,0.1l-0.1,0.2l0.1,0.3v1.2V23.4"/>
				</g>
				<g>
					<path class="st0" d="M83.8,28.3l-1,1l-0.4,0L82,29.5l-0.2,0l-0.1,0.1l-0.2,0l-0.1-0.1L81,29.7l-0.1,0.1l-0.2,0l-0.1,0l-0.1,0
						l-0.1,0L80,29.5h-0.2l-0.1-0.1v-0.2l-0.2-0.1l-0.2-0.4l-0.2-0.1L79,28.5l-0.2-0.2l-0.2,0l0.1-0.2l0.2,0L79,28l0-0.3l0.1-0.4
						l0.2-0.1l0-0.1l0.1-0.3l0.2-0.2l0.1-0.3l0.1-0.3l0.4,0.1l0.1-0.3l0.2,0.2l0.2-0.1l0.1,0.1l0.2,0l0.3,0.1l0.1,0.1l0.2,0.1
						l0.1,0.2l0.1,0.1l-0.1,0.2L81.6,27l0,0.1l0,0.1l0.2,0l0.1,0l0.1,0.1L82,27.4l0.1,0.2l0.1,0.2l0.1,0.1l1.1,0.4L83.8,28.3"/>
				</g>
				<g>
					<path class="st0" d="M81.9,26.7l0.1,0l0.1-0.1l0.1,0.1l0,0.1L82,27l0.1,0.1L82,27.3L82,27.2l-0.1,0l-0.2,0l0-0.1l0-0.1l0.1-0.2
						L81.9,26.7"/>
				</g>
				<g>
					<path class="st0" d="M84.2,27.1L84.2,27.1L84.2,27.1l0,0.1l0,0.3l0,0.2L84,28l-0.2,0.3l-0.3,0l-1.1-0.4l-0.1-0.1l-0.1-0.2
						L82,27.4l0.1-0.1l0.1-0.2l0.1,0.1l0.1,0.1l0.2,0.1l0.2,0l0.3-0.1l0.4,0l0.3-0.1l0.2,0l0.1-0.1L84.2,27.1L84.2,27.1"/>
				</g>
				<g>
					<path class="st0" d="M79,31.3l-0.7,0l-0.4,0l-0.1,0l-0.2,0.1l-0.1,0l0-0.3l0.1-0.1l0-0.3l0.1-0.2l0.1-0.2l0.1-0.1l0.1-0.1
						l-0.1,0l0-0.4l0,0l0.1-0.1l0.2,0.1l0.3-0.1l0.2,0l0.2-0.2l0.2,0.2l0,0.2l0.2,0.4l-0.1,0.3l-0.2,0.2L79,31L79,31.3"/>
				</g>
				<g>
					<path class="st0" d="M77.8,31.4l0.1,0.2l0,0.2l-0.1,0v0l-0.2,0L77.5,32l-0.2,0l0-0.2l0,0l0-0.2l0.1-0.1l0.1,0L77.8,31.4"/>
				</g>
				<g>
					<path class="st0" d="M73.7,16.3l-0.3-0.1l-0.1-0.1L73.1,16L73,15.9l-0.1-0.1l-0.2-0.2l0.1-0.1l0.1,0.1l0.1-0.1l0.2,0l0.3,0.1
						l0.2,0l0.2,0.1l0,0l0.1,0l-0.1,0.2l0.2,0.1L74,16l-0.1,0l-0.1,0l-0.1,0.1L73.7,16.3"/>
				</g>
				<g>
					<path class="st0" d="M75,16.5l0.2,0.1l0,0.2l-0.1,0l-0.1,0.1l-0.2,0l-0.1,0.1l-0.2,0l-0.1-0.1l0-0.1l0-0.1l0,0l0,0l0-0.1
						l0.2-0.1l0.1,0l0.1,0L75,16.5"/>
				</g>
				<g>
					<path class="st0" d="M73.8,15.2L73.8,15.2l0.3-0.1l0.2,0l0.2,0.1l0,0.1l0.2,0.1l0,0.1l0.2,0.1l0.1-0.1l0.1,0L75,15.7l0.1,0.1
						L75,15.9l0,0.1l0.2,0.1l-0.1,0.1L75,16.4l0,0l-0.1,0l-0.2,0l-0.1,0l0,0l0,0l0-0.1l0,0l-0.1-0.1l-0.1,0l0-0.1l-0.1,0l0,0l-0.1,0
						l0,0.1l-0.1,0l0,0l-0.1-0.1l-0.1,0l-0.1,0L73.9,16l0.1,0l0.1-0.2l-0.2-0.1l0.1-0.2l-0.1,0l0,0l0.1-0.1l-0.1-0.1L73.8,15.2"/>
				</g>
				<g>
					<path class="st0" d="M74.2,16.4L74.2,16.4l-0.1,0L74,16.5l0,0.1l-0.1,0l-0.1-0.1l-0.1-0.1l0-0.1l0.1-0.2l0.1-0.1l0.1,0l0.1,0.1
						l0.1,0l0.1,0l0.1,0.1L74.2,16.4L74.2,16.4"/>
				</g>
				<g>
					<path class="st0" d="M74.4,16.6l0-0.1l-0.1,0l-0.1-0.1l0.1-0.1l0.1,0l0-0.1l0.1,0l0,0l0.1,0l0,0.1l0.1,0l0.1,0.1l0,0l0,0.1l0,0
						l0,0l-0.1,0L74.4,16.6L74.4,16.6L74.4,16.6"/>
				</g>
				<g>
					<path class="st0" d="M46.1,27.3l0.2,0l0.1,0l0,0.3l-0.3,0l-0.1,0l0.1-0.1L46.1,27.3"/>
				</g>
				<g>
					<path class="st0" d="M77.9,29.8l-0.3-0.2l-0.1-0.1l-0.2,0.1l-0.2,0l-0.1,0.1l-0.2,0l-0.2-0.3l-0.1-0.1L76.4,29l-0.1-0.2
						l-0.1-0.1L76,28.4l0-0.1l-0.2-0.1L75.5,28l0.1,0l0.1-0.1l0.1-0.3l0.1-0.2l0.2,0l0.1,0.1l0.2,0.2l0.1,0l0.1-0.1l0.2,0l0,0.1h0.3
						l0-0.1l0.2-0.1l0-0.1l0.1-0.1l0.3,0.2l0.2,0l0.2-0.2l0.2-0.2l0-0.2l-0.1-0.1l0.2,0l0-0.1l0.2,0l0,0.3l0,0.2l0.2,0.1l0,0.1
						l0,0.2l0,0l0,0.3L79,28.1l-0.2,0l-0.1,0.2l0.2,0l0.2,0.2l0.1,0.1l0.2,0.1l0.2,0.4l-0.2,0.2L79,29.5l-0.2,0.2l-0.2,0l-0.3,0.1
						l-0.2-0.1L77.9,29.8"/>
				</g>
			</g>
			<g id="PathCollection_1">
				<g>
					<g>
						<g>
							<path id="m5d7e6c842e" class="st1" d="M22.7,16.3l4.5-4.5 M22.7,11.8l4.5,4.5"/>
						</g>
					</g>
				</g>
			</g>
			<g>
				<g>
					<path id="DejaVuSans-56" d="M4.8,50.4L2,43.1h1l2.3,6.1l2.3-6.1h1l-2.8,7.3H4.8z"/>
				</g>
				<g>
					<path id="DejaVuSans-61" d="M11.4,47.7c-0.7,0-1.2,0.1-1.5,0.2c-0.3,0.2-0.4,0.4-0.4,0.8c0,0.3,0.1,0.6,0.3,0.8
						c0.2,0.2,0.5,0.3,0.9,0.3c0.5,0,0.9-0.2,1.2-0.5c0.3-0.4,0.5-0.8,0.5-1.4v-0.2H11.4z M13.2,47.3v3.1h-0.9v-0.8
						c-0.2,0.3-0.5,0.6-0.8,0.7c-0.3,0.2-0.7,0.2-1.1,0.2c-0.6,0-1-0.2-1.3-0.5c-0.3-0.3-0.5-0.7-0.5-1.3c0-0.6,0.2-1.1,0.6-1.4
						c0.4-0.3,1-0.5,1.8-0.5h1.3v-0.1c0-0.4-0.1-0.7-0.4-1c-0.3-0.2-0.7-0.3-1.1-0.3c-0.3,0-0.6,0-0.9,0.1C9.6,45.8,9.3,45.9,9,46
						v-0.8c0.3-0.1,0.6-0.2,1-0.3c0.3-0.1,0.6-0.1,0.9-0.1c0.8,0,1.4,0.2,1.8,0.6C13,45.9,13.2,46.5,13.2,47.3z"/>
				</g>
				<g>
					<path id="DejaVuSans-6e" d="M19.6,47.1v3.3h-0.9v-3.3c0-0.5-0.1-0.9-0.3-1.2c-0.2-0.3-0.5-0.4-0.9-0.4c-0.5,0-0.9,0.2-1.1,0.5
						c-0.3,0.3-0.4,0.7-0.4,1.3v3.1H15V45h0.9v0.8c0.2-0.3,0.5-0.6,0.8-0.7c0.3-0.2,0.6-0.2,1-0.2c0.6,0,1.1,0.2,1.4,0.6
						C19.5,45.8,19.6,46.4,19.6,47.1z"/>
				</g>
				<g>
					<path id="DejaVuSans-63" d="M25.3,45.2V46c-0.3-0.1-0.5-0.2-0.8-0.3c-0.3-0.1-0.5-0.1-0.8-0.1c-0.6,0-1,0.2-1.4,0.6
						C22.1,46.5,22,47,22,47.7c0,0.7,0.2,1.2,0.5,1.6c0.3,0.4,0.8,0.6,1.4,0.6c0.3,0,0.5,0,0.8-0.1c0.3-0.1,0.5-0.2,0.8-0.3v0.8
						c-0.3,0.1-0.5,0.2-0.8,0.3c-0.3,0.1-0.6,0.1-0.9,0.1c-0.8,0-1.5-0.3-2-0.8c-0.5-0.5-0.7-1.2-0.7-2.1c0-0.9,0.2-1.6,0.7-2.1
						c0.5-0.5,1.2-0.8,2-0.8c0.3,0,0.5,0,0.8,0.1C24.8,45,25.1,45.1,25.3,45.2z"/>
				</g>
				<g>
					<path id="DejaVuSans-6f" d="M29,45.6c-0.5,0-0.9,0.2-1.1,0.6s-0.4,0.9-0.4,1.5c0,0.7,0.1,1.2,0.4,1.5c0.3,0.4,0.7,0.6,1.1,0.6
						c0.5,0,0.9-0.2,1.1-0.6c0.3-0.4,0.4-0.9,0.4-1.5c0-0.6-0.1-1.2-0.4-1.5C29.9,45.8,29.5,45.6,29,45.6z M29,44.8
						c0.8,0,1.4,0.3,1.8,0.8c0.4,0.5,0.7,1.2,0.7,2.1c0,0.9-0.2,1.6-0.7,2.1c-0.4,0.5-1.1,0.8-1.8,0.8c-0.8,0-1.4-0.3-1.8-0.8
						c-0.4-0.5-0.7-1.2-0.7-2.1c0-0.9,0.2-1.6,0.7-2.1C27.6,45.1,28.2,44.8,29,44.8z"/>
				</g>
				<g>
					<path id="DejaVuSans-75" d="M32.9,48.3V45h0.9v3.3c0,0.5,0.1,0.9,0.3,1.2c0.2,0.3,0.5,0.4,0.9,0.4c0.5,0,0.9-0.2,1.1-0.5
						c0.3-0.3,0.4-0.7,0.4-1.3V45h0.9v5.5h-0.9v-0.8c-0.2,0.3-0.5,0.6-0.8,0.7c-0.3,0.2-0.6,0.2-1,0.2c-0.6,0-1.1-0.2-1.4-0.6
						C33.1,49.6,32.9,49,32.9,48.3z M35.2,44.8L35.2,44.8z"/>
				</g>
				<g>
					<path id="DejaVuSans-76" d="M38.7,45h1l1.7,4.6l1.7-4.6h1L42,50.4h-1.2L38.7,45z"/>
				</g>
				<g>
					<path id="DejaVuSans-65" d="M50,47.5v0.4h-4.1c0,0.6,0.2,1.1,0.6,1.4c0.3,0.3,0.8,0.5,1.4,0.5c0.3,0,0.7,0,1-0.1
						c0.3-0.1,0.6-0.2,1-0.4v0.9c-0.3,0.1-0.7,0.2-1,0.3c-0.3,0.1-0.7,0.1-1,0.1c-0.9,0-1.6-0.3-2.1-0.8c-0.5-0.5-0.8-1.2-0.8-2.1
						c0-0.9,0.2-1.6,0.7-2.1c0.5-0.5,1.1-0.8,2-0.8c0.7,0,1.3,0.2,1.7,0.7C49.7,46,50,46.7,50,47.5z M49.1,47.2
						c0-0.5-0.1-0.9-0.4-1.2c-0.3-0.3-0.6-0.4-1.1-0.4c-0.5,0-0.9,0.1-1.2,0.4s-0.5,0.7-0.5,1.2L49.1,47.2z"/>
				</g>
				<g>
					<path id="DejaVuSans-72" d="M54.6,45.8c-0.1-0.1-0.2-0.1-0.3-0.1c-0.1,0-0.2,0-0.4,0c-0.5,0-0.9,0.2-1.2,0.5
						c-0.3,0.3-0.4,0.8-0.4,1.4v2.9h-0.9V45h0.9v0.8c0.2-0.3,0.4-0.6,0.7-0.7c0.3-0.2,0.7-0.2,1.1-0.2c0.1,0,0.1,0,0.2,0
						c0.1,0,0.2,0,0.2,0L54.6,45.8z"/>
				</g>
				<g>
					<path id="DejaVuSans-43" d="M6.4,53.6v0.7C6.2,54.1,6,54,5.7,53.9c-0.3-0.1-0.5-0.2-0.8-0.2c-0.6,0-1,0.2-1.3,0.5
						c-0.3,0.4-0.5,0.9-0.5,1.5c0,0.7,0.2,1.2,0.5,1.5c0.3,0.4,0.8,0.5,1.3,0.5c0.3,0,0.6-0.1,0.8-0.2c0.3-0.1,0.5-0.3,0.7-0.5v0.7
						c-0.2,0.2-0.5,0.3-0.8,0.4c-0.3,0.1-0.6,0.1-0.9,0.1c-0.8,0-1.4-0.2-1.8-0.7c-0.4-0.5-0.7-1.1-0.7-1.9c0-0.8,0.2-1.5,0.7-1.9
						c0.4-0.5,1.1-0.7,1.8-0.7c0.3,0,0.6,0,0.9,0.1C6,53.3,6.2,53.5,6.4,53.6z"/>
				</g>
				<g>
					<path id="DejaVuSans-61_00000124137103072333309170000001860921524699296141_" d="M9.2,56.4c-0.5,0-0.9,0.1-1.1,0.2
						c-0.2,0.1-0.3,0.3-0.3,0.6c0,0.2,0.1,0.4,0.2,0.5c0.1,0.1,0.3,0.2,0.6,0.2c0.3,0,0.6-0.1,0.8-0.4c0.2-0.2,0.3-0.6,0.3-1v-0.1
						H9.2z M10.5,56.1v2.2H9.9v-0.6c-0.1,0.2-0.3,0.4-0.5,0.5c-0.2,0.1-0.5,0.2-0.8,0.2c-0.4,0-0.7-0.1-0.9-0.3
						c-0.2-0.2-0.3-0.5-0.3-0.9c0-0.4,0.1-0.8,0.4-1C8,56,8.4,55.9,9,55.9h0.9v-0.1c0-0.3-0.1-0.5-0.3-0.7s-0.5-0.2-0.8-0.2
						c-0.2,0-0.4,0-0.6,0.1c-0.2,0.1-0.4,0.1-0.6,0.2v-0.6c0.2-0.1,0.5-0.2,0.7-0.2c0.2,0,0.4-0.1,0.6-0.1c0.6,0,1,0.1,1.2,0.4
						C10.3,55.1,10.5,55.6,10.5,56.1z"/>
				</g>
				<g>
					<path id="DejaVuSans-6e_00000085217406164421033380000013479637439755294086_" d="M15,56v2.3h-0.6V56c0-0.4-0.1-0.6-0.2-0.8
						C14,55,13.8,55,13.5,55c-0.3,0-0.6,0.1-0.8,0.3c-0.2,0.2-0.3,0.5-0.3,0.9v2.2h-0.6v-3.8h0.6v0.6c0.2-0.2,0.3-0.4,0.5-0.5
						c0.2-0.1,0.4-0.2,0.7-0.2c0.4,0,0.8,0.1,1,0.4C14.8,55.1,15,55.5,15,56z"/>
				</g>
				<g>
					<path id="DejaVuSans-61_00000079448051296159211870000012073664191166636471_" d="M18,56.4c-0.5,0-0.9,0.1-1.1,0.2
						c-0.2,0.1-0.3,0.3-0.3,0.6c0,0.2,0.1,0.4,0.2,0.5c0.1,0.1,0.3,0.2,0.6,0.2c0.3,0,0.6-0.1,0.8-0.4s0.3-0.6,0.3-1v-0.1H18z
						 M19.2,56.1v2.2h-0.6v-0.6c-0.1,0.2-0.3,0.4-0.5,0.5c-0.2,0.1-0.5,0.2-0.8,0.2c-0.4,0-0.7-0.1-0.9-0.3
						c-0.2-0.2-0.3-0.5-0.3-0.9c0-0.4,0.1-0.8,0.4-1c0.3-0.2,0.7-0.3,1.3-0.3h0.9v-0.1c0-0.3-0.1-0.5-0.3-0.7
						c-0.2-0.2-0.5-0.2-0.8-0.2c-0.2,0-0.4,0-0.6,0.1c-0.2,0.1-0.4,0.1-0.6,0.2v-0.6c0.2-0.1,0.5-0.2,0.7-0.2c0.2,0,0.4-0.1,0.6-0.1
						c0.6,0,1,0.1,1.2,0.4C19.1,55.1,19.2,55.6,19.2,56.1z"/>
				</g>
				<g>
					<path id="DejaVuSans-64" d="M23,55.1V53h0.6v5.3H23v-0.6c-0.1,0.2-0.3,0.4-0.5,0.5c-0.2,0.1-0.4,0.2-0.7,0.2
						c-0.5,0-0.8-0.2-1.1-0.6c-0.3-0.4-0.4-0.9-0.4-1.5s0.1-1.1,0.4-1.5c0.3-0.4,0.7-0.6,1.1-0.6c0.3,0,0.5,0.1,0.7,0.2
						C22.7,54.7,22.9,54.9,23,55.1z M20.9,56.4c0,0.5,0.1,0.8,0.3,1.1s0.5,0.4,0.8,0.4c0.3,0,0.6-0.1,0.8-0.4
						c0.2-0.3,0.3-0.6,0.3-1.1s-0.1-0.8-0.3-1.1c-0.2-0.3-0.5-0.4-0.8-0.4c-0.3,0-0.6,0.1-0.8,0.4S20.9,56,20.9,56.4z"/>
				</g>
				<g>
					<path id="DejaVuSans-61_00000027577590490994573930000005678631423803358122_" d="M26.7,56.4c-0.5,0-0.9,0.1-1.1,0.2
						c-0.2,0.1-0.3,0.3-0.3,0.6c0,0.2,0.1,0.4,0.2,0.5c0.1,0.1,0.3,0.2,0.6,0.2c0.3,0,0.6-0.1,0.8-0.4c0.2-0.2,0.3-0.6,0.3-1v-0.1
						H26.7z M27.9,56.1v2.2h-0.6v-0.6c-0.1,0.2-0.3,0.4-0.5,0.5c-0.2,0.1-0.5,0.2-0.8,0.2c-0.4,0-0.7-0.1-0.9-0.3
						c-0.2-0.2-0.3-0.5-0.3-0.9c0-0.4,0.1-0.8,0.4-1c0.3-0.2,0.7-0.3,1.3-0.3h0.9v-0.1c0-0.3-0.1-0.5-0.3-0.7
						c-0.2-0.2-0.5-0.2-0.8-0.2c-0.2,0-0.4,0-0.6,0.1c-0.2,0.1-0.4,0.1-0.6,0.2v-0.6c0.2-0.1,0.5-0.2,0.7-0.2c0.2,0,0.4-0.1,0.6-0.1
						c0.6,0,1,0.1,1.2,0.4C27.8,55.1,27.9,55.6,27.9,56.1z"/>
				</g>
			</g>
		</g>
	</g>
</g>
<g id="Layer_2">
	<rect x="0.6" y="42.2" class="st2" width="54.7" height="9.7"/>
	<rect x="0.6" y="51.9" class="st2" width="29.9" height="7.8"/>
	<g>
		<g>
			<line class="st3" x1="13" y1="18.5" x2="19.1" y2="16"/>
			<g>
				<polygon class="st4" points="18.9,17 21.5,15 18.2,15.4 				"/>
			</g>
		</g>
	</g>
</g>
</svg>
